<svg width="100" height="100" viewBox="0 0 100 100" fill="none" xmlns="http://www.w3.org/2000/svg">
<circle cx="50" cy="50" r="50" fill="#004AAD" fill-opacity="0.15"/>
<path d="M26 68H55V77.766L61 74.166L67 77.766V68H74V30H26V68ZM65.265 61.214C65.175 61.305 65.079 61.389 64.984 61.474C64.93 61.522 64.88 61.573 64.824 61.619C64.762 61.671 64.696 61.715 64.632 61.764C63.789 62.409 62.773 62.838 61.664 62.961C61.646 62.963 61.628 62.967 61.609 62.969C61.408 62.989 61.204 63 60.998 63C60.792 63 60.588 62.989 60.387 62.969C60.369 62.967 60.351 62.963 60.332 62.961C59.223 62.838 58.208 62.409 57.364 61.764C57.3 61.715 57.234 61.67 57.172 61.619C57.117 61.573 57.066 61.522 57.012 61.474C56.917 61.389 56.822 61.305 56.731 61.214C55.66 60.13 54.996 58.642 54.996 57C54.996 53.691 57.687 51 60.996 51C64.305 51 66.996 53.691 66.996 57C67 58.641 66.337 60.129 65.265 61.214ZM65 74.234L61 71.834L57 74.234V68V63.93C57.034 63.95 57.072 63.963 57.107 63.982C57.372 64.13 57.645 64.266 57.927 64.384C57.939 64.389 57.952 64.393 57.965 64.398C58.902 64.784 59.926 65 61.001 65C62.076 65 63.1 64.784 64.037 64.398C64.049 64.393 64.062 64.389 64.075 64.384C64.357 64.266 64.63 64.131 64.895 63.982C64.93 63.963 64.968 63.95 65.002 63.93V68V74.234H65ZM28 32H72V66H67V62.274C68.241 60.864 69 59.021 69 57C69 52.589 65.411 49 61 49C56.589 49 53 52.589 53 57C53 59.021 53.759 60.864 55 62.274V66H28V32Z" fill="#004AAD"/>
<path d="M63 36H37V38H63V36Z" fill="#004AAD"/>
<path d="M58 42H42V44H58V42Z" fill="#004AAD"/>
<path d="M41 46.8828C36.0376 46.8828 32 50.6961 32 55.3828C32 60.0695 36.0376 63.8828 41 63.8828C45.9624 63.8828 50 60.0695 50 55.3828C50 50.6961 45.9624 46.8828 41 46.8828ZM41 63.1745C36.4509 63.1745 32.75 59.6792 32.75 55.3828C32.75 51.0864 36.4509 47.5911 41 47.5911C45.5491 47.5911 49.25 51.0864 49.25 55.3828C49.25 59.6792 45.5491 63.1745 41 63.1745Z" fill="#004AAD"/>
<path d="M40.25 51.1341H41.75C42.7839 51.1341 43.625 51.9285 43.625 52.9049H44.375C44.375 51.5379 43.1971 50.4258 41.75 50.4258H41.375V49.3633H40.625V50.4258H40.25C38.8029 50.4258 37.625 51.5379 37.625 52.9049V53.2591C37.625 54.6262 38.8029 55.7383 40.25 55.7383H41.75C42.7839 55.7383 43.625 56.5327 43.625 57.5091V57.8633C43.625 58.8397 42.7839 59.6341 41.75 59.6341H40.25C39.2161 59.6341 38.375 58.8397 38.375 57.8633H37.625C37.625 59.2304 38.8029 60.3424 40.25 60.3424H40.625V61.4049H41.375V60.3424H41.75C43.1971 60.3424 44.375 59.2304 44.375 57.8633V57.5091C44.375 56.142 43.1971 55.0299 41.75 55.0299H40.25C39.2161 55.0299 38.375 54.2356 38.375 53.2591V52.9049C38.375 51.9285 39.2161 51.1341 40.25 51.1341Z" fill="#004AAD"/>
</svg>
