<svg width="100" height="100" viewBox="0 0 100 100" fill="none" xmlns="http://www.w3.org/2000/svg">
<path d="M95.5508 28H88.5508C88.2099 28.0007 87.8764 27.9007 87.5922 27.7125C87.3079 27.5243 87.0856 27.2564 86.9532 26.9423C86.8207 26.6282 86.784 26.282 86.8476 25.9471C86.9112 25.6123 87.0723 25.3036 87.3107 25.06L92.1807 20.06C92.4448 19.7935 92.5954 19.4351 92.6007 19.06C92.586 18.683 92.4287 18.3256 92.1608 18.06L81.1608 7.38C80.8911 7.12322 80.5331 6.98 80.1608 6.98C79.7884 6.98 79.4304 7.12322 79.1608 7.38L74.9207 11.71C74.6854 11.9726 74.375 12.1565 74.0317 12.2368C73.6883 12.3171 73.3286 12.2899 73.0012 12.1589C72.6738 12.028 72.3945 11.7996 72.2013 11.5046C72.008 11.2097 71.9101 10.8625 71.9207 10.51V4.51C71.9343 4.12439 71.7946 3.74911 71.5323 3.46616C71.2699 3.18322 70.9063 3.01562 70.5207 3H55.2407C55.0495 3 54.8601 3.03783 54.6835 3.11132C54.507 3.18482 54.3467 3.29252 54.2119 3.42822C54.0771 3.56393 53.9705 3.72496 53.8982 3.90204C53.826 4.07912 53.7894 4.26874 53.7907 4.46V11.46C53.7839 11.7922 53.6798 12.1151 53.4914 12.3888C53.3031 12.6625 53.0386 12.875 52.7307 13C52.4164 13.1351 52.0691 13.1739 51.7327 13.1116C51.3962 13.0493 51.0859 12.8887 50.8407 12.65L45.8407 7.77C45.5761 7.5032 45.2165 7.35217 44.8407 7.35C44.4637 7.36476 44.1063 7.52201 43.8407 7.79L33.1607 18.79C32.904 19.0596 32.7607 19.4177 32.7607 19.79C32.7607 20.1623 32.904 20.5204 33.1607 20.79L37.4907 25.02C37.7478 25.2577 37.9267 25.5678 38.0038 25.9093C38.0808 26.2508 38.0525 26.6076 37.9225 26.9327C37.7925 27.2578 37.5669 27.5357 37.2755 27.7298C36.9842 27.924 36.6408 28.0252 36.2907 28.02H30.2907C29.9035 28.02 29.5322 28.1738 29.2584 28.4476C28.9846 28.7214 28.8307 29.0928 28.8307 29.48V33C23.1104 34.1721 17.814 36.8707 13.5033 40.8094C9.19263 44.7482 6.02836 49.7802 4.34615 55.3718C2.66394 60.9634 2.52653 66.906 3.94848 72.5694C5.37044 78.2328 8.29874 83.4057 12.4228 87.5395C16.5468 91.6732 21.7128 94.6137 27.3728 96.049C33.0329 97.4843 38.9758 97.3609 44.5714 95.6918C50.1669 94.0228 55.2064 90.8704 59.1552 86.569C63.1041 82.2676 65.8151 76.9775 67.0007 71.26H70.5107C70.705 71.264 70.8981 71.2292 71.0787 71.1576C71.2593 71.086 71.4238 70.9791 71.5626 70.8431C71.7013 70.7072 71.8116 70.5449 71.8868 70.3657C71.9621 70.1866 72.0008 69.9943 72.0007 69.8V62.8C71.9992 62.4599 72.0986 62.127 72.2862 61.8434C72.4739 61.5598 72.7414 61.3381 73.055 61.2065C73.3685 61.0748 73.7141 61.0391 74.048 61.1038C74.3819 61.1685 74.6891 61.3308 74.9307 61.57L79.9307 66.45C80.1989 66.7115 80.5563 66.8616 80.9307 66.87C81.3073 66.8533 81.664 66.6963 81.9307 66.43L92.6407 55.49C92.7765 55.356 92.8843 55.1965 92.9579 55.0205C93.0314 54.8445 93.0693 54.6557 93.0693 54.465C93.0693 54.2743 93.0314 54.0855 92.9579 53.9095C92.8843 53.7335 92.7765 53.574 92.6407 53.44L88.2807 49.2C88.0313 48.962 87.8597 48.6542 87.7883 48.3169C87.7169 47.9796 87.7491 47.6286 87.8807 47.31C88.0069 46.99 88.2276 46.7162 88.5135 46.525C88.7994 46.3338 89.1369 46.2344 89.4808 46.24H95.5508C95.9362 46.2374 96.305 46.0824 96.5767 45.8089C96.8483 45.5353 97.0008 45.1655 97.0007 44.78V29.49C97.0061 29.2962 96.9725 29.1034 96.9021 28.9228C96.8316 28.7423 96.7256 28.5776 96.5905 28.4387C96.4553 28.2998 96.2936 28.1894 96.115 28.1141C95.9365 28.0387 95.7446 27.9999 95.5508 28ZM64.3707 69.56C63.4698 74.8889 61.1194 79.8669 57.5771 83.9486C54.0347 88.0304 49.4372 91.0582 44.2882 92.7004C39.1392 94.3426 33.6376 94.5358 28.3861 93.2587C23.1347 91.9816 18.3361 89.2837 14.5162 85.4604C10.6964 81.6372 8.00264 76.8362 6.73023 71.5836C5.45782 66.3311 5.65584 60.8296 7.30258 55.6821C8.94932 50.5346 11.9812 45.9397 16.0661 42.401C20.1509 38.8622 25.1311 36.5162 30.4607 35.62C32.0789 35.3392 33.7184 35.1987 35.3607 35.2C39.0014 35.1945 42.6106 35.873 46.0007 37.2C49.8127 38.6806 53.2744 40.9391 56.1652 43.8316C59.0559 46.7241 61.3124 50.1872 62.7907 54C64.7217 58.9537 65.2679 64.3395 64.3707 69.58V69.56ZM65.0607 51.88C61.807 44.248 55.7412 38.1607 48.1207 34.88C48.5357 32.1496 49.7003 29.5879 51.4849 27.4802C53.2696 25.3725 55.6042 23.8015 58.2289 22.9422C60.8536 22.0828 63.6653 21.9688 66.3509 22.6129C69.0365 23.257 71.4907 24.6338 73.4401 26.5901C75.3895 28.5465 76.7577 31.0055 77.3922 33.6933C78.0268 36.3812 77.9029 39.1925 77.0342 41.8141C76.1656 44.4357 74.5864 46.7648 72.4724 48.542C70.3584 50.3192 67.7926 51.4747 65.0607 51.88ZM94.0607 43.33H89.4808C88.5587 43.3274 87.657 43.6014 86.8922 44.1166C86.1275 44.6318 85.5348 45.3645 85.1908 46.22C84.8317 47.0711 84.7408 48.0115 84.9302 48.9156C85.1196 49.8197 85.5803 50.6446 86.2507 51.28L89.5508 54.5L80.9108 63.37L76.9108 59.5C76.2593 58.8619 75.434 58.4303 74.5383 58.2595C73.6425 58.0886 72.7163 58.186 71.8757 58.5396C71.0352 58.8931 70.3177 59.487 69.8134 60.2467C69.309 61.0064 69.0402 61.8981 69.0407 62.81V68.35H67.4808C67.6241 67.1151 67.6975 65.8732 67.7007 64.63C67.7048 61.2334 67.1681 57.8578 66.1107 54.63C69.3071 54.0404 72.2815 52.5883 74.7124 50.4308C77.1432 48.2732 78.9381 45.4922 79.9029 42.3884C80.8677 39.2846 80.9657 35.9761 80.1864 32.8207C79.4071 29.6652 77.78 26.7828 75.4812 24.485C73.1823 22.1873 70.2992 20.5616 67.1433 19.7838C63.9875 19.006 60.679 19.1057 57.5757 20.072C54.4724 21.0383 51.6923 22.8345 49.5358 25.2664C47.3794 27.6983 45.9288 30.6734 45.3407 33.87C40.9331 32.4309 36.2654 31.9669 31.6607 32.51V30.94H36.2607C37.1906 30.946 38.1009 30.6725 38.8735 30.1549C39.646 29.6373 40.2452 28.8995 40.5934 28.0373C40.9415 27.175 41.0226 26.228 40.826 25.3191C40.6293 24.4102 40.1642 23.5813 39.4907 22.94L36.2007 19.74L44.8507 10.87L48.8507 14.74C49.5041 15.3773 50.3308 15.8078 51.2276 15.9776C52.1243 16.1473 53.0512 16.0489 53.8923 15.6945C54.7334 15.3402 55.4513 14.7456 55.9561 13.9853C56.461 13.225 56.7305 12.3327 56.7307 11.42V5.92H69.0707V10.52C69.0713 11.4467 69.3512 12.3518 69.8739 13.117C70.3966 13.8823 71.1378 14.4723 72.0007 14.81C72.8445 15.1543 73.7722 15.2374 74.6637 15.0484C75.5551 14.8594 76.3693 14.4071 77.0007 13.75L80.2207 10.46L89.0907 19.11L85.2308 23.06C84.5935 23.7133 84.163 24.5401 83.9932 25.4368C83.8234 26.3336 83.9219 27.2605 84.2762 28.1016C84.6306 28.9426 85.2251 29.6605 85.9854 30.1654C86.7457 30.6703 87.6381 30.9397 88.5508 30.94H94.0707L94.0607 43.33Z" fill="url(#paint0_linear_3047_22)"/>
<path d="M36.2602 48.4105C41.0402 48.4105 44.9202 51.7705 44.9202 55.9005H47.8302C47.8302 50.6605 43.4902 46.3205 37.8302 45.6205V40.2305H35.0002V45.5705C29.2302 46.1505 24.7202 50.5705 24.7202 55.9005C24.7202 61.0205 28.8702 65.2905 34.3002 66.1405C34.5021 66.2407 34.7247 66.292 34.9502 66.2905C39.9502 66.2905 44.0902 69.8405 44.0902 74.2005C44.0902 78.5605 39.9902 82.1105 34.9502 82.1105C29.9102 82.1105 25.8102 78.5605 25.8102 74.2005H22.9102C22.9102 80.2005 28.3102 85.0105 34.9102 85.0105H35.0002V89.0105H37.9102V84.6705C43.0902 83.4805 47.0002 79.2505 47.0002 74.2005C47.0002 68.8405 42.6402 64.3805 36.9302 63.5305C36.7329 63.4383 36.5179 63.3905 36.3002 63.3905C31.5202 63.3905 27.6302 60.0305 27.6302 55.9005C27.6302 51.7705 31.4802 48.4105 36.2602 48.4105Z" fill="url(#paint1_linear_3047_22)"/>
<defs>
<linearGradient id="paint0_linear_3047_22" x1="3.00075" y1="50" x2="97.0007" y2="50" gradientUnits="userSpaceOnUse">
<stop stop-color="#004AAD"/>
<stop offset="0.81" stop-color="#004AAD"/>
</linearGradient>
<linearGradient id="paint1_linear_3047_22" x1="22.8702" y1="64.6405" x2="47.8302" y2="64.6405" gradientUnits="userSpaceOnUse">
<stop stop-color="#004AAD"/>
<stop offset="0.81" stop-color="#004AAD"/>
</linearGradient>
</defs>
</svg>
