<svg width="100" height="100" viewBox="0 0 100 100" fill="none" xmlns="http://www.w3.org/2000/svg">
<path fill-rule="evenodd" clip-rule="evenodd" d="M49.8532 20.9121C49.0331 20.9121 48.3887 20.2677 48.3887 19.4476V12.4763C48.3887 11.6561 49.0331 11.0117 49.8532 11.0117C50.6734 11.0117 51.3178 11.6561 51.3178 12.4763V19.4476C51.3178 20.2677 50.6734 20.9121 49.8532 20.9121Z" fill="#004AAD"/>
<path fill-rule="evenodd" clip-rule="evenodd" d="M33.8603 34.5651C33.0402 34.5651 32.3958 33.9207 32.3958 33.1005V23.9031L24.4286 18.6307C24.0185 18.3964 23.7842 17.9277 23.7842 17.4005V9.31612C23.7842 8.49597 24.4286 7.85156 25.2487 7.85156C26.0689 7.85156 26.7133 8.49597 26.7133 9.31612V16.6975L34.6805 21.9699C35.0906 22.2042 35.3249 22.6729 35.3249 23.2001V33.1005C35.2663 33.9207 34.6219 34.5651 33.8603 34.5651Z" fill="#004AAD"/>
<path fill-rule="evenodd" clip-rule="evenodd" d="M65.9636 34.5651C65.1434 34.5651 64.499 33.9207 64.499 33.1005V23.2001C64.499 22.7315 64.7334 22.3214 65.1434 21.9699L73.1106 16.6975V9.31612C73.1106 8.49597 73.755 7.85156 74.5752 7.85156C75.3953 7.85156 76.0397 8.49597 76.0397 9.31612V17.4005C76.0397 17.9277 75.8054 18.3378 75.3953 18.6307L67.4281 23.9031V33.1005C67.4281 33.9207 66.7837 34.5651 65.9636 34.5651Z" fill="#004AAD"/>
<path fill-rule="evenodd" clip-rule="evenodd" d="M54.1884 99.941H46.2798C44.1709 99.941 42.5306 98.3007 42.5306 96.1917V90.0406C39.4843 89.279 36.5552 88.1074 33.6846 86.4671L29.1738 90.9193C27.7092 92.3839 25.3659 92.3839 23.96 90.9193L18.4532 85.4126C17.6917 84.651 17.2816 83.7137 17.2816 82.6592C17.2816 81.6633 17.6917 80.6674 18.4532 80.023L22.7297 75.7465C21.0308 72.9932 19.742 69.9469 18.9805 66.9006H12.6536C10.6618 66.9006 8.96289 65.2603 8.96289 63.1513V55.3599C8.96289 53.2509 10.5446 51.6106 12.6536 51.6106H18.9219C19.6835 48.4472 20.8551 45.4595 22.4954 42.7061L17.926 38.3124C17.223 37.668 16.8129 36.6721 16.8129 35.6762C16.8129 34.7389 17.223 33.743 17.926 33.04L23.4913 27.4747C24.1357 26.7717 25.073 26.3616 26.0689 26.3616C27.0648 26.3616 28.0021 26.7717 28.7637 27.4747L33.1574 31.8098C35.7936 30.1109 38.8399 28.8807 41.8861 28.0605V21.7336C41.8861 19.6833 43.585 17.9844 45.6354 17.9844H53.544C55.5358 17.9844 57.2347 19.6247 57.2347 21.7336V27.8848C60.3396 28.6464 63.3273 29.7594 66.1978 31.4583L70.6501 27.006C71.4116 26.3031 72.3489 25.893 73.3448 25.893C73.3448 25.893 73.3448 25.893 73.4034 25.893C74.3993 25.893 75.3952 26.3031 76.0396 27.006L81.5464 32.5128C82.2494 33.2744 82.6009 34.1531 82.6009 35.149C82.6009 36.0863 82.1908 37.0822 81.5464 37.7266L77.1527 42.1203C78.8516 44.8151 80.0818 47.7442 80.9605 50.9076H87.2874C89.3378 50.9076 91.0367 52.4894 91.0367 54.5983V62.6827C91.0367 64.6745 89.3964 66.3734 87.2874 66.3734H81.1363C80.4333 69.4782 79.2031 72.4659 77.5628 75.2779L82.015 79.7301C83.4796 81.2533 83.421 83.5966 82.015 85.0025L76.5083 90.5093C75.1023 91.9152 72.759 91.9738 71.2359 90.5093L66.8422 86.1156C64.0888 87.8145 61.1597 89.0447 57.9963 89.9234V96.3089C57.8205 98.3007 56.1802 99.941 54.1884 99.941ZM33.4503 83.3036C33.6846 83.3036 33.9775 83.3622 34.2119 83.538C37.2581 85.4712 40.7145 86.8772 44.1709 87.5216C44.8153 87.6973 45.3425 88.2246 45.3425 88.869V96.1917C45.3425 96.719 45.7526 97.0705 46.2212 97.0705H54.0127C54.4813 97.0705 54.8914 96.7776 54.8914 96.1917V88.8104C54.8914 88.166 55.4187 87.5801 56.0631 87.4044C59.6366 86.6428 63.0344 85.1783 66.0221 83.1279C66.6079 82.7178 67.3109 82.7764 67.8381 83.3036L72.9348 88.4589C73.2863 88.8104 73.8135 88.8104 74.165 88.4589L79.6717 82.9521C80.0232 82.6592 80.0232 82.0734 79.6717 81.6633L74.5751 76.4495C74.0478 75.9809 73.9893 75.2193 74.3993 74.692C76.3325 71.5872 77.7385 68.1894 78.3829 64.6159C78.5587 63.9715 79.0859 63.4442 79.7303 63.4442H87.0531C87.5804 63.4442 87.9318 63.0927 87.9318 62.5655V54.7155C87.9318 54.3054 87.6389 53.7782 87.0531 53.7782H79.6717C79.0273 53.7782 78.4415 53.3095 78.2658 52.6651C77.5042 49.033 76.0396 45.6938 73.9893 42.7647C73.5792 42.1789 73.6378 41.4759 74.165 40.9486L79.3788 35.7934C79.6132 35.5591 79.6132 35.2662 79.6132 35.2076C79.6132 35.149 79.6132 34.7975 79.3788 34.6217L73.8135 29.115C73.5792 28.8807 73.4034 28.8807 73.2863 28.7635C72.9934 28.7635 72.759 28.8807 72.5833 29.115L67.3109 34.3874C66.8422 34.8561 66.1392 34.9732 65.5534 34.5632C62.4485 32.5128 59.1093 31.224 55.5358 30.5796C54.8914 30.4038 54.4228 29.818 54.4228 29.1736V21.7922C54.4228 21.3236 54.0127 20.9135 53.544 20.9135H45.6354C45.2253 20.9135 44.7567 21.3236 44.7567 21.7922V29.2908C44.7567 29.9352 44.288 30.521 43.585 30.6382C40.0115 31.3997 36.7309 32.8643 33.6846 34.8561C33.1574 35.2662 32.3958 35.2076 31.9272 34.7389L26.7133 29.5837C26.3033 29.1736 25.8346 29.2908 25.4831 29.5837L19.9178 35.2076C19.742 35.3833 19.5663 35.6176 19.5663 35.7934C19.5663 35.9106 19.6835 36.2035 19.8006 36.3206L25.1902 41.5345C25.6588 42.0031 25.7174 42.7647 25.3659 43.3505C23.3741 46.3382 22.0853 49.6774 21.3823 53.3095C21.2066 53.9539 20.6208 54.4811 19.9764 54.4811H12.595C12.1263 54.4811 11.7163 54.8912 11.7163 55.3599V63.1513C11.7163 63.7372 12.1263 64.0301 12.595 64.0301H20.0349C20.7379 64.0301 21.2652 64.4987 21.4409 65.2017C22.1439 68.7752 23.6085 72.0558 25.6588 75.1607C26.0689 75.7465 26.0103 76.4495 25.4831 76.9768L20.3864 82.0734C20.1521 82.3077 20.1521 82.4835 20.0349 82.6592C20.0349 82.8936 20.1521 83.1279 20.3864 83.3036L25.8932 88.8104C26.2447 89.1619 26.8305 89.1619 27.1234 88.8104L32.513 83.538C32.8059 83.4794 33.1574 83.3036 33.4503 83.3036Z" fill="#004AAD"/>
<path fill-rule="evenodd" clip-rule="evenodd" d="M49.8535 13.9432C46.9243 13.9432 44.5225 11.5999 44.5225 8.55365C44.5225 5.56595 46.8658 3.22266 49.8535 3.22266C52.8997 3.22266 55.243 5.56595 55.243 8.55365C55.243 11.5999 52.8997 13.9432 49.8535 13.9432ZM49.8535 6.03461C48.5061 6.03461 47.3344 7.20625 47.3344 8.55365C47.3344 9.95962 48.5061 11.0727 49.8535 11.0727C51.318 11.0727 52.3725 10.0182 52.3725 8.55365C52.3725 7.20625 51.318 6.03461 49.8535 6.03461Z" fill="#004AAD"/>
<path fill-rule="evenodd" clip-rule="evenodd" d="M25.249 10.7792C22.2613 10.7792 19.918 8.37728 19.918 5.38958C19.918 2.40189 22.3198 0.0585938 25.249 0.0585938C28.1781 0.0585938 30.6385 2.46047 30.6385 5.38958C30.6385 8.37728 28.1781 10.7792 25.249 10.7792ZM25.249 2.87054C23.9016 2.87054 22.7299 4.04219 22.7299 5.38958C22.7299 6.79556 23.9016 7.90862 25.249 7.90862C26.6549 7.90862 27.768 6.79556 27.768 5.38958C27.768 4.04219 26.6549 2.87054 25.249 2.87054Z" fill="#004AAD"/>
<path fill-rule="evenodd" clip-rule="evenodd" d="M74.5751 10.7792C71.5288 10.7792 69.1855 8.37728 69.1855 5.38958C69.1855 2.46047 71.646 0.0585938 74.5751 0.0585938C77.5042 0.0585938 79.9061 2.46047 79.9061 5.38958C79.9061 8.37728 77.5042 10.7792 74.5751 10.7792ZM74.5751 2.87054C73.1691 2.87054 72.0561 4.04219 72.0561 5.38958C72.0561 6.79556 73.1691 7.90862 74.5751 7.90862C75.9225 7.90862 77.0942 6.79556 77.0942 5.38958C77.0942 4.04219 75.9225 2.87054 74.5751 2.87054Z" fill="#004AAD"/>
<path fill-rule="evenodd" clip-rule="evenodd" d="M52.5482 68.3674H47.1586C45.4597 68.3674 44.1123 66.9614 44.1123 65.3211C44.1123 64.501 44.7567 63.8566 45.5769 63.8566C46.397 63.8566 47.0414 64.501 47.0414 65.3211C47.0414 65.4383 47.1 65.4969 47.2757 65.4969H52.6067C52.7239 65.4969 52.7825 65.4383 52.7825 65.3211V60.6346C52.7825 60.576 52.7239 60.4002 52.6067 60.4002H47.2757C45.5769 60.4002 44.1709 58.9943 44.1709 57.3539V52.6674C44.1709 51.0271 45.5769 49.5625 47.2757 49.5625H52.6067C54.247 49.5625 55.653 50.9685 55.653 52.6674C55.653 53.4875 55.0086 54.1319 54.1885 54.1319C53.3683 54.1319 52.7239 53.4875 52.7239 52.6674C52.7239 52.6088 52.6067 52.433 52.5482 52.433H47.1586C47.1 52.433 46.9243 52.6088 46.9243 52.6674V57.3539C46.9243 57.4711 47.0414 57.5297 47.1586 57.5297H52.5482C54.1885 57.5297 55.5359 58.9357 55.5359 60.6346V65.3211C55.5359 66.9614 54.247 68.3674 52.5482 68.3674Z" fill="#004AAD"/>
<path fill-rule="evenodd" clip-rule="evenodd" d="M49.8532 52.4908C49.0331 52.4908 48.3887 51.8464 48.3887 51.0262V46.7497C48.3887 45.9296 49.0331 45.2852 49.8532 45.2852C50.6734 45.2852 51.3178 45.9296 51.3178 46.7497V51.0262C51.3178 51.8464 50.6734 52.4908 49.8532 52.4908Z" fill="#004AAD"/>
<path fill-rule="evenodd" clip-rule="evenodd" d="M49.8532 72.7603C49.0331 72.7603 48.3887 72.0573 48.3887 71.2957V66.9021C48.3887 66.0819 49.0331 65.4375 49.8532 65.4375C50.6734 65.4375 51.3178 66.0819 51.3178 66.9021V71.2957C51.3178 72.0573 50.6734 72.7603 49.8532 72.7603Z" fill="#004AAD"/>
<path fill-rule="evenodd" clip-rule="evenodd" d="M49.8535 79.203C38.7228 79.203 29.6426 70.1228 29.6426 58.9921C29.6426 47.8615 38.7228 38.7812 49.8535 38.7812C60.9841 38.7812 70.0644 47.8615 70.0644 58.9921C70.0644 70.1228 60.9841 79.203 49.8535 79.203ZM49.8535 41.6518C40.3046 41.6518 32.5131 49.4432 32.5131 58.9921C32.5131 68.5996 40.3046 76.3911 49.8535 76.3911C59.461 76.3911 67.2524 68.5996 67.2524 58.9921C67.2524 49.4432 59.461 41.6518 49.8535 41.6518Z" fill="#004AAD"/>
</svg>
