<svg width="100" height="100" viewBox="0 0 100 100" fill="none" xmlns="http://www.w3.org/2000/svg">
<path fill-rule="evenodd" clip-rule="evenodd" d="M68.5192 80.0436C55.2755 80.0436 44.501 69.2692 44.501 56.0258C44.501 42.7822 55.2756 32.0078 68.5192 32.0078C81.7626 32.0078 92.537 42.7822 92.537 56.0258C92.537 69.2692 81.7626 80.0436 68.5192 80.0436ZM68.5192 34.547C56.6753 34.547 47.0399 44.1825 47.0399 56.0261C47.0399 67.8695 56.6756 77.5047 68.5192 77.5047C80.3628 77.5047 89.998 67.8695 89.998 56.0259C89.998 44.1823 80.3628 34.547 68.5192 34.547Z" fill="#004AAD"/>
<path fill-rule="evenodd" clip-rule="evenodd" d="M68.5191 87.5045C51.1614 87.5045 37.04 73.3831 37.04 56.0257C37.04 38.6683 51.1614 24.5469 68.5191 24.5469C85.8765 24.5469 99.9979 38.6683 99.9979 56.0257C99.9979 73.3831 85.8765 87.5045 68.5191 87.5045ZM68.5191 27.0859C52.5614 27.0859 39.579 40.0684 39.579 56.0258C39.579 71.9832 52.5615 84.9657 68.5191 84.9657C84.4765 84.9657 97.459 71.9832 97.459 56.0258C97.459 40.0684 84.4765 27.0859 68.5191 27.0859Z" fill="#004AAD"/>
<path fill-rule="evenodd" clip-rule="evenodd" d="M68.5195 42.9965C67.8182 42.9965 67.25 42.4283 67.25 41.7271V33.2773C67.25 32.5762 67.8182 32.0078 68.5195 32.0078C69.2205 32.0078 69.7889 32.5762 69.7889 33.2773V41.7271C69.7889 42.4281 69.2205 42.9965 68.5195 42.9965Z" fill="#004AAD"/>
<path fill-rule="evenodd" clip-rule="evenodd" d="M80.9026 50.147C80.4641 50.147 80.0371 49.9194 79.8023 49.5122C79.4514 48.9048 79.6597 48.1286 80.2669 47.7779L87.5849 43.5532C88.1918 43.2025 88.9688 43.4106 89.319 44.0178C89.6698 44.6249 89.4615 45.4012 88.8544 45.7518L81.5363 49.9766C81.3363 50.0921 81.1179 50.147 80.9026 50.147Z" fill="#004AAD"/>
<path fill-rule="evenodd" clip-rule="evenodd" d="M88.2186 68.6707C88.0029 68.6707 87.7849 68.616 87.5849 68.5005L80.2669 64.2757C79.6597 63.925 79.4514 63.1486 79.8023 62.5414C80.1527 61.9342 80.9296 61.7257 81.5363 62.0768L88.8544 66.3016C89.4618 66.6522 89.6698 67.4287 89.319 68.0358C89.0839 68.443 88.6571 68.6707 88.2186 68.6707Z" fill="#004AAD"/>
<path fill-rule="evenodd" clip-rule="evenodd" d="M68.5195 80.0436C67.8182 80.0436 67.25 79.4752 67.25 78.7742V70.3242C67.25 69.6231 67.8182 69.0547 68.5195 69.0547C69.2205 69.0547 69.7889 69.6231 69.7889 70.3242V78.7742C69.7889 79.4752 69.2205 80.0436 68.5195 80.0436Z" fill="#004AAD"/>
<path fill-rule="evenodd" clip-rule="evenodd" d="M48.8196 68.6707C48.3808 68.6707 47.9541 68.4433 47.719 68.0359C47.3686 67.4285 47.5767 66.6523 48.1836 66.3018L55.5014 62.0768C56.1083 61.7257 56.8853 61.9341 57.2355 62.5414C57.5861 63.1486 57.378 63.9249 56.7709 64.2755L49.4531 68.5005C49.2531 68.6158 49.0351 68.6707 48.8196 68.6707Z" fill="#004AAD"/>
<path fill-rule="evenodd" clip-rule="evenodd" d="M56.1353 50.1468C55.9196 50.1468 55.7016 50.0919 55.5016 49.9766L48.1838 45.7516C47.5766 45.401 47.3685 44.6245 47.7192 44.0175C48.07 43.4104 48.8468 43.2028 49.4532 43.5529L56.771 47.7779C57.3784 48.1284 57.5863 48.9051 57.2356 49.512C57.0008 49.9192 56.5738 50.1468 56.1353 50.1468Z" fill="#004AAD"/>
<path fill-rule="evenodd" clip-rule="evenodd" d="M68.5188 61.4275C65.5393 61.4275 63.1152 59.0037 63.1152 56.0244C63.1152 53.0449 65.5393 50.6211 68.5188 50.6211C71.4981 50.6211 73.9219 53.0449 73.9219 56.0244C73.9219 59.0037 71.4981 61.4275 68.5188 61.4275ZM68.5188 53.16C66.9393 53.16 65.6544 54.4449 65.6544 56.0244C65.6544 57.604 66.9395 58.8889 68.5188 58.8889C70.0981 58.8889 71.383 57.604 71.383 56.0244C71.383 54.4449 70.0981 53.16 68.5188 53.16Z" fill="#004AAD"/>
<path fill-rule="evenodd" clip-rule="evenodd" d="M68.5195 53.163C67.8182 53.163 67.25 52.5948 67.25 51.8935V45.6288C67.25 44.9278 67.8182 44.3594 68.5195 44.3594C69.2205 44.3594 69.7889 44.9278 69.7889 45.6288V51.8935C69.7889 52.5948 69.2205 53.163 68.5195 53.163Z" fill="#004AAD"/>
<path fill-rule="evenodd" clip-rule="evenodd" d="M68.5195 27.0865C67.8182 27.0865 67.25 26.5183 67.25 25.817V13.7619C67.25 13.0606 67.8182 12.4922 68.5195 12.4922C69.2205 12.4922 69.7889 13.0606 69.7889 13.7619V25.817C69.7889 26.5183 69.2205 27.0865 68.5195 27.0865Z" fill="#004AAD"/>
<path fill-rule="evenodd" clip-rule="evenodd" d="M75.432 15.0313H61.6064C60.9051 15.0313 60.3369 14.4629 60.3369 13.7619C60.3369 13.0606 60.9051 12.4922 61.6064 12.4922L75.432 12.4924C76.1331 12.4924 76.7015 13.0606 76.7015 13.7619C76.7015 14.4629 76.1331 15.0313 75.432 15.0313Z" fill="#004AAD"/>
<path fill-rule="evenodd" clip-rule="evenodd" d="M83.6231 31.1339C83.4074 31.1339 83.1892 31.0792 82.9894 30.9637C82.3823 30.6132 82.1742 29.8365 82.5248 29.2296L85.5385 24.0099C85.8891 23.4025 86.6656 23.1949 87.2726 23.5453C87.88 23.8957 88.0878 24.6724 87.7372 25.2793L84.7235 30.4991C84.4887 30.9062 84.0617 31.1339 83.6231 31.1339Z" fill="#004AAD"/>
<path fill-rule="evenodd" clip-rule="evenodd" d="M90.5088 28.1514C90.2933 28.1514 90.0751 28.0967 89.8753 27.9812L82.1301 23.5096C81.5229 23.1589 81.3148 22.3824 81.6655 21.7755C82.0161 21.1681 82.7928 20.9605 83.3995 21.3109L91.1448 25.7825C91.7519 26.1332 91.9602 26.9096 91.6094 27.5166C91.3745 27.9237 90.9475 28.1514 90.5088 28.1514Z" fill="#004AAD"/>
<path fill-rule="evenodd" clip-rule="evenodd" d="M22.4421 42.1756H1.27239C0.571338 42.1756 0.00292969 41.6072 0.00292969 40.9062C0.00292969 40.2049 0.571338 39.6367 1.27239 39.6367H22.4423C23.1434 39.6367 23.7118 40.2049 23.7118 40.9062C23.7118 41.6072 23.1432 42.1756 22.4421 42.1756Z" fill="#004AAD"/>
<path fill-rule="evenodd" clip-rule="evenodd" d="M30.2192 57.2967H1.27239C0.571338 57.2967 0.00292969 56.7283 0.00292969 56.0273C0.00292969 55.326 0.571338 54.7578 1.27239 54.7578H30.2192C30.9205 54.7578 31.4887 55.326 31.4887 56.0273C31.4887 56.7283 30.9205 57.2967 30.2192 57.2967Z" fill="#004AAD"/>
<path fill-rule="evenodd" clip-rule="evenodd" d="M29.3551 72.4178H1.27239C0.571338 72.4178 0.00292969 71.8497 0.00292969 71.1484C0.00292969 70.4473 0.571338 69.8789 1.27239 69.8789H29.3551C30.0561 69.8789 30.6245 70.4473 30.6245 71.1484C30.6245 71.8497 30.0561 72.4178 29.3551 72.4178Z" fill="#004AAD"/>
</svg>
