<svg width="150" height="117" viewBox="0 0 150 117" fill="none" xmlns="http://www.w3.org/2000/svg">
<mask id="mask0_3019_6" style="mask-type:luminance" maskUnits="userSpaceOnUse" x="0" y="0" width="150" height="117">
<path fill-rule="evenodd" clip-rule="evenodd" d="M0 0H150V116.25H0V0Z" fill="white"/>
</mask>
<g mask="url(#mask0_3019_6)">
<path d="M61.17 68.1095C63.6919 51.7465 74.5205 44.3527 74.9996 44.0325L75.0007 44.0336L75.0019 44.0325C75.481 44.3527 86.3096 51.7465 88.8315 68.1095L106.093 73.4664L75.0007 0.03125L43.9092 73.4664L61.17 68.1095Z" fill="#004AAD"/>
<path d="M150.003 100.793L149.179 93.752L82.8834 73.0483L82.663 70.922C81.7361 62.0027 77.9383 56.0972 75.0023 52.7656C72.0664 56.0972 68.2685 62.0027 67.3417 70.922L67.1213 73.0483L0.824762 93.752L0 100.793L34.1667 96.478L25.7648 116.323H52.6989L58.2055 96.3957L38.8334 95.7774L66.0169 92.4551L59.4223 116.322H90.5823L83.9877 92.4551L111.171 95.7774L91.8003 96.3957L97.3069 116.323H124.241L115.839 96.478L150.003 100.793Z" fill="#004AAD"/>
</g>
</svg>
