<svg width="100" height="100" viewBox="0 0 100 100" fill="none" xmlns="http://www.w3.org/2000/svg">
<path d="M84.9023 37.2265L78.8476 30.5469L80.7422 21.7383C80.9179 20.957 80.4492 20.1758 79.6875 19.9219L71.1133 17.1484L68.3594 8.57422C68.1054 7.8125 67.3242 7.36328 66.543 7.51953L57.7344 9.41406L51.0547 3.35937C50.4687 2.8125 49.5508 2.8125 48.9648 3.35937L42.2851 9.41406L33.4765 7.51953C32.6953 7.34375 31.914 7.8125 31.6601 8.57422L28.8867 17.1484L20.2929 19.9219C19.5312 20.1758 19.082 20.957 19.2383 21.7383L21.1328 30.5469L15.0781 37.2265C14.5312 37.8125 14.5312 38.7305 15.0781 39.3164L21.1328 45.9961L19.2383 54.8047C19.0625 55.5859 19.5312 56.3672 20.2929 56.6211L28.8672 59.3945L29.2187 60.5078L19.0234 88.7695C18.7891 89.3945 18.9844 90.0976 19.5117 90.5078C20.0195 90.9179 20.7422 90.9765 21.3086 90.625L31.7187 84.2578L35.6445 95.8008C35.8594 96.4258 36.4453 96.8554 37.1094 96.8554H37.1289C37.7929 96.8554 38.3789 96.4453 38.5937 95.8203L47.3242 71.6797L48.9648 73.164C49.2578 73.4375 49.6289 73.5742 50.0195 73.5742C50.4101 73.5742 50.7617 73.4375 51.0742 73.164L52.7148 71.6797L61.4453 95.8203C61.6601 96.4453 62.2656 96.8554 62.9101 96.8554H62.9297C63.5937 96.8554 64.1797 96.4258 64.3945 95.8008L68.3203 84.2578L78.7305 90.625C79.2969 90.9765 80.0195 90.9179 80.5273 90.5078C81.0351 90.0976 81.2304 89.3945 81.0156 88.7695L70.8008 60.5273L71.1523 59.414L79.7265 56.6406C80.4883 56.3867 80.9375 55.6055 80.7812 54.8242L78.8867 46.0156L84.9414 39.3359C85.4492 38.7304 85.4492 37.832 84.9023 37.2265ZM37.1484 90.5859L34.0234 81.4062C33.8672 80.957 33.5156 80.6054 33.0664 80.4297C32.6172 80.2539 32.1289 80.3125 31.7187 80.5664L23.4375 85.625L30.7617 65.3711L31.6015 67.9687C31.8554 68.7304 32.6367 69.1797 33.4179 69.0234L42.2265 67.1289L44.7656 69.4336L37.1484 90.5859ZM76.5234 85.6445L68.2422 80.5859C67.832 80.332 67.3437 80.2929 66.8945 80.4492C66.4453 80.6054 66.0937 80.957 65.9375 81.4258L62.8125 90.6054L55.1562 69.4531L57.6953 67.1484L66.5039 69.0429C67.2851 69.2187 68.0664 68.75 68.3203 67.9883L69.1601 65.3906L76.5234 85.6445ZM76.0156 44.5117C75.6836 44.8828 75.5469 45.3906 75.6445 45.8789L77.4023 54.1015L69.414 56.6797C68.9453 56.8359 68.5547 57.207 68.3984 57.6953L67.6367 60.039L65.8203 65.6836L57.5976 63.9258C57.1094 63.8281 56.6015 63.9648 56.2304 64.2969L50 69.9219L43.7695 64.2773C43.4765 64.0234 43.1054 63.8672 42.7148 63.8672C42.5976 63.8672 42.5 63.8867 42.3828 63.9062L34.1601 65.664L32.3437 60.0195L31.582 57.6758C31.4258 57.207 31.0547 56.8164 30.5664 56.6601L22.5976 54.1015L24.3554 45.8789C24.4531 45.3906 24.3164 44.8828 23.9844 44.5117L18.3594 38.2812L24.0039 32.0508C24.3359 31.6797 24.4726 31.1719 24.375 30.6836L22.6172 22.4609L30.6054 19.8828C31.0742 19.7265 31.4648 19.3555 31.6211 18.8672L34.1797 10.8789L42.4023 12.6367C42.8906 12.7344 43.3984 12.5977 43.7695 12.2656L50 6.64062L56.2304 12.2852C56.6015 12.6172 57.1094 12.7539 57.5976 12.6563L65.8203 10.8984L68.3984 18.8867C68.5547 19.3555 68.9258 19.7461 69.414 19.9023L77.4023 22.4804L75.6445 30.7031C75.5469 31.1914 75.6836 31.6992 76.0156 32.0703L81.6406 38.2812L76.0156 44.5117Z" fill="#004AAD"/>
<path d="M50 15.625C37.0703 15.625 26.5625 26.1328 26.5625 39.0625C26.5625 51.9922 37.0703 62.5 50 62.5C62.9297 62.5 73.4375 51.9922 73.4375 39.0625C73.4375 26.1328 62.9297 15.625 50 15.625ZM50 59.375C38.8086 59.375 29.6875 50.2539 29.6875 39.0625C29.6875 27.8711 38.8086 18.75 50 18.75C61.1914 18.75 70.3125 27.8711 70.3125 39.0625C70.3125 50.2539 61.1914 59.375 50 59.375Z" fill="#004AAD"/>
<path d="M58.7305 27.4614L45.3125 40.7427L41.2695 36.7388C40.0586 35.5474 38.0859 35.5474 36.8555 36.7388L34.375 39.1802C33.7891 39.7661 33.457 40.5474 33.457 41.3872C33.457 42.2271 33.7891 43.0083 34.375 43.5943L43.1055 52.2271C43.7109 52.8325 44.5117 53.1255 45.3125 53.1255C46.1133 53.1255 46.9141 52.8325 47.5195 52.2271L65.625 34.3364C66.2109 33.7505 66.543 32.9693 66.543 32.1294C66.543 31.2896 66.2109 30.5083 65.625 29.9224L63.1445 27.481C61.9336 26.27 59.9414 26.27 58.7305 27.4614ZM48.9062 46.4653L45.3125 50.0005L36.6016 41.3872L39.082 38.9653L44.2187 44.0435C44.8242 44.6489 45.8008 44.6489 46.4062 44.0435L60.9375 29.688L59.8437 28.5747L63.418 32.1099L48.9062 46.4653Z" fill="#004AAD"/>
</svg>
