<svg width="444" height="117" viewBox="0 0 444 117" fill="none" xmlns="http://www.w3.org/2000/svg">
<path d="M61.17 68.0783C63.6919 51.7153 74.5205 44.3214 74.9996 44.0012L75.0007 44.0024L75.0019 44.0012C75.481 44.3214 86.3096 51.7153 88.8315 68.0783L106.093 73.4352L75.0007 0L43.9092 73.4352L61.17 68.0783Z" fill="white"/>
<path d="M150.003 100.762L149.179 93.7208L82.8834 73.017L82.663 70.8907C81.7361 61.9715 77.9383 56.0659 75.0023 52.7344C72.0664 56.0659 68.2685 61.9715 67.3417 70.8907L67.1213 73.017L0.824762 93.7208L0 100.762L34.1667 96.4468L25.7648 116.292H52.6989L58.2055 96.3644L38.8334 95.7461L66.0169 92.4239L59.4223 116.291H90.5823L83.9877 92.4239L111.171 95.7461L91.8003 96.3644L97.3069 116.292H124.241L115.839 96.4468L150.003 100.762Z" fill="white"/>
<path d="M165.984 54.68L161.376 68.792H170.4L166.08 54.68H165.984ZM171.936 73.496H159.792L157.488 80.36C157.392 80.696 157.248 81.224 157.248 81.464C157.248 81.992 157.632 82.28 158.064 82.424V83H150.864V82.424C151.68 82.328 152.064 82.088 152.64 80.312L162.432 50.84C162.528 50.6 162.672 50.072 162.672 49.688C162.672 49.112 162.48 48.728 161.856 48.632V48.056H170.928V48.632C170.4 48.776 170.064 49.112 170.064 49.736C170.064 50.072 170.16 50.456 170.304 50.888L179.904 80.648C180.144 81.416 180.432 82.424 181.2 82.424V83H173.424V82.424C174.096 82.328 174.288 81.992 174.288 81.368C174.288 80.84 174.096 80.168 173.952 79.64L171.936 73.496ZM185.856 80.6V50.456C185.856 49.016 185.232 48.632 184.512 48.632V48.056H206.976C208.176 48.056 208.416 47.576 208.416 46.904H208.992V54.008H208.416C208.416 53.336 208.176 52.856 206.976 52.856H191.568H191.52V62.744H191.568H201.504C202.704 62.744 202.944 62.264 202.944 61.592H203.52V68.696H202.944C202.944 68.024 202.704 67.544 201.504 67.544H191.568H191.52V78.2H207.504C208.704 78.2 208.944 77.72 208.944 77.048H209.52V84.152H208.944C208.944 83.48 208.704 83 207.504 83H184.512V82.424C185.232 82.424 185.856 82.04 185.856 80.6ZM227.343 67.976H220.863V80.6C220.863 82.04 221.487 82.424 222.207 82.424V83H213.855V82.424C214.575 82.424 215.199 82.04 215.199 80.6V50.456C215.199 49.016 214.575 48.632 214.047 48.632V48.056H229.983C237.663 48.056 241.167 52.28 241.167 57.176C241.167 63.512 238.383 66.92 233.295 67.784L239.871 80.792C240.351 81.8 241.071 82.424 242.223 82.424V83H233.103V82.424C233.679 82.376 234.063 81.992 234.063 81.512C234.063 81.32 234.063 81.08 233.727 80.456L227.343 67.976ZM220.863 52.568V63.464H229.503C234.111 63.464 235.503 61.784 235.503 58.232C235.503 53.816 233.439 52.568 228.447 52.568H220.863ZM244.815 65.528C244.815 56.216 250.479 47.576 260.703 47.576C270.927 47.576 276.591 56.216 276.591 65.528C276.591 74.84 270.927 83.48 260.703 83.48C250.479 83.48 244.815 74.84 244.815 65.528ZM250.479 65.528C250.479 72.248 253.743 78.68 260.703 78.68C267.663 78.68 270.927 72.248 270.927 65.528C270.927 58.808 267.663 52.376 260.703 52.376C253.743 52.376 250.479 58.808 250.479 65.528ZM297.12 65.048H310.176V65.624C309.648 65.72 309.312 66.104 309.312 66.968V75.272C309.312 76.472 309.6 76.856 310.176 76.904V77.48C305.424 81.848 301.872 83.48 296.832 83.48C286.56 83.48 279.456 76.664 279.456 66.536C279.456 56.12 285.408 47.576 296.352 47.576C299.616 47.576 302.208 48.536 304.128 49.448C306.048 50.36 307.296 51.32 307.872 51.32C308.16 51.32 308.448 51.224 308.64 51.032L309.12 51.32L305.088 57.848L304.704 57.56V56.744C304.704 54.392 299.712 52.376 296.688 52.376C288.432 52.376 285.12 58.616 285.12 66.248C285.12 72.488 288.288 78.68 295.968 78.68C299.136 78.68 302.496 77.528 303.648 75.752V69.848H297.12C295.92 69.848 295.68 70.328 295.68 71H295.104V63.896H295.68C295.68 64.568 295.92 65.048 297.12 65.048ZM343.28 50.456V72.248C343.28 78.632 339.2 83.48 329.984 83.48C320.768 83.48 316.688 78.632 316.688 72.248V50.456C316.688 49.016 316.064 48.632 315.344 48.632V48.056H323.408V48.632C322.688 48.632 322.064 49.016 322.064 50.456V72.008C322.064 75.752 324.368 78.68 329.984 78.68C335.6 78.68 337.904 75.752 337.904 72.008V50.456C337.904 49.016 337.28 48.632 336.56 48.632V48.056H344.624V48.632C343.904 48.632 343.28 49.016 343.28 50.456ZM363.281 54.68L358.673 68.792H367.697L363.377 54.68H363.281ZM369.233 73.496H357.089L354.785 80.36C354.689 80.696 354.545 81.224 354.545 81.464C354.545 81.992 354.929 82.28 355.361 82.424V83H348.161V82.424C348.977 82.328 349.361 82.088 349.937 80.312L359.729 50.84C359.825 50.6 359.969 50.072 359.969 49.688C359.969 49.112 359.777 48.728 359.153 48.632V48.056H368.225V48.632C367.697 48.776 367.361 49.112 367.361 49.736C367.361 50.072 367.457 50.456 367.601 50.888L377.201 80.648C377.441 81.416 377.729 82.424 378.497 82.424V83H370.721V82.424C371.393 82.328 371.585 81.992 371.585 81.368C371.585 80.84 371.393 80.168 371.249 79.64L369.233 73.496ZM395.297 67.976H388.817V80.6C388.817 82.04 389.441 82.424 390.161 82.424V83H381.809V82.424C382.529 82.424 383.153 82.04 383.153 80.6V50.456C383.153 49.016 382.529 48.632 382.001 48.632V48.056H397.937C405.617 48.056 409.121 52.28 409.121 57.176C409.121 63.512 406.337 66.92 401.249 67.784L407.825 80.792C408.305 81.8 409.025 82.424 410.177 82.424V83H401.057V82.424C401.633 82.376 402.017 81.992 402.017 81.512C402.017 81.32 402.017 81.08 401.681 80.456L395.297 67.976ZM388.817 52.568V63.464H397.457C402.065 63.464 403.457 61.784 403.457 58.232C403.457 53.816 401.393 52.568 396.401 52.568H388.817ZM420.832 52.568V78.488H424.912C433.936 78.488 436.24 74.264 436.24 65.528C436.24 56.792 433.936 52.568 424.912 52.568H420.832ZM415.168 80.6V50.456C415.168 49.016 414.544 48.632 413.824 48.632V48.056H425.968C435.184 48.056 441.904 52.952 441.904 65.624C441.904 75.944 437.008 83 426.064 83H413.824V82.424C414.544 82.424 415.168 82.04 415.168 80.6Z" fill="white"/>
<path d="M233.952 97.072L232.2 95.368L232.32 95.2C232.392 95.248 232.44 95.248 232.512 95.248C232.608 95.248 232.728 95.224 232.776 95.176C234.072 94.048 234.888 93.232 236.712 93.232C238.8 93.232 240.84 94.408 240.84 96.64C240.84 97.744 240.048 98.728 239.04 99.28C240.384 99.736 241.2 100.816 241.2 102.28C241.2 104.488 239.376 106.144 236.496 106.144C234.048 106.144 233.088 104.608 232.608 104.608C232.416 104.608 232.248 104.704 232.128 104.872L231.888 104.728L233.088 102.28L233.352 102.376C233.352 102.496 233.376 102.616 233.376 102.712C233.376 103.456 234.936 104.656 236.544 104.656C238.44 104.656 239.52 103.6 239.52 102.376C239.52 100.792 238.272 100 236.856 100C236.04 100 235.44 100 235.296 100.432H235.008V98.104H235.296C235.464 98.488 236.112 98.512 236.616 98.512C237.792 98.512 239.16 98.032 239.16 96.64C239.16 95.68 238.32 94.72 236.688 94.72C235.248 94.72 234.024 95.584 234.024 96.496C234.024 96.568 234.072 96.832 234.096 96.952L234.12 96.976L233.952 97.072ZM253.392 94.384L251.832 96.568L251.496 96.4C251.544 96.28 251.544 96.16 251.544 96.04C251.544 95.32 250.704 94.672 249.456 94.672C246.984 94.672 246.144 97.504 246.144 99.544C247.224 98.44 247.944 97.984 249.48 97.984C251.808 97.984 253.44 99.544 253.44 101.92C253.44 104.44 251.712 106.144 249.12 106.144C246.336 106.144 244.464 104.224 244.464 100.096C244.464 95.8 246.792 93.232 249.432 93.232C250.464 93.232 251.232 93.496 251.784 93.784C252.336 94.072 252.696 94.336 252.864 94.336C252.96 94.336 253.032 94.288 253.152 94.216L253.392 94.384ZM246.432 102.016C246.432 103.6 247.512 104.704 249.096 104.704C250.68 104.704 251.76 103.6 251.76 102.016C251.76 100.384 250.68 99.28 249.096 99.28C247.512 99.28 246.432 100.432 246.432 102.016ZM266.112 99.688C266.112 103.408 264.216 106.144 261 106.144C257.784 106.144 255.888 103.408 255.888 99.688C255.888 95.968 257.784 93.232 261 93.232C264.216 93.232 266.112 95.968 266.112 99.688ZM257.664 99.688C257.664 102.784 258.936 104.656 261 104.656C263.064 104.656 264.336 102.784 264.336 99.688C264.336 96.592 263.064 94.72 261 94.72C258.936 94.72 257.664 96.592 257.664 99.688ZM274.248 105.232L275.76 102.52L276 102.616C276 104.224 277.68 104.656 279.072 104.656C280.416 104.656 282.048 104.032 282.048 102.496C282.048 99.352 274.584 101.056 274.584 96.784C274.584 94.432 276.528 93.232 278.976 93.232C280.224 93.232 281.088 93.472 281.688 93.712C282.288 93.952 282.648 94.144 282.864 94.144C283.008 94.144 283.08 94.072 283.152 94.024L283.368 94.168L282.144 96.424L281.904 96.304C281.904 95.296 280.656 94.72 279.048 94.72C277.704 94.72 276.168 95.272 276.168 96.76C276.168 99.28 283.632 97.744 283.632 102.376C283.632 104.752 281.808 106.144 278.928 106.144C277.896 106.144 276.96 105.88 276.264 105.616C275.592 105.352 275.136 105.088 275.04 105.088C274.752 105.088 274.608 105.232 274.536 105.328L274.248 105.232ZM287.04 104.848V94.528C287.04 93.832 286.872 93.712 286.536 93.664V93.376H294.576C294.96 93.376 295.2 93.256 295.248 92.944H295.536V95.464H295.248C295.2 94.984 294.864 94.864 294.384 94.864H288.816V98.752H292.824C293.304 98.752 293.64 98.632 293.688 98.2H293.976V100.864H293.688C293.664 100.6 293.568 100.456 293.424 100.36C293.28 100.264 293.064 100.24 292.824 100.24H288.816V104.512H294.552C295.032 104.512 295.368 104.392 295.416 103.96H295.704V106.432H295.416C295.368 106.12 295.032 106 294.552 106H286.536V105.712C286.872 105.664 287.04 105.544 287.04 104.848ZM299.352 104.848V94.528C299.352 93.832 299.184 93.712 298.608 93.664V93.376H303.888C306.864 93.376 308.4 94.936 308.4 97.168C308.4 98.848 307.296 100.24 305.712 100.408L307.992 104.584C308.28 105.088 308.448 105.592 308.952 105.712V106H306.12V105.712C306.384 105.664 306.528 105.544 306.528 105.424C306.528 105.256 306.336 104.944 306.12 104.584L303.96 100.576H301.128V104.848C301.128 105.544 301.296 105.664 301.776 105.712V106H298.656V105.712C299.184 105.664 299.352 105.544 299.352 104.848ZM301.128 94.864V99.232H304.176C305.808 99.232 306.624 98.416 306.624 97.048C306.624 95.68 305.76 94.864 303.936 94.864H301.128ZM310.6 93.376H313.288V93.664C313.048 93.736 312.928 93.856 312.928 94.144C312.928 94.288 313.024 94.6 313.144 95.032L315.784 103.792H315.832L318.568 94.528C318.616 94.336 318.64 94.192 318.64 94.048C318.64 93.856 318.52 93.688 318.016 93.664V93.376H320.704V93.616C320.464 93.664 320.32 93.784 320.152 94.312L317.248 104.056C317.08 104.656 316.984 104.992 316.984 105.184C316.984 105.472 317.032 105.64 317.224 105.712V106H314.248V105.712C314.44 105.64 314.536 105.544 314.536 105.4C314.536 105.208 314.176 104.128 314.008 103.6L311.128 94.336C310.936 93.76 310.84 93.664 310.6 93.664V93.376ZM325.968 106H322.704V105.712C323.28 105.664 323.448 105.544 323.448 104.848V94.528C323.448 93.832 323.28 93.712 322.704 93.664V93.376H325.968V93.664C325.392 93.712 325.224 93.832 325.224 94.528V104.848C325.224 105.544 325.392 105.664 325.968 105.712V106ZM338.6 94.744L337.136 96.832L336.896 96.712C336.92 96.568 336.944 96.448 336.944 96.328C336.944 95.752 335.744 94.72 334.04 94.72C331.76 94.72 330.368 96.688 330.368 99.688C330.368 102.688 331.76 104.656 334.184 104.656C335.72 104.656 337.136 103.48 337.136 102.928C337.136 102.736 337.088 102.52 336.968 102.328L337.328 102.184L338.96 104.44L338.696 104.608C338.576 104.488 338.456 104.416 338.264 104.416C338.024 104.416 336.608 106.144 334.232 106.144C330.584 106.144 328.592 103.336 328.592 99.688C328.592 96.04 330.632 93.232 334.04 93.232C336.488 93.232 337.952 94.744 338.144 94.744C338.264 94.744 338.336 94.696 338.408 94.648L338.6 94.744ZM341.72 104.848V94.528C341.72 93.832 341.552 93.712 341.216 93.664V93.376H349.256C349.64 93.376 349.88 93.256 349.928 92.944H350.216V95.464H349.928C349.88 94.984 349.544 94.864 349.064 94.864H343.496V98.752H347.504C347.984 98.752 348.32 98.632 348.368 98.2H348.656V100.864H348.368C348.344 100.6 348.248 100.456 348.104 100.36C347.96 100.264 347.744 100.24 347.504 100.24H343.496V104.512H349.232C349.712 104.512 350.048 104.392 350.096 103.96H350.384V106.432H350.096C350.048 106.12 349.712 106 349.232 106H341.216V105.712C341.552 105.664 341.72 105.544 341.72 104.848ZM352.928 105.232L354.44 102.52L354.68 102.616C354.68 104.224 356.36 104.656 357.752 104.656C359.096 104.656 360.728 104.032 360.728 102.496C360.728 99.352 353.264 101.056 353.264 96.784C353.264 94.432 355.208 93.232 357.656 93.232C358.904 93.232 359.768 93.472 360.368 93.712C360.968 93.952 361.328 94.144 361.544 94.144C361.688 94.144 361.76 94.072 361.832 94.024L362.048 94.168L360.824 96.424L360.584 96.304C360.584 95.296 359.336 94.72 357.728 94.72C356.384 94.72 354.848 95.272 354.848 96.76C354.848 99.28 362.312 97.744 362.312 102.376C362.312 104.752 360.488 106.144 357.608 106.144C356.576 106.144 355.64 105.88 354.944 105.616C354.272 105.352 353.816 105.088 353.72 105.088C353.432 105.088 353.288 105.232 353.216 105.328L352.928 105.232Z" fill="white"/>
</svg>
