<svg width="610" height="100" viewBox="0 0 610 100" fill="none" xmlns="http://www.w3.org/2000/svg">
<g clip-path="url(#clip0_3051_75)">
<path d="M145.162 96.8072V73.8484H114.233V61.1504H145.162V38.0941H115.013V25.3961H145.162V2.41287H84.0848V96.7828H145.162V96.8072ZM178.479 49.2323L145.162 96.8072H176.944L194.394 72.1911L212.601 96.8072H245.162L211.041 48.428L243.602 2.41287H212.601L195.15 26.1516L178.479 2.41287H145.162L178.479 49.2323ZM327.614 96.8072H356.983V26.1516H362.588C373.093 26.1516 377.577 30.8067 375.969 40.0439C374.409 49.3298 369.12 53.1562 360.151 51.5233L391.933 96.7828H422.861L393.517 53.9605C405.143 45.5277 408.555 34.8038 403.778 21.8377C399.049 8.89593 388.984 2.41287 373.629 2.41287H327.59V96.8072H327.614ZM550.597 96.8072V48.428L584.719 96.7828H609.335V2.41287H578.406V43.6022L549.842 2.41287H522.886V96.7828H550.597V96.8072ZM0 2.41287V25.3717H24.5918V96.7828H55.496V25.3717H84.0848L68.2184 2.41287H0ZM242.725 2.41287V25.3717H267.341V96.7828H298.343V25.3717H327.614L311.041 2.41287H242.725ZM464.928 72.971C471.265 72.971 476.676 70.7287 481.16 66.2442C485.547 62.0034 487.984 56.1297 487.887 50.0122C487.887 43.6754 485.62 38.2647 481.16 33.7802C476.895 29.3931 471.021 26.9559 464.928 27.0534C458.591 27.0534 453.132 29.32 448.599 33.7802C444.212 38.021 441.774 43.8947 441.847 50.0122C441.847 56.349 444.09 61.7841 448.599 66.2442C453.132 70.7044 458.567 72.971 464.928 72.971ZM414.916 49.9878C414.916 36.2418 419.79 24.4699 429.612 14.6722C439.386 4.89886 451.158 0 464.928 0C478.674 0 490.446 4.89886 500.244 14.6722C510.017 24.4699 514.916 36.2418 514.916 49.9878C514.916 63.7582 510.017 75.5301 500.244 85.3034C490.446 95.1011 478.674 99.9756 464.928 99.9756C451.158 99.9756 439.386 95.1011 429.612 85.3034C419.815 75.5301 414.916 63.7582 414.916 49.9878Z" fill="#004F85"/>
</g>
<defs>
<clipPath id="clip0_3051_75">
<rect width="609.31" height="100" fill="white"/>
</clipPath>
</defs>
</svg>
