<svg width="220" height="220" viewBox="0 0 220 220" fill="none" xmlns="http://www.w3.org/2000/svg">
<g clip-path="url(#clip0_3051_63)">
<path d="M102.014 5.58441C121.996 3.95574 142.431 8.38305 159.981 18.0553C189.909 34.1824 211.115 65.6389 214.126 99.5883C216.392 120.508 211.926 142.066 201.748 160.466C191.564 179.001 175.63 194.35 156.664 203.736C141.78 211.242 125.028 215.031 108.357 214.664C85.5221 214.472 62.9136 206.302 45.0382 192.122C29.6549 179.918 17.7557 163.379 11.2411 144.839C1.08352 116.327 4.07494 83.3681 19.5705 57.3228C29.974 39.2678 46.0147 24.5766 64.7743 15.5359C76.4342 9.95854 89.1178 6.50843 102.014 5.58441ZM83.5006 15.5359C65.4789 20.4019 48.6538 31.0049 37.9645 46.4938C30.7651 56.6779 26.6236 68.7367 24.4964 80.9417C23.486 88.5599 23.0672 96.8694 26.8762 103.829C28.6379 107.286 31.7157 109.899 33.2314 113.488C34.6739 116.673 33.6502 120.98 30.5457 122.794C27.6341 124.882 23.5192 124.084 20.8867 121.91C17.091 118.933 15.4822 114.073 14.6712 109.487C13.0692 99.1562 15.1499 88.7061 17.7823 78.7347C15.7216 79.5923 16.0207 82.4441 15.2429 84.2522C10.7425 101.702 10.7757 120.355 15.7083 137.712C20.3682 154.291 29.881 169.688 43.6149 180.243C53.9586 188.427 66.6356 193.08 79.4655 195.6C87.2033 196.903 95.6192 197.421 102.872 193.898C106.468 192.096 109.16 188.958 112.683 187.05C115.648 185.509 119.511 186.013 121.83 188.46C124.51 191.133 124.556 195.712 122.375 198.703C120.023 201.908 116.233 203.689 112.491 204.72C104.234 206.787 95.5986 205.856 87.3363 204.354C84.3116 203.875 81.4465 202.532 78.3553 202.54C80.0106 204.175 82.437 204.461 84.5709 205.099C100.784 209.094 117.995 209.121 134.234 205.239C152.922 200.745 170.604 190.228 181.705 174.294C188.898 164.402 192.86 152.583 195.307 140.71C196.609 131.942 197.267 122.03 191.942 114.385C189.463 110.736 185.48 107.226 186.279 102.353C186.618 97.7994 191.716 94.921 195.904 96.4034C201.374 98.1783 203.934 104.042 205.051 109.24C207.178 120.009 205.065 131.078 202.219 141.507C202.963 141.394 203.422 140.976 203.594 140.258C208.501 124.942 209.351 108.422 206.519 92.6143C203.269 74.0874 194.706 56.0192 180.461 43.4352C171.912 35.6376 161.375 30.14 150.234 27.1021C140.955 24.3433 130.909 22.4348 121.33 24.8086C116.617 25.839 112.954 29.1429 109.179 31.9149C105.981 34.3812 100.863 34.5474 97.9778 31.4961C95.3785 28.7307 95.6179 24.1572 97.8581 21.2455C100.836 17.3234 105.762 15.5086 110.455 14.6644C117.947 13.5476 125.605 14.2788 132.997 15.7546C135.929 16.2598 138.667 17.6093 141.653 17.8286C141.034 17.3101 140.429 16.7318 139.645 16.4858C121.565 10.6499 101.782 10.4305 83.5006 15.5359Z" fill="#FEFFFE"/>
<path d="M85.9732 52.5963C90.015 50.469 95.1802 49.8309 99.3017 52.0778C102.599 53.9657 103.889 58.054 103.563 61.6636C102.978 68.8297 99.5144 75.4375 95.1602 81.0347C90.4537 86.7251 84.6504 91.764 77.697 94.4629C78.2288 96.6832 79.904 99.0491 82.4168 99.0365C86.8175 99.196 90.6332 96.4173 93.7975 93.6519C96.071 91.9235 96.1906 88.8989 97.2542 86.4592C98.8031 82.6435 100.91 78.5751 104.753 76.6473C106.554 75.6901 109.306 75.5039 110.549 77.4251C111.906 80.0177 110.676 82.9891 109.373 85.3358C107.591 88.7393 104.773 91.405 102.532 94.4696C101.688 97.3147 101.535 100.306 101.482 103.258C104.593 101.882 107.385 99.9206 110.317 98.2188C115.416 94.9216 120.707 91.8504 125.44 88.0347C125.985 86.1933 125.241 84.1857 125.327 82.2712C125.035 73.0044 128.239 63.505 134.554 56.6513C138.483 52.5099 144.4 49.5916 150.183 51.0474C153.653 51.6789 156.372 54.4975 157.349 57.8146C158.585 62.8203 156.87 68.052 154.237 72.3131C149.704 79.4061 143.109 84.8239 136.435 89.8096C137.326 92.0299 138.596 94.5493 140.995 95.3736C144.432 94.7155 147.929 93.7782 151.446 94.4762C153.799 94.9681 156.624 95.6728 157.774 98.0194C158.838 100.306 156.804 102.646 154.716 103.357C150.276 104.807 145.576 103.989 141.042 103.643C135.645 104.933 130.951 108.503 127.587 112.851C122.363 119.718 120.748 128.805 121.884 137.228C122.968 144.214 126.477 151.254 132.647 155.05C139.593 159.497 149.605 158.554 155.362 152.55C160.793 146.946 162.508 138.025 159.483 130.825C158.2 127.661 155.441 124.963 151.985 124.424C147.95 123.513 143.156 126.139 142.572 130.426C141.986 133.724 144.3 136.456 146.254 138.816C147.763 140.379 147.943 143.263 146.068 144.612C143.163 146.6 139.135 145.205 136.821 142.897C131.111 137.261 131.291 127.083 136.762 121.327C143.714 113.349 157.561 113.197 164.675 121.054C172.279 129.477 173.236 142.977 167.387 152.63C162.999 160.208 155.089 165.679 146.394 166.916C136.934 168.318 126.716 165.32 120.069 158.307C107.066 145.065 107.272 121.779 119.677 108.211C122.993 104.242 127.375 101.417 131.769 98.7978C130.818 97.5148 129.821 96.2651 128.81 95.022C120.274 101.211 111.347 106.835 102.16 112C100.605 112.572 100.884 114.446 100.658 115.769C99.8402 127.077 98.8763 138.862 93.2524 148.967C89.4499 156.106 83.6998 162.648 75.9885 165.586C69.8727 167.893 62.4739 168.099 56.8634 164.382C51.4921 161.012 49.0524 154.285 49.4646 148.156C50.3155 140.358 54.7494 133.318 60.3866 128.027C68.1244 120.96 77.5042 116.075 86.7111 111.222C88.5858 110.179 90.6266 109.387 92.3018 108.038C92.92 106.35 93.0131 104.534 93.1859 102.766C88.4129 105.652 82.3835 107.972 76.8926 105.758C72.4055 104.03 69.6135 99.7351 68.1842 95.3344C63.9497 94.8824 59.6886 93.1939 56.9897 89.777C52.2832 84.1332 51.984 75.5511 55.3876 69.1894C56.5243 66.896 59.077 65.6661 61.5765 65.819C62.0618 66.8029 62.9725 67.7801 62.6401 68.9767C61.8956 73.1048 60.4464 77.3925 61.8158 81.5739C62.4939 84.4323 64.8604 86.7125 67.7987 87.1047C68.4236 80.3374 69.7398 73.5436 72.924 67.461C75.9221 61.544 80.017 55.8071 85.9732 52.5963ZM89.9552 59.2173C85.94 61.9495 83.4937 66.3169 81.3797 70.5648C79.1063 75.3577 77.2715 80.5096 77.0654 85.8543C78.601 85.1762 80.0502 84.2921 81.2933 83.1553C86.3189 78.7812 90.713 73.5695 93.6579 67.56C94.6949 65.3863 95.5923 62.92 95.0007 60.487C94.2362 58.5126 91.5705 57.9941 89.9552 59.2173ZM141.92 61.3046C137.226 66.769 134.648 74.0149 134.727 81.2142C140.019 76.8468 144.898 71.7281 148.188 65.6588C149.132 63.7177 150.383 60.5468 147.989 59.1309C145.808 58.0074 143.349 59.656 141.92 61.3046ZM70.7569 131.138C66.1441 135.279 61.643 140.105 59.9685 146.227C59.1641 149.511 58.978 153.66 61.7367 156.106C64.6484 158.765 69.0358 157.974 72.3995 156.71C78.8876 154.211 82.803 147.929 85.4421 141.826C88.5199 134.248 90.4278 126.178 91.2056 118.035C83.8394 121.439 76.9591 125.92 70.7569 131.138Z" fill="#FEFFFE"/>
<path d="M102.04 0.307158C123.745 -1.3481 145.895 3.72403 164.734 14.6195C179.804 23.3079 192.834 35.5661 202.266 50.1975C213.98 68.0862 220.175 89.4981 219.995 110.877C219.856 133.219 212.743 155.482 199.747 173.677C186.565 192.337 167.4 206.709 145.768 214.061C126.558 220.709 105.504 221.752 85.6807 217.312C64.8937 212.679 45.5824 201.744 30.8114 186.408C15.1562 170.193 4.55995 149.087 1.32257 126.758C-1.86164 106.868 0.770817 86.1212 8.54187 67.561C15.7545 50.2972 27.5009 34.9944 42.2054 23.4475C59.2498 10.006 80.3759 1.80952 102.04 0.307158ZM102.014 5.58536C89.1175 6.50938 76.4339 9.95949 64.7733 15.5368C46.0138 24.5776 29.9731 39.2688 19.5696 57.3237C4.07468 83.3691 1.08326 116.328 11.2408 144.84C17.7555 163.38 29.6547 179.92 45.0372 192.124C62.9127 206.303 85.5212 214.473 108.356 214.666C125.028 215.032 141.78 211.243 156.663 203.738C175.629 194.352 191.563 179.002 201.747 160.468C211.925 142.067 216.391 120.51 214.125 99.5899C211.114 65.6405 189.907 34.184 159.98 18.0569C142.431 8.384 121.996 3.9567 102.014 5.58536Z" fill="#3A73B8"/>
<path d="M83.5004 15.5381C101.781 10.4327 121.565 10.6521 139.646 16.4887C140.431 16.7347 141.035 17.313 141.654 17.8315C138.669 17.6122 135.931 16.2627 132.998 15.7575C125.606 14.2817 117.948 13.5505 110.456 14.6673C105.763 15.5115 100.837 17.3263 97.8592 21.2484C95.619 24.1601 95.3797 28.7336 97.9789 31.499C100.864 34.5503 105.983 34.3841 109.18 31.9178C112.956 29.1458 116.618 25.8419 121.331 24.8115C130.91 22.4383 140.956 24.3462 150.235 27.1049C161.376 30.1429 171.913 35.6405 180.462 43.4381C194.708 56.022 203.27 74.0902 206.52 92.6171C209.352 108.425 208.501 124.944 203.595 140.261C203.423 140.979 202.965 141.397 202.22 141.51C205.065 131.081 207.179 120.012 205.053 109.243C203.935 104.044 201.376 98.1812 195.905 96.4063C191.717 94.9239 186.618 97.8023 186.28 102.356C185.481 107.229 189.463 110.739 191.944 114.388C197.268 122.033 196.61 131.944 195.308 140.713C192.861 152.585 188.899 164.405 181.706 174.297C170.605 190.231 152.923 200.748 134.236 205.242C117.995 209.124 100.785 209.097 84.572 205.102C82.4381 204.464 80.0117 204.178 78.3565 202.543C81.4476 202.535 84.3127 203.879 87.3374 204.357C95.6004 205.859 104.236 206.79 112.492 204.722C116.234 203.692 120.024 201.911 122.376 198.706C124.557 195.715 124.511 191.135 121.831 188.462C119.512 186.016 115.65 185.512 112.684 187.053C109.161 188.961 106.469 192.099 102.873 193.901C95.6203 197.424 87.2044 196.906 79.4666 195.603C66.6367 193.083 53.9597 188.43 43.616 180.246C29.8808 169.69 20.368 154.294 15.708 137.715C10.7755 120.358 10.7423 101.704 15.2427 84.2545C16.0205 82.4463 15.7213 79.5945 17.7821 78.7369C15.1496 88.7083 13.0689 99.1584 14.671 109.489C15.482 114.076 17.0907 118.935 20.8865 121.912C23.519 124.087 27.6339 124.885 30.5455 122.797C33.6499 120.982 34.6737 116.675 33.2311 113.49C31.7155 109.901 28.6376 107.288 26.876 103.832C23.0669 96.8716 23.4857 88.5621 24.4962 80.9439C26.6234 68.7389 30.7649 56.6802 37.9642 46.496C48.6536 31.0071 65.4787 20.4042 83.5004 15.5381ZM85.9733 52.5985C80.017 55.8093 75.9221 61.5462 72.924 67.4626C69.7398 73.5451 68.4236 80.339 67.7987 87.1063C64.8605 86.7141 62.4939 84.4339 61.8159 81.5755C60.4465 77.3941 61.8956 73.1064 62.6402 68.9782C62.9726 67.7817 62.0618 66.8045 61.5766 65.8206C59.0771 65.6677 56.5244 66.8975 55.3876 69.191C51.9841 75.5527 52.2832 84.1348 56.9897 89.7786C59.6893 93.1955 63.9498 94.884 68.1843 95.336C69.6135 99.7367 72.4055 104.031 76.8927 105.759C82.3836 107.973 88.413 105.653 93.1859 102.768C93.0131 104.536 92.92 106.351 92.3018 108.04C90.6266 109.389 88.5858 110.18 86.7112 111.224C77.5042 116.077 68.1245 120.962 60.3866 128.029C54.7495 133.32 50.3155 140.36 49.4646 148.157C49.0525 154.287 51.4921 161.014 56.8634 164.384C62.4733 168.1 69.8728 167.894 75.9886 165.588C83.6998 162.65 89.45 156.108 93.2524 148.969C98.8763 138.864 99.8402 127.078 100.658 115.771C100.884 114.448 100.605 112.573 102.16 112.002C111.347 106.836 120.275 101.213 128.81 95.0236C129.821 96.2667 130.818 97.5164 131.769 98.7994C127.375 101.419 122.993 104.244 119.677 108.212C107.272 121.78 107.066 145.066 120.069 158.308C126.717 165.322 136.934 168.32 146.394 166.917C155.089 165.681 162.999 160.209 167.387 152.632C173.236 142.979 172.279 129.478 164.675 121.056C157.561 113.198 143.714 113.351 136.762 121.328C131.291 127.085 131.111 137.262 136.822 142.899C139.135 145.206 143.163 146.602 146.068 144.614C147.943 143.265 147.764 140.38 146.254 138.817C144.3 136.457 141.986 133.725 142.572 130.428C143.156 126.14 147.95 123.515 151.985 124.426C155.441 124.964 158.2 127.663 159.483 130.827C162.508 138.026 160.793 146.947 155.362 152.552C149.605 158.555 139.593 159.499 132.647 155.051C126.477 151.256 122.967 144.216 121.884 137.229C120.748 128.807 122.363 119.719 127.587 112.852C130.952 108.504 135.645 104.935 141.042 103.645C145.576 103.991 150.276 104.808 154.716 103.359C156.804 102.648 158.837 100.308 157.774 98.021C156.625 95.6744 153.8 94.9697 151.446 94.4778C147.929 93.7798 144.432 94.7171 140.995 95.3752C138.596 94.5509 137.325 92.0315 136.435 89.8112C143.11 84.8255 149.704 79.4077 154.237 72.3147C156.87 68.0536 158.585 62.8219 157.349 57.8162C156.371 54.4991 153.653 51.6805 150.183 51.049C144.4 49.5931 138.483 52.5114 134.554 56.6529C128.239 63.5066 125.035 73.006 125.327 82.2728C125.241 84.1873 125.985 86.1949 125.44 88.0363C120.707 91.852 115.416 94.9232 110.317 98.2204C107.385 99.9229 104.593 101.883 101.482 103.259C101.535 100.308 101.688 97.3163 102.532 94.4712C104.773 91.4066 107.591 88.7409 109.373 85.3373C110.676 82.9907 111.906 80.0193 110.55 77.4267C109.306 75.5055 106.554 75.6917 104.753 76.6489C100.91 78.5767 98.8032 82.6451 97.2543 86.4608C96.1907 88.9005 96.071 91.9251 93.7975 93.6535C90.6333 96.4189 86.8175 99.1976 82.4168 99.0381C79.904 99.0514 78.2288 96.6848 77.697 94.4645C84.6504 91.7649 90.4538 86.726 95.1603 81.0363C99.5145 75.4391 102.978 68.8313 103.563 61.6652C103.889 58.0555 102.599 53.9673 99.3018 52.0794C95.1802 49.8331 90.015 50.4713 85.9733 52.5985Z" fill="#3A73B8"/>
<path d="M89.9551 59.2197C91.5705 57.9965 94.2362 58.5151 95.0007 60.4894C95.5923 62.9224 94.6949 65.3887 93.6579 67.5625C90.713 73.5719 86.3189 78.7836 81.2933 83.1577C80.0502 84.2945 78.601 85.1786 77.0654 85.8567C77.2715 80.512 79.1062 75.3601 81.3797 70.5672C83.4937 66.3194 85.94 61.9519 89.9551 59.2197ZM141.92 61.3071C143.349 59.6584 145.808 58.0098 147.989 59.1333C150.383 60.5492 149.132 63.7201 148.188 65.6612C144.898 71.7305 140.019 76.8492 134.727 81.2166C134.648 74.0173 137.226 66.7714 141.92 61.3071ZM70.7568 131.14C76.9591 125.922 83.8394 121.441 91.2049 118.038C90.4271 126.181 88.5193 134.251 85.4414 141.83C82.8023 147.932 78.8869 154.214 72.3988 156.714C69.0351 157.976 64.6477 158.768 61.736 156.109C58.9773 153.662 59.1634 149.514 59.9678 146.23C61.643 140.108 66.1434 135.282 70.7568 131.14Z" fill="#3A73B8"/>
</g>
<defs>
<clipPath id="clip0_3051_63">
<rect width="220" height="220" fill="white"/>
</clipPath>
</defs>
</svg>
