<svg width="423" height="130" viewBox="0 0 423 130" fill="none" xmlns="http://www.w3.org/2000/svg">
<path d="M404.595 127.562C404.984 120.883 405.157 116.777 405.295 111.004L405.446 104.683L407.416 104.32C410.163 103.815 413.469 103.611 415.483 103.823C419.868 104.284 422.362 106.987 422.642 111.583C422.947 116.573 420.601 120.846 416.935 121.978C413.666 122.988 410.061 122.004 408.565 119.695C408.302 119.288 408.014 118.954 407.924 118.953C407.835 118.951 407.762 119.812 407.762 120.865C407.762 121.919 407.698 124.405 407.619 126.39L407.477 130H405.965H404.453L404.595 127.562ZM416.197 119.675C418.292 118.631 419.452 116.397 419.625 113.07C419.85 108.763 418.314 106.55 414.698 105.967C413.254 105.735 411.007 105.93 409.278 106.439L408.303 106.726L408.16 110.184C407.992 114.246 408.178 115.976 408.954 117.563C409.842 119.378 411.35 120.223 413.732 120.24C414.73 120.248 415.319 120.113 416.197 119.675ZM67.3783 122.092V114.617H69.7617H72.145V122.092V129.567H69.7617H67.3783V122.092ZM73.8783 122.123C73.8783 115.125 73.904 114.615 74.2575 114.599C74.466 114.59 75.441 114.515 76.4242 114.434L78.2117 114.285V121.817V129.35L77.5075 129.352C77.1202 129.352 76.1452 129.415 75.3408 129.491L73.8783 129.629V122.123ZM61.5283 129.01C43.5435 126.89 26.329 119.277 12.1394 107.168C9.10866 104.582 4.46735 99.9103 1.9956 96.9583L0 94.575L0.00111745 82.225L0.0022349 69.875L0.990876 71.7167C4.6017 78.443 9.28872 84.698 15.0474 90.4757C18.8476 94.2884 21.8 96.8143 25.8483 99.7163C37.223 107.87 51.4496 113.243 64.5075 114.315L66.295 114.462V121.906V129.35L65.1575 129.327C64.5319 129.314 62.8988 129.171 61.5283 129.01ZM79.945 121.605V114.028L81.1908 113.891C81.876 113.816 82.8023 113.692 83.2492 113.615L84.0617 113.477V121.06V128.644L82.9242 128.785C82.2985 128.863 81.3723 128.984 80.8658 129.054L79.945 129.183V121.605ZM86.445 120.651V112.988L88.1242 112.61C89.0477 112.403 89.8765 112.233 89.9658 112.233C90.0552 112.233 90.1283 115.682 90.1283 119.897V127.56L88.7742 127.821C88.0294 127.964 87.2006 128.133 86.9325 128.197L86.445 128.314V120.651ZM92.5117 119.213V111.452L93.9895 110.976C94.8024 110.714 95.5348 110.5 95.6173 110.5C95.6997 110.5 95.7415 114.028 95.7102 118.34L95.6533 126.18L94.6783 126.428C94.1421 126.565 93.4352 126.744 93.1075 126.826L92.5117 126.975V119.213ZM99.0117 117.096V109.176L100.21 108.646C100.868 108.355 101.453 108.117 101.51 108.117C101.566 108.117 101.612 111.755 101.612 116.202V124.288L100.455 124.652C99.819 124.853 99.234 125.017 99.1551 125.017C99.0762 125.017 99.0117 121.453 99.0117 117.096ZM105.512 114.442V106.204L106.487 105.659L107.462 105.114V113.527V121.941L106.866 122.157C106.538 122.275 106.099 122.441 105.891 122.526C105.534 122.671 105.512 122.202 105.512 114.442ZM177.878 121.968C176.746 121.724 175.759 121.457 175.684 121.375C175.609 121.292 175.483 120.619 175.403 119.879L175.259 118.532L176.203 118.95C177.78 119.647 179.616 120.033 181.358 120.033C184.62 120.033 186.307 118.841 186.399 116.471C186.457 114.967 185.535 113.772 182.095 110.89C177.308 106.88 176.278 105.544 176.276 103.35C176.275 101.743 176.686 100.641 177.695 99.5469C178.997 98.135 180.336 97.648 183.207 97.5432C185.306 97.4665 188.362 97.7281 188.642 98.0085C188.839 98.2055 188.981 100.533 188.796 100.531C188.69 100.53 188.116 100.376 187.52 100.189C185.959 99.7 182.768 99.6917 181.673 100.174C180.533 100.676 179.895 101.299 179.597 102.204C178.995 104.028 180.027 105.646 183.708 108.652C188.362 112.452 189.631 114.092 189.663 116.35C189.698 118.833 188.263 120.808 185.71 121.789C183.918 122.477 180.593 122.554 177.878 121.968ZM332.037 122.112C327.064 121.144 323.893 118.344 322.81 113.967C322.434 112.448 322.43 109.011 322.802 107.467C323.331 105.274 324.688 102.782 326.148 101.325C328.8 98.6797 332.134 97.5042 336.994 97.5015C340.302 97.4997 344.042 98.0177 344.441 98.5327C344.685 98.848 344.841 100.967 344.621 100.967C344.571 100.967 343.474 100.708 342.183 100.391C340.35 99.9418 339.292 99.8145 337.345 99.8094C333.344 99.7989 330.886 100.672 328.676 102.888C326.545 105.025 325.492 108.09 325.719 111.498C325.991 115.574 327.72 118.047 331.256 119.411C333.907 120.435 341.443 120.053 341.878 118.873C341.972 118.618 342.112 116.678 342.189 114.562L342.33 110.717L339.567 110.717L336.803 110.717L336.878 109.633L336.954 108.55H341.27H345.587L345.478 109.037C345.418 109.306 345.266 112.153 345.14 115.366C345.014 118.578 344.888 121.23 344.859 121.259C344.83 121.287 343.688 121.518 342.321 121.77C339.145 122.358 334.15 122.524 332.037 122.112ZM367.078 122.081C365.48 121.65 364.731 121.222 363.439 120C361.736 118.39 361.11 116.834 361.002 113.939C360.877 110.617 361.571 108.442 363.379 106.48C365.096 104.617 367.342 103.751 370.441 103.755C373.791 103.76 376.362 104.945 377.83 107.162C380.148 110.661 379.661 116.555 376.798 119.662C374.648 121.995 370.548 123.015 367.078 122.081ZM372.209 119.911C373.716 119.463 375.036 118.151 375.704 116.438C376.116 115.381 376.205 114.725 376.22 112.667C376.234 110.501 376.171 110.03 375.733 109.063C374.756 106.904 373.024 105.899 370.247 105.881C368.801 105.872 368.393 105.959 367.329 106.506C364.933 107.738 363.893 110.082 364.032 113.939C364.106 115.996 364.183 116.366 364.754 117.405C365.808 119.326 367.364 120.207 369.752 120.235C370.475 120.243 371.581 120.097 372.209 119.911ZM386.891 122.12C385.448 121.713 384.139 120.738 383.495 119.59C382.998 118.704 382.953 118.404 382.953 115.917C382.953 114.427 383.042 111.136 383.149 108.604L383.346 104H384.888H386.431L386.169 107.629C386.025 109.625 385.901 112.568 385.893 114.169C385.876 117.533 386.167 118.454 387.538 119.383C388.261 119.872 388.551 119.925 390.521 119.925C392.36 119.925 392.845 119.849 393.601 119.445C394.774 118.817 395.965 117.406 396.375 116.157C396.815 114.815 397.141 111.762 397.143 108.961C397.144 107.697 397.208 106.064 397.284 105.332L397.423 104H398.905H400.387L400.281 104.921C400.087 106.616 399.744 112.947 399.601 117.487L399.459 121.983H398.086H396.712L396.699 120.304C396.688 118.903 396.643 118.697 396.428 119.058C395.828 120.067 394.132 121.503 393.116 121.864C391.701 122.368 388.27 122.509 386.891 122.12ZM191.374 120.629C192.479 118.634 199.224 105.543 201.31 101.346L203.114 97.7167H205.091H207.067L208.533 101.887C209.339 104.181 211.303 109.603 212.897 113.935C214.491 118.267 215.795 121.85 215.795 121.898C215.795 121.945 215.037 121.983 214.11 121.983H212.424L211.477 119.112C210.957 117.534 210.165 115.267 209.718 114.075L208.905 111.908H203.969H199.033L196.638 116.946L194.243 121.983H192.434H190.624L191.374 120.629ZM208.206 109.362C208.159 108.917 205.017 100.527 204.881 100.484C204.71 100.431 200.207 108.865 200.199 109.254C200.197 109.344 201.999 109.417 204.203 109.417C206.408 109.417 208.209 109.392 208.206 109.362ZM218.727 121.062C218.928 119.329 219.266 111.044 219.407 104.379L219.548 97.7167H226.988H234.428L234.429 98.9625L234.429 100.208L228.579 100.144L222.728 100.08L222.705 100.686C222.692 101.019 222.619 102.925 222.543 104.921L222.403 108.551L227.658 108.55L232.912 108.55V109.742V110.933H227.638H222.363L222.221 114.868C222.143 117.032 222.078 119.518 222.078 120.393V121.983H220.349H218.62L218.727 121.062ZM237.546 119.437C237.628 118.037 237.784 115.332 237.894 113.425C238.003 111.518 238.161 107.195 238.244 103.817L238.395 97.6748L243.941 97.7704C250.269 97.8795 251.077 98.0344 252.68 99.4454C253.871 100.494 254.405 101.724 254.424 103.458C254.462 107.065 251.785 109.99 248.061 110.411C247.356 110.491 246.778 110.588 246.778 110.626C246.778 110.665 248.171 112.871 249.873 115.528C251.575 118.184 253.191 120.724 253.465 121.171L253.964 121.983H252.151H250.338L249.618 120.521C249.222 119.716 247.579 116.865 245.966 114.183C244.353 111.502 243.001 109.249 242.961 109.175C242.922 109.102 243.79 109.047 244.892 109.052C246.589 109.06 247.075 108.978 248.082 108.513C250.275 107.5 251.112 106.241 251.111 103.953C251.111 102.286 250.638 101.255 249.595 100.649C248.929 100.262 248.385 100.2 245.126 100.137L241.416 100.065L241.272 103.17C241.121 106.411 240.722 119.17 240.716 120.954L240.712 121.983H239.055H237.398L237.546 119.437ZM255.07 121.062C255.812 119.78 263.043 105.744 265.228 101.346L267.031 97.7167H269.038C270.142 97.7167 271.045 97.7502 271.045 97.7911C271.045 97.9941 274.768 108.4 277.087 114.682C278.531 118.59 279.712 121.832 279.712 121.886C279.712 121.939 278.956 121.983 278.033 121.982L276.353 121.981L274.874 117.595C274.06 115.182 273.26 112.89 273.095 112.5L272.796 111.792L267.896 111.85L262.996 111.908L260.578 116.946L258.159 121.983H256.348H254.537L255.07 121.062ZM272.027 109.037C271.945 108.829 271.206 106.768 270.384 104.457C269.562 102.146 268.862 100.228 268.828 100.195C268.758 100.124 264.112 109.072 264.112 109.279C264.112 109.355 265.926 109.417 268.143 109.417C271.895 109.417 272.164 109.39 272.027 109.037ZM282.643 121.062C282.889 118.941 283.187 113.147 283.433 105.679L283.696 97.7167L285.766 97.7228L287.837 97.7289L288.574 98.9687C288.98 99.6505 292.043 104.335 295.382 109.378C299.194 115.137 301.507 118.441 301.6 118.261C301.681 118.104 301.862 114.367 302.002 109.958C302.141 105.549 302.312 100.991 302.382 99.8292L302.508 97.7167H304.017H305.526L305.403 98.8542C305.144 101.243 304.416 117.096 304.413 120.412L304.412 121.983L302.299 121.981L300.187 121.978L299.113 120.301C298.523 119.379 295.453 114.774 292.291 110.067L286.543 101.508L286.394 102.808C286.2 104.512 285.772 115.936 285.776 119.329L285.778 121.983H284.158H282.537L282.643 121.062ZM349.808 121.062C350.011 119.293 350.345 110.776 350.345 107.402V104H351.818H353.291L353.201 105.408C353.141 106.354 353.191 106.817 353.353 106.817C353.486 106.817 353.595 106.719 353.595 106.601C353.595 106.151 355.257 104.564 356.136 104.174C356.927 103.823 359.751 103.562 359.977 103.819C360.012 103.859 360.084 104.428 360.136 105.083L360.23 106.275H358.357C356.669 106.275 356.401 106.333 355.636 106.867C354.627 107.571 353.988 108.483 353.47 109.958C353.159 110.846 353.073 112.032 352.994 116.512L352.897 121.983H351.3H349.703L349.808 121.062ZM111.847 111.163L111.903 102.466L112.61 102.018L113.317 101.571L113.26 110.303L113.203 119.034L112.497 119.447L111.79 119.859L111.847 111.163ZM118.295 107.072C118.295 98.5588 118.319 97.9784 118.691 97.6419C118.909 97.4447 119.153 97.2833 119.233 97.2833C119.313 97.2833 119.378 101.367 119.378 106.358V115.434L118.837 115.788L118.295 116.143V107.072ZM124.362 102.334C124.362 92.859 124.374 92.5728 124.795 92.1917C125.228 91.8001 125.228 91.8132 125.228 101.549C125.228 111.024 125.216 111.311 124.795 111.692C124.362 112.083 124.362 112.07 124.362 102.334ZM131.304 102.05C131.286 94.5957 130.681 89.2159 129.243 83.7297C128.192 79.7211 125.847 73.45 125.4 73.45C125.305 73.45 125.228 74.8974 125.228 76.6664C125.228 79.6077 125.191 79.9164 124.795 80.275C124.363 80.666 124.362 80.6534 124.362 75.8501V71.0331L123.038 68.7692C113.807 52.9763 97.8867 42.278 79.7826 39.7026L77.1286 39.325L77.1285 32.0125C77.1284 26.2879 77.1874 24.7 77.4005 24.7C78.477 24.7 83.8468 25.4693 86.4422 25.9953C96.2537 27.9839 105.899 32.2231 113.901 38.0642C126.196 47.0388 135.117 59.236 139.825 73.5075C141.275 77.9046 142.595 84.0303 142.923 87.8901L143.055 89.4385L141.722 91.9752C139.412 96.3747 135.848 101.412 132.527 104.975L131.315 106.275L131.304 102.05ZM67.9742 104.928L67.3783 104.838V97.5939V90.35L69.2742 90.353C70.3169 90.3546 71.3894 90.4147 71.6575 90.4866L72.145 90.6172V97.8503V105.083L70.3575 105.051C69.3744 105.033 68.3019 104.978 67.9742 104.928ZM62.4506 104.525C40.552 101.872 21.0348 89.2018 9.83682 70.3688C4.81455 61.9222 1.59779 52.5577 0.335275 42.7082L0.019076 40.2414L0.761137 38.7678C3.42971 33.4688 7.43474 27.7526 11.0732 24.05L12.67 22.425L12.8087 30.55C12.9583 39.3121 13.2028 41.7836 14.4035 46.672C15.1205 49.5909 16.7141 54.272 17.4951 55.7532L18.0867 56.875L18.1486 53.1917C18.2035 49.9326 18.2591 49.4459 18.6313 48.9667C19.0511 48.4261 19.052 48.4362 19.0569 53.7445L19.0617 59.0639L20.2705 61.1097C23.7014 66.9157 28.7892 72.8061 34.1093 77.1316C38.793 80.9397 45.8686 84.9244 51.5617 86.9602C55.7707 88.4653 63.2172 90.1333 65.727 90.1333H66.295V97.5V104.867L65.5908 104.843C65.2035 104.831 63.7904 104.687 62.4506 104.525ZM73.8783 97.6083V90.35L75.2325 90.3476C75.9773 90.3463 76.9523 90.2848 77.3992 90.2109L78.2117 90.0766V97.3339V104.591L77.2064 104.729C76.6536 104.805 75.6786 104.867 75.0398 104.867H73.8783V97.6083ZM79.945 97.2025V89.9717L81.8719 89.6192C82.9317 89.4253 83.8579 89.2667 83.9302 89.2667C84.0025 89.2667 84.0617 92.5311 84.0617 96.5209V103.775L83.5742 103.886C83.0313 104.009 80.3617 104.429 80.1075 104.432C80.0181 104.433 79.945 101.179 79.945 97.2025ZM86.445 95.9978V88.6847L88.1502 88.2173C89.0881 87.9603 89.9169 87.75 89.9919 87.75C90.0669 87.75 90.1283 91.0528 90.1283 95.0896V102.429L89.5325 102.564C89.2048 102.639 88.376 102.837 87.6908 103.005L86.445 103.311V95.9978ZM92.5117 94.2085V86.7711L93.9715 86.2314C94.7743 85.9346 95.5069 85.6587 95.5993 85.6185C95.6917 85.5783 95.7417 88.9327 95.7103 93.0729L95.6533 100.6L94.57 100.969C93.9742 101.171 93.2673 101.406 92.9992 101.491L92.5117 101.646V94.2085ZM99.0153 91.5987L99.0189 83.9583L100.315 83.26L101.612 82.5616V90.321V98.0804L101.016 98.3588C100.688 98.512 100.103 98.7727 99.7158 98.9382L99.0117 99.2392L99.0153 91.5987ZM105.514 88.0371L105.517 80.0583L106.327 79.5167C106.772 79.2187 107.211 78.9421 107.302 78.9019C107.393 78.8617 107.441 82.4673 107.41 86.9144L107.353 95L106.433 95.5079L105.512 96.0158L105.514 88.0371ZM111.795 83.7036V75.2683L112.556 74.5309L113.317 73.7934L113.26 82.4232L113.203 91.0529L112.499 91.5959L111.795 92.1389V83.7036ZM118.296 77.6586L118.297 68.3583L118.83 67.7083L119.363 67.0583L119.371 76.4997L119.378 85.9411L118.837 86.45L118.295 86.9589L118.296 77.6586ZM182.97 71.6348C180.517 71.2793 178.8 70.7838 177.038 69.922L175.655 69.2461L175.798 65.5522C175.876 63.5206 175.999 61.2039 176.07 60.4041L176.199 58.9499L177.164 59.6133C181.023 62.2687 187.045 63.4414 190.335 62.1781C192.119 61.4933 193.882 59.725 194.543 57.9591C195.549 55.2688 195.525 51.7883 194.484 49.5138C193.639 47.6687 191.91 46.1378 186.772 42.6837C180.324 38.3493 178.442 36.4746 176.685 32.6347C174.857 28.6393 174.466 22.8004 175.718 18.2332C177.161 12.9769 180.994 9.08828 186.437 7.36223C187.575 7.00115 188.683 6.85484 190.878 6.77544C194.332 6.65054 196.638 6.98471 200.149 8.11938L202.47 8.86919L202.253 13.518C202.134 16.0748 201.979 18.2238 201.909 18.2935C201.838 18.3632 201.048 18.0817 200.152 17.6681C197.363 16.3793 195.452 15.9463 192.503 15.935C189.477 15.9234 188.388 16.2834 186.828 17.8098C185.324 19.282 184.92 20.4667 184.92 23.4C184.92 25.7004 184.967 25.9881 185.537 27.1485C186.458 29.0241 187.687 30.0977 193.273 33.9052C200.682 38.9559 202.847 41.2658 204.211 45.5722C205.266 48.9033 205.452 54.492 204.639 58.3917C203.257 65.0123 198.961 69.6629 192.72 71.2939C190.508 71.872 185.754 72.0382 182.97 71.6348ZM266.088 71.4724C258.609 70.2302 253.616 64.2425 251.837 54.3833C251.267 51.221 251.327 44.9304 251.963 41.2791C253.891 30.2045 259.588 23.6074 267.253 23.5713C269.822 23.5592 271.423 23.9041 273.575 24.933C279.474 27.7541 282.379 34.6352 282.877 46.9625L283.028 50.7H271.696H260.363L260.495 52.9208C260.72 56.7086 261.665 59.327 263.449 61.1042C265.204 62.8532 267.053 63.4697 270.569 63.478C274.111 63.4864 276.831 62.7087 279.163 61.0209C279.756 60.5924 280.307 60.313 280.39 60.4C280.472 60.4871 280.608 62.4169 280.693 64.6885L280.847 68.8187L279.359 69.4841C275.115 71.3809 270.079 72.1354 266.088 71.4724ZM273.795 41.1125C273.485 35.4582 271.66 31.9192 268.685 31.2055C264.279 30.1487 260.941 34.3196 260.495 41.4375L260.363 43.55H267.145H273.928L273.795 41.1125ZM303.87 71.3966C300.387 70.7513 297.531 69.191 295.143 66.6286C293.301 64.6516 291.983 62.3442 290.947 59.2816C289.606 55.3173 289.363 53.5107 289.368 47.5583C289.372 43.0247 289.433 42.0778 289.848 40.1691C291.043 34.6671 292.878 30.9805 295.866 28.0737C300.511 23.5559 307.575 22.3326 314.557 24.8368C315.948 25.3353 316.131 25.463 316.036 25.8655C315.976 26.1182 315.858 27.9484 315.774 29.9326C315.691 31.9167 315.554 33.65 315.471 33.7842C315.367 33.953 315.025 33.8645 314.362 33.4974C312.541 32.4888 310.727 32.0098 308.745 32.0144C301.924 32.0306 298.517 37.7157 298.846 48.5333C298.932 51.3949 299.062 52.5229 299.495 54.1859C300.397 57.6508 301.839 60.042 303.931 61.5399C306.928 63.6858 310.72 63.8074 314.62 61.8826L316.053 61.1754L316.193 63.4669C316.27 64.7272 316.393 66.6918 316.467 67.8328L316.602 69.9072L314.863 70.4818C311.282 71.6655 307.169 72.0077 303.87 71.3966ZM388.069 71.3742C384.028 70.2872 380.905 66.8765 379.656 62.1833C379.131 60.212 379.146 55.2888 379.684 53.1917C380.854 48.626 383.515 45.5911 387.816 43.9171C390.567 42.8464 392.926 42.4527 397.416 42.3144L401.478 42.1893V40.2068C401.478 37.0515 400.756 34.8841 399.17 33.2831C397.763 31.8623 396.762 31.5235 394.003 31.5346C391.979 31.5428 391.359 31.6344 389.887 32.143C388.023 32.7867 385.651 34.0924 384.485 35.1161C384.088 35.4647 383.716 35.75 383.659 35.75C383.602 35.75 383.49 34.1656 383.41 32.2292C383.33 30.2927 383.21 28.3139 383.145 27.8318L383.026 26.9553L384.893 26.03C388.534 24.2257 391.417 23.5588 395.52 23.5713C404.554 23.5987 408.876 27.6044 409.914 36.9121C410.051 38.1419 410.145 44.1163 410.145 51.6232C410.145 62.6895 410.326 68.9218 410.695 70.5792L410.803 71.0667H406.599C401.648 71.0667 402.171 71.4895 401.978 67.3292C401.907 65.8098 401.79 64.5714 401.718 64.5771C401.646 64.5828 401.245 65.1294 400.828 65.7918C399.746 67.5115 397.646 69.5546 396.134 70.3607C393.656 71.6816 390.628 72.0622 388.069 71.3742ZM396.336 63.7921C397.767 63.3044 399.12 62.0214 399.903 60.4095C400.953 58.2489 401.309 56.2713 401.427 51.9458L401.532 48.1H399.584C394.272 48.1 390.325 49.6638 388.877 52.3418C387.741 54.4418 387.534 57.8696 388.395 60.3398C388.848 61.6404 390.612 63.4982 391.728 63.8501C392.864 64.208 395.202 64.1786 396.336 63.7921ZM213.193 48.8042C213.192 36.5598 213.13 26.0298 213.055 25.4042L212.918 24.2667H217.248H221.579L221.719 26.7042C221.797 28.0448 221.86 29.6535 221.861 30.2792C221.862 31.5687 222.11 31.7375 222.526 30.7326C223.065 29.4314 224.822 26.9677 225.886 26.0221C228.031 24.1143 230.944 23.2479 233.944 23.6246C239.901 24.3726 243.07 28.949 243.743 37.7777C243.863 39.3437 243.961 47.4744 243.961 55.8458L243.962 71.0667H239.303H234.645L234.641 55.7375C234.636 37.4226 234.529 36.2594 232.651 34.1268C231.699 33.0451 230.855 32.7186 229.012 32.72C226.811 32.7217 225.037 33.9019 223.942 36.0934C222.608 38.7628 222.641 38.3016 222.564 55.4125L222.493 71.0667H217.844H213.195L213.193 48.8042ZM322.178 49.3244C322.178 37.3661 322.115 26.8361 322.038 25.9244L321.898 24.2667H326.588H331.278L331.307 26.3792C331.322 27.541 331.395 29.2199 331.469 30.11L331.603 31.7284L332.404 30.11C334.552 25.7651 337.677 23.5662 341.678 23.5834C345.6 23.6004 348.433 25.4329 350.438 29.25C350.877 30.0842 351.303 30.7632 351.386 30.759C351.469 30.7547 351.927 30.1176 352.403 29.3431C355.007 25.1121 358.802 23.1327 363.335 23.6411C367.239 24.0789 369.952 26.5402 371.447 31.0014C372.708 34.7617 372.735 35.2062 372.823 53.8958L372.904 71.0667H368.241H363.577L363.515 54.2208C363.458 38.5004 363.427 37.3026 363.055 36.2917C362.141 33.8042 360.768 32.7125 358.564 32.7214C355.698 32.733 353.638 34.8347 352.586 38.8215C352.268 40.0233 352.213 42.0884 352.136 55.6292L352.048 71.0667H347.525H343.003L342.922 54.5458C342.836 36.8603 342.856 37.1835 341.734 34.9917C340.941 33.44 339.673 32.7167 337.745 32.7167C334.833 32.7167 332.597 35.229 331.8 39.3966C331.556 40.6685 331.495 44.0081 331.495 56.0274V71.0667H326.837H322.178V49.3244ZM24.045 52.7255V43.4089L24.5867 42.9L25.1283 42.3911V51.7078V61.0245L24.5867 61.5333L24.045 62.0422V52.7255ZM141.721 57.0363C140.056 54.0211 136.414 48.605 134.195 45.8433C120.356 28.6201 100.487 17.5217 79.5948 15.3439L77.1283 15.0868V7.65173V0.216667H77.9422C79.3244 0.216667 84.2363 0.841551 87.3939 1.4191C108.216 5.22773 128.484 17.1194 141.725 33.2977L142.999 34.8537L142.943 47.0007L142.887 59.1477L141.721 57.0363ZM30.1117 46.9766V38.4014L30.87 37.823L31.6283 37.2446V45.6631V54.0817L30.87 54.8167L30.1117 55.5517V46.9766ZM36.0132 42.4807L36.07 34.4402L36.9908 33.8912L37.9117 33.3421L37.909 41.3169L37.9063 49.2917L37.0965 49.8333C36.6511 50.1313 36.2123 50.4079 36.1215 50.4481C36.0307 50.4883 35.9819 46.903 36.0132 42.4807ZM41.8117 39.1159V31.4255L42.6242 31.0155C43.071 30.7901 43.656 30.5378 43.9242 30.4549L44.4117 30.3041V37.899V45.4938L43.1117 46.15L41.8117 46.8062V39.1159ZM47.6617 36.4252V28.8968L49.0158 28.4212C49.7606 28.1596 50.4919 27.9466 50.6408 27.9478C50.8521 27.9495 50.9117 29.5636 50.9117 35.29V42.6299L49.2867 43.2918L47.6617 43.9536V36.4252ZM53.295 34.473V27.1L54.2158 26.8612C54.7223 26.7298 55.4779 26.5315 55.895 26.4207C56.3121 26.3098 56.7765 26.2185 56.9271 26.2179C57.1433 26.2169 57.1888 27.7493 57.1437 33.5154L57.0867 40.8142L55.6783 41.1724C54.9038 41.3694 54.0506 41.6015 53.7825 41.6882L53.295 41.8459V34.473ZM59.145 33.0693V25.7916L59.6325 25.6811C60.2972 25.5305 62.873 25.137 63.2075 25.135C63.4188 25.1337 63.4783 26.7226 63.4783 32.3619V39.5906L61.7992 39.8541C60.8756 39.999 59.9006 40.1692 59.6325 40.2323L59.145 40.347V33.0693ZM65.2117 32.2021C65.2117 28.1951 65.2848 24.9069 65.3742 24.895C65.4635 24.883 66.4874 24.8099 67.6493 24.7325L69.762 24.5917L69.7618 31.9042L69.7617 39.2167H68.1638C67.2849 39.2167 66.2612 39.2776 65.8888 39.3521L65.2117 39.4875V32.2021ZM71.9825 39.0599L71.2783 38.9725V31.7279V24.4833L72.8492 24.4857C73.7131 24.487 74.7856 24.5485 75.2325 24.6224L76.045 24.7567V31.9867V39.2167L74.3658 39.182C73.4423 39.1629 72.3698 39.108 71.9825 39.0599ZM18.195 27.6922C18.195 18.3257 18.2074 18.0393 18.6283 17.6583C19.061 17.2667 19.0617 17.2799 19.0617 26.9078C19.0617 36.2743 19.0493 36.5607 18.6283 36.9417C18.1956 37.3333 18.195 37.3201 18.195 27.6922ZM24.045 22.9743C24.045 14.2067 24.06 13.8739 24.4641 13.6576C24.6946 13.5343 24.9383 13.4333 25.0058 13.4333C25.0732 13.4333 25.1283 17.4645 25.1283 22.3914C25.1283 30.7947 25.1038 31.3717 24.7321 31.7081C24.5142 31.9053 24.2704 32.0667 24.1904 32.0667C24.1104 32.0667 24.045 27.9751 24.045 22.9743ZM30.1117 19.0935V10.4111L30.7509 10.0806C31.1025 9.89876 31.4449 9.75 31.5117 9.75C31.5786 9.75 31.6078 13.6052 31.5767 18.3172L31.52 26.8843L30.8158 27.3301L30.1117 27.7759V19.0935ZM36.0133 15.89L36.07 7.51649L36.9908 7.12546L37.9117 6.73444V15.024V23.3137L36.9341 23.7886L35.9566 24.2635L36.0133 15.89ZM41.8117 13.3287V5.23978L43.1117 4.80076L44.4117 4.36175V12.3287V20.2957L43.1117 20.8566L41.8117 21.4176V13.3287ZM47.6617 11.2182V3.34062L49.0514 2.97031C49.8158 2.76664 50.5482 2.6 50.6791 2.6C50.8486 2.6 50.9008 4.82319 50.8602 10.3252L50.8033 18.0504L49.72 18.4185C49.1242 18.621 48.4173 18.8562 48.1492 18.9412L47.6617 19.0959V11.2182ZM53.295 9.65962V1.98591L54.3733 1.75465C54.9664 1.62746 55.8439 1.46067 56.3233 1.384L57.195 1.24462V8.85151V16.4584L56.5992 16.5935C56.2715 16.6678 55.453 16.8646 54.7804 17.031C54.1078 17.1973 53.4984 17.3333 53.4262 17.3333C53.3541 17.3333 53.295 13.8802 53.295 9.65962ZM59.145 8.47769V0.92205L59.9575 0.79755C60.4044 0.729077 61.3794 0.606524 62.1242 0.525209L63.4783 0.377362V7.87622V15.3751L62.9908 15.4796C62.4939 15.5862 59.4859 16.0333 59.266 16.0333C59.1994 16.0333 59.145 12.6333 59.145 8.47769ZM65.2117 7.723V0.279327L66.6742 0.141202C67.4785 0.0652346 68.5023 0.0023878 68.9492 0.00154063L69.7617 0V7.44367V14.8873L68.2992 15.0255C67.4948 15.1014 66.471 15.1643 66.0242 15.1651L65.2117 15.1667V7.723ZM71.2783 7.475V0H73.6617H76.045V7.475V14.95H73.6617H71.2783V7.475Z" fill="#0076B0"/>
</svg>
