<svg width="68" height="110" viewBox="0 0 68 110" fill="none" xmlns="http://www.w3.org/2000/svg">
<g clip-path="url(#clip0_3051_50)">
<path d="M3.24023 9.50529C3.24023 6.05291 6.05486 3.23828 9.51574 3.23828H57.8236C61.327 3.23828 64.1416 6.05291 64.1416 9.50529V100.483C64.1416 103.936 61.327 106.75 57.8236 106.75H9.51574C6.06336 106.75 3.24023 103.936 3.24023 100.483V9.50529Z" fill="white"/>
<path d="M5.8418 20.2485V9.50872C5.8418 7.49341 7.49146 5.84375 9.50676 5.84375H57.8231C59.8979 5.84375 61.5391 7.49341 61.5391 9.50872V20.24L5.8418 20.2485ZM5.8418 22.8506H61.5306V87.1533H5.8418V22.8506Z" fill="#004990"/>
<path d="M49.7963 14.9838C50.0089 15.2984 50.4851 15.6726 50.8082 15.8342C51.7096 16.3103 52.5089 16.4719 53.3592 16.4719C54.6858 16.4719 55.4851 15.8852 55.4851 15.0348C55.4851 14.0229 54.4732 13.8614 52.9341 13.6573C50.9698 13.3937 49.9069 12.4838 49.9069 10.8937C49.9579 9.30355 51.446 8.07905 53.6228 8.07905C55.1109 8.07905 56.1228 8.40218 56.7606 8.71681V10.7916C56.548 10.4175 56.0718 10.1539 55.5956 9.9413C54.9579 9.72871 54.2946 9.61817 53.6313 9.61817C52.5684 9.61817 51.9307 10.0433 51.9307 10.5791C51.9307 11.4804 52.781 11.5825 54.6432 11.9566C56.5055 12.3308 57.6194 13.1301 57.5684 14.7712C57.5174 16.6845 56.0293 17.96 53.3677 17.96C52.1943 17.96 50.7147 17.7474 49.8048 17.2712L49.7963 14.9838ZM16.7946 11.1573C16.7946 12.1182 15.9953 12.4838 14.7793 12.4838H12.5514V9.77974H14.7793C15.9953 9.77974 16.7946 10.1454 16.7946 11.1573ZM18.1722 15.409C17.696 14.5076 17.3218 13.8189 16.633 13.4957C18.1211 13.1811 18.8609 12.3308 18.8609 11.0552C18.8609 9.83076 18.3252 8.87837 17.3218 8.50422C16.6841 8.24062 15.8847 8.24062 14.6602 8.24062H9.7793C10.2555 8.55525 10.5191 9.51613 10.5191 10.3665V15.7321C10.5191 16.5314 10.2555 17.5348 9.7793 17.8069H13.2827C12.8065 17.5433 12.5429 16.5314 12.5429 15.7321V14.0314H14.031C14.7793 14.0314 15.2045 14.295 15.5191 14.8818C16.0463 15.7321 16.4205 16.8971 17.0582 17.8069H19.8728C19.031 17.2202 18.5973 16.3189 18.1722 15.409ZM25.6211 18.0706C26.9477 18.0706 28.0701 17.6964 28.912 16.9481C29.9239 16.0978 30.6126 14.8223 30.6126 13.0195C30.6126 11.2678 29.9239 9.9413 28.912 9.08246C28.0616 8.39368 26.9477 8.01953 25.6211 8.01953C24.2946 8.01953 23.1807 8.39368 22.3218 9.08246C21.3184 9.9328 20.6211 11.2678 20.6211 13.0195C20.6211 14.8223 21.3099 16.1063 22.3218 16.9481C23.1722 17.6964 24.3456 18.0706 25.6211 18.0706ZM23.5973 15.5706C23.0106 15.0348 22.747 14.193 22.747 13.0195C22.747 11.9056 23.0106 11.0552 23.5973 10.4685C24.0735 9.99232 24.7623 9.66919 25.6126 9.66919C26.463 9.66919 27.1517 9.98382 27.6279 10.4685C28.2147 11.0552 28.5293 11.8971 28.5293 13.0195C28.5293 14.193 28.2147 15.0433 27.6279 15.5706C27.1517 16.0467 26.463 16.3699 25.6126 16.3699C24.7708 16.3699 24.0735 16.0467 23.5973 15.5706ZM39.4307 15.358C38.8949 16.0552 37.781 16.2593 36.565 16.2593H34.7028V10.358C34.7028 9.55865 34.9664 8.54674 35.3915 8.23212H31.9392C32.4154 8.54674 32.6875 9.55865 32.6875 10.358V15.7321C32.6875 16.5825 32.4154 17.4838 31.9392 17.8069H39.116L39.4307 15.358ZM48.0956 15.358C47.5599 16.0552 46.446 16.3189 45.23 16.2593H43.3167V10.358C43.3167 9.55865 43.5803 8.54674 44.065 8.23212H40.6126C41.0888 8.54674 41.3609 9.55865 41.3609 10.358V15.7321C41.3609 16.5825 41.0888 17.5348 40.6126 17.858H47.73L48.0956 15.358Z" fill="white"/>
<path d="M67.3299 9.5068C67.3299 4.2517 63.0782 0 57.8231 0H9.51531C4.2517 0 0 4.2517 0 9.5068V100.485C0 105.748 4.2517 110 9.51531 110H57.8231C63.0782 110 67.3299 105.748 67.3299 100.485V9.5068ZM3.2398 9.5068C3.2398 6.05442 6.05442 3.2398 9.51531 3.2398H57.8231C61.3265 3.2398 64.1412 6.05442 64.1412 9.5068V100.485C64.1412 103.937 61.3265 106.752 57.8231 106.752H9.51531C6.06293 106.752 3.2398 103.937 3.2398 100.485V9.5068Z" fill="#004990"/>
<path d="M5.8418 89.7539V100.485C5.8418 102.509 7.49146 104.15 9.50676 104.15H57.8231C59.8979 104.15 61.5391 102.509 61.5391 100.485V89.7539H5.8418Z" fill="#004990"/>
<path d="M29.7107 76.8969V62.6027C31.0883 62.5516 32.4233 62.5006 33.7498 62.3901C33.2737 61.2761 32.789 60.1622 32.2107 59.0993C31.4114 59.2013 30.5696 59.2013 29.7107 59.2608V56.2846C27.8485 56.7098 25.8332 57.0244 23.7583 57.237V76.8969C23.7583 81.2506 21.7345 82.4241 20.5186 83.2149H32.9505C31.7856 82.4241 29.7107 81.2506 29.7107 76.8969ZM58.6223 83.1724C57.6104 82.2115 56.3349 80.7234 55.6971 77.8067C54.5322 72.4326 52.0832 64.7285 46.9301 58.9887C51.9811 56.2251 55.0594 51.8714 55.0594 46.5057C55.1104 42.6792 53.1461 38.6401 49.6427 36.2506C48.1546 35.2897 46.4029 34.601 44.3281 34.1758C45.0764 35.7744 45.5526 37.4751 45.6546 39.1758C47.8315 40.8765 49.0049 43.4785 49.0049 46.6163C49.0049 50.6044 46.9896 55.2727 39.9233 57.6707C40.5015 58.7846 41.0883 59.9581 41.5645 61.072C41.9386 60.97 42.3128 60.8595 42.6869 60.7574C45.9777 64.5839 48.6308 70.5873 49.4301 76.1656C50.0169 80.2047 48.5798 82.22 47.6274 83.1809L58.6223 83.1724Z" fill="white"/>
<path d="M18.9197 52.8232V30.5103H27.3636C30.4503 30.5613 32.7377 31.199 34.5405 32.4745C36.9299 34.1752 38.2054 36.8878 38.2054 40.1276C38.2139 45.5953 34.4384 52.5596 18.9197 52.8232ZM46.2326 76.7347C45.1697 75.7824 43.8942 74.2943 43.3075 71.3691C42.1425 66.0035 39.8041 58.4524 35.1272 53.0868C35.3398 52.9847 35.5013 52.9252 35.7054 52.8232C41.0201 50.1106 44.2684 45.5953 44.2684 40.0681C44.3194 36.1905 42.3551 32.2024 38.8517 29.813C36.0881 27.9507 32.3636 27.2109 27.6357 27.2109H9.72754C10.952 28.0103 12.9673 29.1752 12.9673 33.529V70.4082C12.9673 74.813 10.952 75.9354 9.72754 76.7262H22.1595C20.9945 75.9269 18.9197 74.813 18.9197 70.4082V56.114C23.2735 56.114 27.3636 55.5783 30.8245 54.6769C33.9622 58.4524 36.3007 64.2943 37.049 69.6599C37.5762 73.7075 36.1986 75.7739 35.2462 76.7262L46.2326 76.7347Z" fill="white"/>
<path d="M29.7101 49.6353V37.0417H36.4022C35.926 35.6557 35.0757 34.5417 33.9107 33.6914H20.5094C21.7339 34.4907 23.7492 35.6047 23.7492 40.0179V51.1234C25.9856 50.8088 28.0094 50.3326 29.7101 49.6353ZM41.8784 96.9907C41.8784 98.7934 42.9413 100.179 44.8036 100.179C46.1301 100.179 47.3546 99.8053 47.8818 99.1676L47.5587 101.242C47.0825 101.455 46.2322 101.719 44.8546 101.719C41.8784 101.719 39.8036 99.9669 39.8036 96.9907C39.8036 95.4006 40.4413 94.1761 41.3937 93.3768C42.2441 92.6285 43.409 92.2033 44.8461 92.2033C46.2237 92.2033 47.074 92.4669 47.5502 92.739V94.7033C46.972 94.0656 46.1216 93.7424 44.7866 93.7424C42.9413 93.7424 41.8784 95.1285 41.8784 96.9907ZM16.4703 95.1795C16.4703 96.0809 15.7305 96.455 14.557 96.455H12.4311V93.904H14.557C15.7305 93.904 16.4703 94.2271 16.4703 95.1795ZM17.8053 99.2186C17.3801 98.3683 17.006 97.6795 16.3682 97.4159C17.7543 97.1523 18.443 96.3019 18.4941 95.1285C18.4941 93.904 17.9669 93.0026 17.006 92.6285C16.4192 92.4159 15.6284 92.4159 14.455 92.4159H9.8291C10.2543 92.6795 10.5179 93.5894 10.5179 94.4312V99.5417C10.5179 100.282 10.2543 101.242 9.8291 101.557H13.1199C12.6947 101.242 12.4311 100.282 12.4311 99.5417V97.8921H13.8087C14.557 97.8921 14.9737 98.2067 15.2968 98.7424C15.773 99.5417 16.1471 100.656 16.7254 101.506L19.4379 101.557C18.5961 100.919 18.2305 100.12 17.8053 99.2186ZM24.8716 101.77C26.1471 101.77 27.2101 101.395 28.0009 100.707C28.9532 99.9074 29.6505 98.6829 29.6505 96.9907C29.6505 95.29 28.9532 94.0656 28.0009 93.2152C27.2015 92.5775 26.1386 92.2033 24.8716 92.2033C23.6471 92.2033 22.5842 92.5775 21.7849 93.2152C20.8325 94.0656 20.1352 95.29 20.1352 96.9907C20.1352 98.6914 20.824 99.9159 21.7849 100.707C22.5842 101.395 23.6471 101.77 24.8716 101.77ZM22.9584 99.3802C22.4311 98.8955 22.159 98.1047 22.159 96.9907C22.159 95.8768 22.4226 95.0775 22.9584 94.5417C23.4345 94.0656 24.0723 93.8019 24.9226 93.8019C25.722 93.8019 26.3597 94.0656 26.8359 94.5417C27.3631 95.0775 27.6352 95.8683 27.6352 96.9907C27.6352 98.1047 27.3716 98.904 26.8359 99.3802C26.3597 99.8564 25.722 100.171 24.9226 100.171C24.0723 100.171 23.4345 99.8564 22.9584 99.3802ZM36.7764 92.4159C36.989 92.5775 37.0995 92.739 37.04 92.9431C37.04 93.1557 36.9294 93.4788 36.7254 93.7934L34.9141 96.3955L33.1114 93.7424C32.8988 93.4278 32.6862 93.1047 32.7373 92.8411C32.7883 92.6795 32.8478 92.5264 33.0519 92.4159H29.3869C30.0247 92.6795 30.3393 93.1642 30.8155 93.853L33.8002 98.0451V99.5332C33.8002 100.273 33.5366 101.234 33.1114 101.498H36.4022C35.9771 101.234 35.7135 100.273 35.7135 99.5332V98.0451L38.426 94.2186C38.8512 93.6914 39.4379 92.7305 40.0757 92.4074L36.7764 92.4159ZM54.4209 100.069H52.0825V97.569H55.5944L55.807 96.1829H52.091V93.904H54.1658C55.3393 93.904 56.2917 93.955 56.7679 94.4312V92.4159H49.489C49.9141 92.739 50.1777 93.6914 50.1777 94.4312V99.5417C50.1777 100.333 49.9141 101.242 49.489 101.557H56.8274L57.142 99.3207C56.5978 100.018 55.5944 100.069 54.4209 100.069Z" fill="white"/>
</g>
<defs>
<clipPath id="clip0_3051_50">
<rect width="67.3299" height="110" fill="white"/>
</clipPath>
</defs>
</svg>
