<svg width="678" height="100" viewBox="0 0 678 100" fill="none" xmlns="http://www.w3.org/2000/svg">
<path fill-rule="evenodd" clip-rule="evenodd" d="M614.253 76.3264H640.006V0H614.253V76.3264Z" fill="#DE1E34"/>
<path fill-rule="evenodd" clip-rule="evenodd" d="M677.874 0V76.3264H652.125V0H677.874Z" fill="#DE1E34"/>
<path fill-rule="evenodd" clip-rule="evenodd" d="M54.9093 29.6452H34.0818V0H0V76.3264H34.0818V38.48H54.9093V76.3264H88.9945V0H54.9093V29.6452Z" fill="#DE1E34"/>
<path fill-rule="evenodd" clip-rule="evenodd" d="M214.912 28.3851L212.828 23.3402H184.804V76.3276H212.828V44.4719C212.828 37.5321 218.132 33.7487 222.676 33.7487C226.462 33.7487 231.383 34.379 231.383 41.3188V76.3276H259.408V41.9499C259.408 22.7099 233.471 15.1423 214.912 28.3851Z" fill="#DE1E34"/>
<path fill-rule="evenodd" clip-rule="evenodd" d="M502.728 54.0903L489.663 23.3398H470.539L457.471 55.3517L443.838 23.3398H417.141H416.949H406.349L392.902 50.3036L373.968 23.3398H341.967L379.648 76.9576L374.726 87.0472C373.02 90.2036 368.94 90.3597 368.141 87.3628C368.141 81.9438 362.865 77.5529 356.358 77.5529C349.85 77.5529 344.575 81.9438 344.575 87.3628C344.621 93.0412 351.436 100.453 364.878 99.9785C378.324 99.5068 384.003 90.2036 385.897 86.2608L417.038 23.5464L439.485 76.3273H459.934L472.431 45.8891L485.308 76.3273H504.62L526.396 23.3398H515.225L502.728 54.0903Z" fill="#DE1E34"/>
<path fill-rule="evenodd" clip-rule="evenodd" d="M137.275 20.6445C115.832 20.6445 98.4521 33.9231 98.4521 50.3019C98.4521 66.6865 115.832 79.965 137.275 79.965C158.722 79.965 176.106 66.6865 176.106 50.3019C176.106 33.9231 158.722 20.6445 137.275 20.6445ZM146.935 64.1783C146.935 68.6221 142.611 72.2233 137.275 72.2233C131.947 72.2233 127.622 68.6221 127.622 64.1783V36.428C127.622 31.9875 131.947 28.3895 137.275 28.3895C142.611 28.3895 146.935 31.9875 146.935 36.428V64.1783Z" fill="#DE1E34"/>
<path fill-rule="evenodd" clip-rule="evenodd" d="M345.077 54.5603C345.282 53.3192 345.388 51.5869 345.388 50.3019C345.388 33.9231 328.004 20.6445 306.561 20.6445C285.115 20.6445 267.73 33.9231 267.73 50.3019C267.73 66.6865 285.115 79.965 306.561 79.965C321.295 79.965 334.111 73.6938 340.692 64.4556L332.115 61.8124C326.932 68.4098 317.427 72.8276 306.561 72.8276C301.225 72.8276 296.901 68.6221 296.901 64.1783V54.5628L345.077 54.5603ZM296.901 36.428C296.901 31.9875 301.225 28.3895 306.561 28.3895C311.893 28.3895 316.217 31.9875 316.217 36.428V46.9927H296.901V36.428Z" fill="#DE1E34"/>
<path fill-rule="evenodd" clip-rule="evenodd" d="M604.484 54.5603C604.693 53.3192 604.798 51.5869 604.798 50.3019C604.798 33.9231 587.415 20.6445 565.968 20.6445C544.525 20.6445 527.142 33.9231 527.142 50.3019C527.142 66.6865 544.525 79.965 565.968 79.965C580.706 79.965 593.522 73.6938 600.103 64.4556L591.526 61.8124C586.342 68.4098 576.839 72.8276 565.968 72.8276C560.636 72.8276 556.312 68.6221 556.312 64.1783V54.5628L604.484 54.5603ZM556.312 36.428C556.312 31.9875 560.636 28.3895 565.968 28.3895C571.304 28.3895 575.629 31.9875 575.629 36.428V46.9927H556.312V36.428Z" fill="#DE1E34"/>
</svg>
