<svg width="599" height="100" viewBox="0 0 599 100" fill="none" xmlns="http://www.w3.org/2000/svg">
<g clip-path="url(#clip0_3051_71)">
<path d="M64.9005 0C93.0233 0 107.792 16.6866 107.792 39.9185C107.792 72.1889 76.3126 100 42.316 100C17.5737 100 0 84.9437 0 61.1364C0 33.0376 28.818 0 64.9005 0Z" fill="#C32537"/>
<path d="M39.2713 17.2148L17.9814 68.7612C29.0339 58.6198 44.7376 49.5812 59.4823 48.79L72.4528 17.2148H39.2713ZM54.4715 62.8873C34.8838 63.0072 24.7184 68.9051 14.6729 77.3443H77.8711L83.8889 62.8873H54.4715Z" fill="white"/>
<path d="M259.074 22.4877C253.08 22.5117 242.412 22.9433 234.428 28.0739C229.153 31.4544 225.605 36.3933 221.673 46.1032C217.765 55.8371 217.358 60.7519 219.899 64.1324C224.31 70.0063 237.137 69.7186 242.316 69.7186C247.494 69.7186 260.105 70.0063 269.24 64.1324C273.315 61.5191 276.36 57.9708 279.357 52.001H254.831L252.889 56.82C252.074 58.8339 249.053 60.4642 246.104 60.4642C243.155 60.4642 241.429 58.8339 242.244 56.82L250.947 35.1705C251.762 33.1566 254.783 31.5263 257.732 31.5263C260.681 31.5263 262.407 33.1566 261.592 35.1705L259.865 39.4621H284.32C285.926 33.9238 285.639 30.5434 283.769 28.026C279.357 22.1521 266.507 22.4398 261.352 22.4398L259.074 22.4877ZM321.05 22.4877C315.056 22.5117 304.387 22.9433 296.403 28.0739C291.129 31.4544 287.581 36.3933 283.649 46.1032C279.741 55.8371 279.333 60.7519 281.875 64.1324C286.286 70.0063 299.137 69.7186 304.291 69.7186C309.446 69.7186 322.081 70.0063 331.215 64.1324C336.49 60.7519 340.038 55.8131 343.97 46.1032C347.902 36.3933 348.285 31.4544 345.744 28.0739C341.333 22.2 328.482 22.4877 323.327 22.4877H321.05ZM570.606 22.4877C564.612 22.5117 553.944 22.9433 545.96 28.0739C540.685 31.4544 537.137 36.3933 533.205 46.1032C529.297 55.8371 528.242 61.2314 530.784 64.6119C535.195 70.4858 546.391 69.7186 551.57 69.7186C559.602 69.7186 566.674 67.1773 572.237 62.4542C572.237 67.1293 572.261 68.352 572.261 68.352C572.261 68.352 580.052 68.376 585.303 68.376L594.845 45.1442L565.739 45.1202L562.167 53.991H567.657L566.53 56.82C565.715 58.8339 562.695 60.4642 559.722 60.4642C556.773 60.4642 552.745 60.6321 553.752 56.82L562.455 35.1705C563.27 33.1566 566.291 31.5263 569.24 31.5263C572.189 31.5263 573.915 33.1566 573.1 35.1705L571.973 37.9756H597.746C599.328 32.4134 598.465 30.5434 596.571 28.05C592.16 22.1761 578.015 22.4638 572.836 22.4638L570.606 22.4877ZM141.453 24.0701L123.184 68.352H169.887L174.322 57.7071H152.074L165.907 24.0701H141.453ZM173.579 24.0701L181.467 53.2717L175.233 68.352H200.024L206.233 53.2478L234.62 24.0701H211.939L199.304 39.558V24.0701H173.579ZM356.821 24.0701L338.528 68.352H358.954L373.052 34.1636L368.784 68.352H389.906L414.193 33.1566L399.664 68.352H420.091L438.36 24.0701H403.956L386.478 50.8502L392.088 24.0701H356.821ZM472.285 24.0701L454.015 68.352H474.442L485.399 41.8116L489.043 68.352H520.642L538.911 24.0701H517.957L506.928 50.8502L504.004 24.0701H472.285ZM443.107 24.0701L424.838 68.352H449.292L467.561 24.0701H443.107ZM319.707 31.5503C322.656 31.5503 324.382 33.1806 323.567 35.1945L314.864 56.844C314.049 58.8579 311.028 60.4882 308.055 60.4882C305.106 60.4882 303.38 58.8579 304.195 56.844L312.898 35.1945C313.737 33.1806 316.758 31.5503 319.707 31.5503Z" fill="black"/>
</g>
<defs>
<clipPath id="clip0_3051_71">
<rect width="598.562" height="100" fill="white"/>
</clipPath>
</defs>
</svg>
