<svg width="420" height="130" viewBox="0 0 420 130" fill="none" xmlns="http://www.w3.org/2000/svg">
<path d="M118.471 39.8704C119.05 42.0452 119.34 44.7033 119.34 47.3614C119.34 50.2612 119.05 52.6777 118.471 55.0941C117.891 57.269 117.022 59.2021 116.009 60.8937C114.995 62.3436 113.691 63.5518 112.098 64.5184C110.505 65.2433 108.767 65.7266 106.884 65.7266H103.553V82.4003H95.5879V29.4795H107.029C108.912 29.4795 110.65 29.9628 112.243 30.6877C113.836 31.4127 115.14 32.6209 116.153 34.3125C117.022 35.7623 117.891 37.6955 118.471 39.8704ZM111.229 47.3614C111.229 42.2868 109.346 39.8704 105.726 39.8704H103.553V54.8525H105.726C109.346 54.8525 111.229 52.436 111.229 47.3614ZM344.691 56.3024L346.573 46.1532H339.622V36.9706H332.091V46.1532H328.47V56.3024H332.091V69.1097C332.091 78.5339 334.842 83.1252 340.201 83.1252C341.504 83.1252 342.663 82.8836 343.677 82.6419C344.691 82.4003 345.704 81.917 346.429 81.4337L345.704 71.7678C345.27 72.0095 344.691 72.2511 344.111 72.4927C343.532 72.7344 342.953 72.7344 342.229 72.7344C341.215 72.7344 340.491 72.2511 340.056 71.5262C339.622 70.5596 339.477 69.1097 339.477 66.9349V56.3024H344.691ZM321.229 27.3047C320.07 27.3047 319.056 28.0296 318.187 29.2379C317.318 30.4461 317.029 32.1376 317.029 34.0708C317.029 36.004 317.463 37.4539 318.187 38.9038C319.056 40.112 319.925 40.8369 321.229 40.8369C322.387 40.8369 323.401 40.112 324.27 38.9038C325.139 37.6955 325.429 36.004 325.429 34.0708C325.429 32.1376 324.994 30.4461 324.27 29.2379C323.401 28.0296 322.387 27.3047 321.229 27.3047ZM362.794 45.1866C361.346 45.1866 360.187 45.6699 359.028 46.6365C358.015 47.6031 357.146 49.053 356.566 50.7445L356.422 46.3948H349.035V82.1586H356.566V63.0685C356.566 60.8937 356.856 59.2021 357.435 57.9939C358.015 56.7857 358.739 56.3024 359.897 56.3024C361.78 56.3024 362.794 58.4772 362.794 62.5852V82.1586H370.325V60.4104C370.325 55.3358 369.746 51.7111 368.442 49.053C367.139 46.3948 365.401 45.1866 362.794 45.1866ZM395.09 67.4182H380.028C380.753 71.5262 383.794 73.4593 387.27 73.4593C388.139 73.4593 389.008 73.2177 390.021 72.976C391.035 72.7344 392.049 72.2511 392.918 71.5262L395.235 79.5005C394.221 80.7088 392.773 81.6754 391.325 82.4003C389.732 83.1252 388.139 83.3669 386.546 83.3669C384.518 83.3669 382.78 82.8836 381.187 82.1586C379.594 81.1921 378.291 79.9838 377.132 78.2923C375.973 76.6008 375.104 74.6676 374.525 72.2511C373.946 69.8346 373.656 67.1765 373.656 64.2767C373.656 61.377 373.946 58.9605 374.525 56.544C375.104 54.1275 375.828 52.1944 376.842 50.5028C377.856 48.8113 379.015 47.6031 380.463 46.6365C381.911 45.6699 383.359 45.1866 385.097 45.1866C386.69 45.1866 388.139 45.6699 389.442 46.3948C390.746 47.1198 391.904 48.328 392.773 50.0195C393.642 51.4694 394.366 53.4026 394.946 55.5774C395.38 57.7523 395.67 60.1687 395.67 63.0685C395.235 65.0017 395.235 66.2099 395.09 67.4182ZM389.153 60.8937C389.008 58.4772 388.573 56.7857 387.704 55.5774C386.98 54.3692 385.966 53.6443 384.663 53.6443C382.056 53.6443 380.463 56.0607 379.884 60.8937H389.153ZM317.463 82.1586H324.994V46.3948H317.463V82.1586ZM198.27 56.3024L200.153 46.1532H193.201V36.9706H185.67V46.1532H183.353H182.484H176.401V36.9706H168.87V46.1532H165.25V56.3024H168.87V69.1097C168.87 78.5339 171.622 83.1252 176.981 83.1252C178.284 83.1252 179.443 82.8836 180.457 82.6419C181.47 82.4003 182.484 81.917 183.208 81.4337L182.484 71.7678C182.05 72.0095 181.47 72.2511 180.891 72.4927C180.312 72.7344 179.732 72.7344 179.008 72.7344C177.995 72.7344 177.27 72.2511 176.836 71.5262C176.401 70.5596 176.257 69.1097 176.257 66.9349V56.3024H182.339H183.353H185.67V69.1097C185.67 78.5339 188.422 83.1252 193.781 83.1252C195.084 83.1252 196.243 82.8836 197.257 82.6419C198.27 82.4003 199.284 81.917 200.008 81.4337L199.284 71.7678C198.85 72.0095 198.27 72.2511 197.836 72.4927C197.257 72.7344 196.677 72.7344 195.953 72.7344C194.939 72.7344 194.215 72.2511 193.781 71.5262C193.346 70.5596 193.201 69.1097 193.201 66.9349V56.3024H198.27ZM305.442 45.1866C304.139 45.1866 302.98 45.6699 301.822 46.3948C300.663 47.1198 299.939 48.5697 299.36 50.0195V29.2379H291.829V82.1586H299.36V63.0685C299.36 60.8937 299.649 59.2021 300.229 57.9939C300.808 56.7857 301.532 56.3024 302.691 56.3024C304.573 56.3024 305.587 58.4772 305.587 62.5852V82.1586H313.118V60.4104C313.118 55.3358 312.539 51.7111 311.236 49.053C309.787 46.3948 307.905 45.1866 305.442 45.1866ZM155.257 46.3948H162.353V82.1586H155.257L155.112 78.0506C154.533 79.7422 153.664 80.9504 152.505 81.917C151.346 82.8836 150.188 83.3669 148.739 83.3669C147.291 83.3669 145.988 82.8836 144.829 81.917C143.671 80.9504 142.657 79.7422 141.788 78.0506C140.919 76.3591 140.195 74.4259 139.76 72.0095C139.326 69.593 139.036 67.1765 139.036 64.2767C139.036 61.6186 139.326 58.9605 139.76 56.544C140.195 54.1275 140.919 52.1944 141.933 50.5028C142.802 48.8113 143.96 47.3614 145.119 46.3948C146.277 45.4282 147.726 44.9449 149.029 44.9449C150.333 44.9449 151.491 45.4282 152.65 46.3948C153.664 47.3614 154.533 48.5697 155.257 50.2612V46.3948ZM155.257 64.2767C155.257 61.8603 154.822 59.9271 154.098 58.4772C153.229 57.0273 152.215 56.3024 150.912 56.3024C149.608 56.3024 148.595 57.0273 147.726 58.4772C146.857 59.9271 146.567 61.8603 146.567 64.2767C146.567 66.6932 147.002 68.6264 147.726 70.0763C148.595 71.5262 149.608 72.2511 150.912 72.2511C152.215 72.2511 153.229 71.5262 154.098 70.0763C154.822 68.6264 155.257 66.6932 155.257 64.2767ZM131.94 47.1198C131.071 48.0864 130.346 49.5362 129.767 51.7111L129.622 46.3948H122.381V82.1586H129.912V66.6932C129.912 60.4104 131.36 57.269 134.257 57.269C134.691 57.269 135.126 57.269 135.705 57.5106C136.139 57.7523 136.719 57.9939 137.008 58.2356L137.588 46.3948C136.864 45.9115 136.14 45.6699 135.126 45.6699C133.967 45.6699 132.953 46.1532 131.94 47.1198ZM275.608 63.5518L269.67 30.2045H262.718L256.781 64.2767L252.001 29.4795H243.167L252.436 82.4003H259.967L265.905 48.328L271.987 82.4003H279.518L288.932 29.4795H280.098L275.608 63.5518ZM233.463 73.2177L238.243 82.1586H230.277L228.974 79.9838C226.656 82.1586 223.905 83.3669 220.719 83.3669C217.243 83.3669 214.636 82.1586 212.608 79.5005C210.581 76.8424 209.567 73.2177 209.567 68.868C209.567 62.8269 211.594 58.2356 215.505 54.8525C213.767 51.2278 212.898 47.8447 212.898 44.4617C212.898 42.5285 213.188 40.8369 213.622 39.3871C214.057 37.9372 214.781 36.4873 215.505 35.5207C216.374 34.3125 217.243 33.5875 218.401 32.8626C219.56 32.3793 220.719 31.896 221.877 31.896C223.181 31.896 224.339 32.1376 225.353 32.6209C226.367 33.1042 227.236 34.0708 227.96 35.0374C228.684 36.004 229.263 37.2122 229.698 38.6621C230.132 40.112 230.277 41.8035 230.277 43.4951C230.277 48.5697 228.394 52.9193 224.629 56.544L229.263 65.2433C229.843 62.8269 229.988 60.1687 229.988 56.7857H236.215C236.36 63.0685 235.346 68.6264 233.463 73.2177ZM219.56 44.4617C219.56 45.1866 219.705 46.1532 219.994 47.1198C220.284 48.0864 220.719 49.053 221.443 50.5028C222.312 49.5362 222.891 48.8113 223.325 47.8447C223.76 46.8781 223.905 45.9115 223.905 44.7033C223.905 43.4951 223.76 42.5285 223.325 41.8035C223.036 41.0786 222.456 40.8369 221.732 40.8369C221.008 40.8369 220.574 41.0786 220.139 41.8035C219.85 42.5285 219.56 43.2534 219.56 44.4617ZM225.353 72.976L219.125 61.1353C217.822 62.8269 217.098 65.0017 217.098 67.4182C217.098 69.593 217.532 71.0429 218.401 72.2511C219.27 73.4593 220.429 73.9426 222.022 73.9426C223.325 73.9426 224.484 73.701 225.353 72.976Z" fill="black"/>
<path d="M30.7031 0.72494C31.5721 0.483293 32.441 0.241647 33.31 0L37.3652 38.4219C36.4962 38.6636 35.6272 38.9052 34.7583 39.1469L30.7031 0.72494Z" fill="black"/>
<path d="M29.6897 43.2583C30.5587 42.2917 31.4276 41.3251 32.4414 40.6002L20.8552 6.76953C19.9863 7.49447 18.9725 8.46106 18.1035 9.42765L29.6897 43.2583Z" fill="black"/>
<path d="M23.0275 64.7598C23.0275 63.3099 23.1723 61.86 23.1723 60.4102H0C0 61.6184 0 63.0683 0 64.5182C0 65.7264 0 67.1763 0 68.3845H23.1723C23.1723 67.1763 23.0275 65.9681 23.0275 64.7598Z" fill="black"/>
<path d="M54.4559 64.7636C54.4559 79.2624 47.3594 90.8615 38.8146 90.8615C30.994 90.8615 24.6216 81.4372 23.3181 69.1132L1.44922 82.4038C1.8837 85.3036 2.46301 87.9617 3.18714 90.6198L24.7664 77.3292L7.2423 102.461C8.40092 105.119 9.55954 107.535 10.863 109.952L27.5181 86.5118L16.8009 117.926C18.5388 119.859 20.2767 121.792 22.1595 123.242L32.2974 93.7612L28.8215 127.35C30.994 128.317 33.1664 129.042 35.4836 129.283L38.8146 97.8692L42.1456 129.283C44.6077 129.042 46.9249 128.317 49.0973 127.109L46.056 97.8692L54.8904 123.484C57.3525 121.551 59.5249 119.376 61.6973 116.718L53.587 93.0363L66.0421 110.435C68.0697 107.293 69.8076 103.669 71.2559 99.5608L60.249 83.8537L73.8628 92.0697C75.1662 87.7201 76.0352 83.1288 76.7593 78.2958L64.8835 71.0464H77.4835C77.6283 68.6299 77.7731 66.2134 77.7731 63.5553C77.7731 60.6556 77.6283 57.7558 77.4835 55.0977H53.587C54.1663 58.7224 54.4559 61.6221 54.4559 64.7636Z" fill="black"/>
<path d="M23.4624 58.7252C23.752 56.3088 24.3313 54.1339 24.9106 52.2008L3.18655 38.9102C2.60724 41.085 2.17276 43.2598 1.73828 45.4346L23.4624 58.7252Z" fill="black"/>
<path d="M67.9267 21.75L50.2578 46.6397C50.6923 47.3646 51.1268 48.3312 51.4164 49.0562L69.2302 24.1665C68.7957 23.1999 68.3612 22.4749 67.9267 21.75Z" fill="black"/>
<path d="M59.091 9.18318C58.5117 8.45824 57.7876 7.97494 57.2082 7.25L45.6221 41.0806C46.3462 41.5639 46.9255 42.2889 47.5048 43.0138L59.091 9.18318Z" fill="black"/>
<path d="M28.0958 45.4243L10.2821 20.293C9.41312 21.7429 8.68898 23.4344 7.96484 24.8843L25.7786 50.0156C26.3579 48.3241 27.2269 46.8742 28.0958 45.4243Z" fill="black"/>
<path d="M40.2617 38.6641C40.9859 38.9058 41.8548 38.9058 42.579 39.3891L46.6341 0.96713C45.91 0.725483 45.041 0.483835 44.3169 0.242188L40.2617 38.6641Z" fill="black"/>
<path d="M137.877 115.987C138.312 114.779 138.457 113.571 138.457 112.121C138.457 109.463 137.877 107.288 136.863 105.596C135.85 104.146 134.257 103.18 132.374 103.18H126.726V129.036H130.636V120.578H132.663L135.415 128.794H139.905L136.139 118.645C136.863 118.162 137.443 117.195 137.877 115.987ZM131.939 115.745H130.781V108.254H131.939C133.677 108.254 134.546 109.463 134.546 111.879C134.546 114.537 133.677 115.745 131.939 115.745Z" fill="black"/>
<path d="M138.89 108.738H143.669V129.036H147.724V108.738H152.503V103.18H138.89V108.738Z" fill="black"/>
<path d="M167.856 103.18H163.221L160.469 111.154L157.718 103.18H152.938L157.863 115.504L152.504 129.036H157.283L160.18 120.095L163.221 129.036H168.145L162.787 115.745L167.856 103.18Z" fill="black"/>
<path d="M101.526 103.18L95.2988 129.036H97.0367L98.9195 121.303H106.016L107.899 129.036H109.926L103.699 103.18H101.526ZM99.4988 118.645L102.395 106.321L105.292 118.645H99.4988Z" fill="black"/>
<path d="M117.022 111.391C116.298 111.391 115.574 111.632 114.994 112.357C114.415 113.082 113.98 113.807 113.691 115.015V112.116H112.098V129.031H113.836V119.607C113.836 117.915 114.125 116.465 114.56 115.499C115.139 114.532 115.718 114.049 116.732 114.049C117.601 114.049 118.18 114.532 118.615 115.257C119.049 116.224 119.194 117.432 119.194 119.123V128.789H120.932V118.64C120.932 116.224 120.642 114.532 119.918 113.324C119.194 112.116 118.325 111.391 117.022 111.391Z" fill="black"/>
<path d="M181.181 115.262C181.906 114.779 182.485 114.054 182.919 113.087C183.354 112.121 183.499 110.912 183.499 109.704C183.499 107.771 183.064 106.079 182.34 104.871C181.471 103.663 180.457 103.18 179.009 103.18H173.65V129.036H179.299C180.892 129.036 182.195 128.311 183.064 127.103C183.933 125.895 184.512 123.961 184.512 121.787C184.512 120.095 184.223 118.887 183.643 117.679C182.919 116.229 182.195 115.504 181.181 115.262ZM175.388 105.596H178.864C179.878 105.596 180.602 105.838 181.181 106.563C181.761 107.288 181.906 108.254 181.906 109.463C181.906 110.912 181.616 112.121 181.181 112.846C180.602 113.571 179.878 114.054 178.864 114.054H175.533V105.596H175.388ZM181.761 125.17C181.181 126.136 180.312 126.378 179.299 126.378H175.388V116.712H179.009C180.168 116.712 181.037 117.195 181.616 117.92C182.195 118.645 182.485 119.853 182.485 121.545C182.63 123.236 182.34 124.445 181.761 125.17Z" fill="black"/>
<path d="M193.927 121.307C193.927 122.999 193.638 124.448 193.203 125.415C192.624 126.382 192.045 126.865 191.176 126.865C190.307 126.865 189.727 126.382 189.293 125.657C188.858 124.932 188.714 123.482 188.714 121.79V111.883H186.976V122.515C186.976 124.69 187.265 126.382 187.845 127.59C188.424 128.798 189.293 129.281 190.451 129.281C191.32 129.281 192.045 129.04 192.624 128.315C193.203 127.832 193.638 126.865 193.927 125.898V128.798H195.52V111.883H193.782V121.307H193.927Z" fill="black"/>
<path d="M201.894 119.124C201.025 118.641 200.445 118.399 200.156 117.916C199.866 117.432 199.721 116.949 199.721 116.224C199.721 115.499 199.866 115.016 200.301 114.533C200.735 114.049 201.17 114.049 201.894 114.049C202.908 114.049 203.921 114.533 204.645 115.499L204.935 113.083C204.501 112.599 204.066 112.358 203.487 112.116C202.908 111.874 202.328 111.633 201.894 111.633C200.735 111.633 199.721 112.116 199.142 113.083C198.418 114.049 198.128 115.258 198.128 116.707C198.128 117.916 198.418 118.882 198.852 119.849C199.287 120.574 200.156 121.299 201.314 121.782C202.039 122.024 202.473 122.507 202.763 122.749C203.052 122.99 203.342 123.232 203.487 123.715C203.632 123.957 203.632 124.44 203.632 124.923C203.632 125.648 203.487 126.373 203.052 126.615C202.618 127.098 202.039 127.34 201.314 127.34C200.735 127.34 200.301 127.098 199.721 126.857C199.142 126.615 198.708 126.132 198.273 125.648L197.983 128.306C198.418 128.79 198.852 129.273 199.432 129.515C200.011 129.756 200.735 129.998 201.314 129.998C202.618 129.998 203.632 129.515 204.356 128.548C205.08 127.582 205.514 126.373 205.514 124.923C205.514 123.474 205.225 122.507 204.79 121.54C204.066 120.332 203.052 119.607 201.894 119.124Z" fill="black"/>
<path d="M208.408 103.422C208.118 103.422 207.828 103.664 207.539 103.905C207.249 104.388 207.249 104.872 207.249 105.355C207.249 105.838 207.394 106.322 207.539 106.805C207.684 107.288 207.973 107.288 208.408 107.288C208.697 107.288 208.987 107.047 209.277 106.805C209.566 106.563 209.566 105.838 209.566 105.355C209.566 104.872 209.421 104.388 209.277 103.905C208.987 103.664 208.697 103.422 208.408 103.422Z" fill="black"/>
<path d="M209.279 112.117H207.541V129.033H209.279V112.117Z" fill="black"/>
<path d="M217.389 111.391C216.665 111.391 215.941 111.632 215.361 112.357C214.782 113.082 214.348 113.807 214.058 115.015V112.116H212.465V129.031H214.203V119.607C214.203 117.915 214.492 116.465 214.927 115.499C215.506 114.532 216.086 114.049 217.099 114.049C217.968 114.049 218.548 114.532 218.982 115.257C219.417 116.224 219.561 117.432 219.561 119.123V128.789H221.299V118.64C221.299 116.224 221.01 114.532 220.286 113.324C219.561 112.116 218.548 111.391 217.389 111.391Z" fill="black"/>
<path d="M228.537 111.391C227.524 111.391 226.655 111.874 225.931 112.599C225.206 113.324 224.627 114.532 224.193 115.982C223.758 117.432 223.613 118.882 223.613 120.573C223.613 123.231 224.048 125.406 225.062 127.098C226.075 128.789 227.379 129.514 229.117 129.514C229.841 129.514 230.565 129.273 231.144 129.031C231.868 128.789 232.448 128.306 232.882 127.823L232.737 125.406C231.579 126.373 230.42 126.856 229.262 126.856C228.103 126.856 227.234 126.373 226.51 125.406C225.786 124.44 225.351 122.99 225.351 121.298H233.172C233.172 121.057 233.172 120.815 233.172 120.573C233.172 120.332 233.172 120.09 233.172 119.848C233.172 117.432 232.737 115.257 231.868 113.807C230.999 112.357 229.841 111.391 228.537 111.391ZM225.206 119.123C225.351 117.432 225.641 116.224 226.22 115.257C226.799 114.29 227.524 113.807 228.393 113.807C229.262 113.807 229.986 114.29 230.565 115.257C231.144 116.224 231.434 117.432 231.434 119.123H225.206Z" fill="black"/>
<path d="M238.967 119.124C238.098 118.641 237.519 118.399 237.229 117.916C236.939 117.432 236.795 116.949 236.795 116.224C236.795 115.499 236.939 115.016 237.374 114.533C237.808 114.049 238.243 114.049 238.967 114.049C239.981 114.049 240.995 114.533 241.719 115.499L242.008 113.083C241.574 112.599 241.139 112.358 240.56 112.116C239.981 111.874 239.401 111.633 238.967 111.633C237.808 111.633 236.795 112.116 236.215 113.083C235.491 114.049 235.201 115.258 235.201 116.707C235.201 117.916 235.491 118.882 235.926 119.849C236.36 120.574 237.229 121.299 238.388 121.782C239.112 122.024 239.546 122.507 239.836 122.749C240.126 122.99 240.415 123.232 240.56 123.715C240.705 123.957 240.705 124.44 240.705 124.923C240.705 125.648 240.56 126.373 240.126 126.615C239.691 127.098 239.112 127.34 238.388 127.34C237.808 127.34 237.374 127.098 236.795 126.857C236.215 126.615 235.781 126.132 235.346 125.648L235.057 128.306C235.491 128.79 235.926 129.273 236.505 129.515C237.084 129.756 237.808 129.998 238.388 129.998C239.691 129.998 240.705 129.515 241.429 128.548C242.153 127.582 242.588 126.373 242.588 124.923C242.588 123.474 242.298 122.507 241.864 121.54C241.284 120.332 240.27 119.607 238.967 119.124Z" fill="black"/>
<path d="M250.698 121.057C250.119 120.332 249.25 119.607 247.946 118.882C247.077 118.398 246.498 118.157 246.209 117.673C245.919 117.19 245.774 116.707 245.774 115.982C245.774 115.257 245.919 114.774 246.353 114.29C246.788 113.807 247.222 113.807 247.946 113.807C248.96 113.807 249.974 114.29 250.698 115.257L250.988 112.841C250.553 112.357 250.119 112.116 249.54 111.874C248.96 111.632 248.381 111.391 247.946 111.391C246.788 111.391 245.774 111.874 245.195 112.841C244.471 113.807 244.181 115.015 244.181 116.465C244.181 117.673 244.471 118.64 244.905 119.607C245.34 120.573 246.209 121.057 247.367 121.54C248.091 121.781 248.526 122.265 248.815 122.506C249.105 122.748 249.395 122.99 249.54 123.473C249.684 123.715 249.684 124.198 249.684 124.681C249.684 125.406 249.54 126.131 249.105 126.373C248.671 126.856 248.091 127.098 247.367 127.098C246.788 127.098 246.353 126.856 245.774 126.614C245.195 126.373 244.76 125.889 244.326 125.406L244.036 128.064C244.471 128.548 244.905 129.031 245.484 129.273C246.064 129.514 246.788 129.756 247.367 129.756C248.671 129.756 249.684 129.273 250.409 128.306C251.133 127.339 251.567 126.131 251.567 124.681C251.567 122.99 251.277 122.023 250.698 121.057Z" fill="black"/>
<path d="M420 45.918H411.889L407.834 65.0081L403.49 45.918H395.234L404.069 79.7486L400.158 93.7642H407.545L420 45.918Z" fill="black"/>
</svg>
