<svg width="28" height="28" viewBox="0 0 28 28" fill="none" xmlns="http://www.w3.org/2000/svg">
<path d="M25.6667 19.7388V23.2388C25.668 23.5637 25.6014 23.8853 25.4713 24.183C25.3411 24.4808 25.1502 24.748 24.9108 24.9677C24.6713 25.1873 24.3887 25.3545 24.0809 25.4586C23.7731 25.5627 23.4469 25.6014 23.1233 25.5721C19.5333 25.1821 16.0848 23.9553 13.055 21.9905C10.2361 20.1993 7.84623 17.8093 6.055 14.9905C4.08331 11.9469 2.85629 8.48164 2.47334 4.87548C2.44418 4.55286 2.48252 4.2277 2.58592 3.92071C2.68932 3.61371 2.8555 3.33162 3.0739 3.09237C3.29229 2.85312 3.55811 2.66197 3.85443 2.53109C4.15074 2.4002 4.47107 2.33245 4.795 2.33214H8.295C8.86119 2.32657 9.41009 2.52707 9.83939 2.89627C10.2687 3.26546 10.5491 3.77817 10.6283 4.33881C10.7761 5.45889 11.05 6.55866 11.445 7.61714C11.602 8.03472 11.6359 8.48854 11.5429 8.92484C11.4498 9.36113 11.2337 9.76161 10.92 10.0788L9.43834 11.5605C11.0992 14.4813 13.5175 16.8997 16.4383 18.5605L17.92 17.0788C18.2372 16.7651 18.6377 16.549 19.074 16.4559C19.5103 16.3629 19.9641 16.3968 20.3817 16.5538C21.4402 16.9488 22.5399 17.2228 23.66 17.3705C24.2267 17.4504 24.7443 17.7359 25.1143 18.1726C25.4843 18.6092 25.6809 19.1666 25.6667 19.7388Z" stroke="white" stroke-width="2" stroke-linecap="round" stroke-linejoin="round"/>
</svg>
