<svg width="100" height="100" viewBox="0 0 100 100" fill="none" xmlns="http://www.w3.org/2000/svg">
<rect width="100" height="100" rx="23" fill="#004AAD" fill-opacity="0.15"/>
<path d="M28.5596 64.8295H35.1514C35.5828 64.8295 35.9326 64.4796 35.9326 64.0482V63.2172L48.9766 67.8209C50.3613 68.3111 51.804 68.5553 53.246 68.5553C54.9226 68.5553 56.5984 68.2249 58.1784 67.5665L70.2824 62.5197C71.8354 61.8666 72.6041 60.1488 72.0315 58.6073C71.5726 57.3793 70.3553 56.5542 69.003 56.5542C68.8584 56.5542 68.6391 56.5596 68.4216 56.6034L59.5368 58.1713C59.3423 58.2064 59.1477 58.2354 58.9532 58.259C59.311 57.7154 59.5185 57.0707 59.5185 56.3803C59.5185 55.438 59.1359 54.5534 58.4409 53.8893C57.7554 53.2347 56.8452 52.8742 55.8778 52.8742H52.1512C50.7962 52.8742 49.4645 52.6232 48.1923 52.1284L43.4354 50.2779C42.5546 49.9342 41.6032 49.8713 40.6846 50.0971L35.9326 51.257V50.2852C35.9326 49.8537 35.5828 49.5039 35.1514 49.5039H28.5596C28.1281 49.5039 27.7783 49.8537 27.7783 50.2852V64.0482C27.7783 64.4796 28.1281 64.8295 28.5596 64.8295ZM41.0565 51.615C41.6608 51.465 42.2868 51.5062 42.8681 51.734L47.6262 53.5849C49.0792 54.1502 50.6017 54.4367 52.1512 54.4367H55.8778C56.4416 54.4367 56.9684 54.6434 57.3617 55.0192C57.7451 55.3854 57.956 55.8687 57.956 56.3803C57.956 57.4556 57.0237 58.3307 55.8778 58.3307H42.7686C42.3371 58.3307 41.9873 58.6805 41.9873 59.112C41.9873 59.5434 42.3371 59.8932 42.7686 59.8932H57.7763C58.4473 59.8932 59.1325 59.8314 59.8107 59.7097L68.7112 58.1389C69.5092 57.9802 70.3038 58.4482 70.5674 59.1528C70.8516 59.918 70.4686 60.7462 69.679 61.0785L57.5776 66.1242C54.9969 67.2007 52.1275 67.2789 49.4973 66.3477L35.9326 61.5603V52.8654L41.0565 51.615ZM29.3408 51.0664H34.3701V52.252V62.113V63.267H29.3408V51.0664Z" fill="#004AAD"/>
<path d="M59.7623 36.7525C60.5305 36.7525 61.1554 37.3774 61.1554 38.1457C61.1554 38.5771 61.5052 38.9269 61.9366 38.9269C62.3681 38.9269 62.7179 38.5771 62.7179 38.1457C62.7179 36.7882 61.7927 35.6534 60.5435 35.3082V34.1406C60.5435 33.7092 60.1937 33.3594 59.7623 33.3594C59.3308 33.3594 58.981 33.7092 58.981 34.1406V35.3082C57.7318 35.6534 56.8066 36.7882 56.8066 38.1457C56.8066 39.7753 58.1326 41.1013 59.7623 41.1013C60.5305 41.1013 61.1554 41.7262 61.1554 42.4944C61.1554 43.2627 60.5305 43.8876 59.7623 43.8876C58.994 43.8876 58.3691 43.2627 58.3691 42.4944C58.3691 42.063 58.0193 41.7132 57.5879 41.7132C57.1564 41.7132 56.8066 42.063 56.8066 42.4944C56.8066 43.8519 57.7318 44.9867 58.981 45.3319V46.4995C58.981 46.9309 59.3308 47.2807 59.7623 47.2807C60.1937 47.2807 60.5435 46.9309 60.5435 46.4995V45.3319C61.7927 44.9867 62.7179 43.8519 62.7179 42.4944C62.7179 40.8648 61.3919 39.5388 59.7623 39.5388C58.994 39.5388 58.3691 38.914 58.3691 38.1457C58.3691 37.3774 58.994 36.7525 59.7623 36.7525Z" fill="#004AAD"/>
<path d="M59.7628 31.4492C54.8705 31.4492 50.8906 35.4291 50.8906 40.3214C50.8906 45.2138 54.8705 49.1937 59.7628 49.1937C64.6552 49.1937 68.6351 45.2138 68.6351 40.3214C68.6351 35.4291 64.6552 31.4492 59.7628 31.4492ZM59.7628 47.6312C55.7322 47.6312 52.4531 44.3521 52.4531 40.3214C52.4531 36.2908 55.7322 33.0117 59.7628 33.0117C63.7935 33.0117 67.0726 36.2908 67.0726 40.3214C67.0726 44.3521 63.7935 47.6312 59.7628 47.6312Z" fill="#004AAD"/>
<path d="M37.5231 54.7241L40.2037 53.8478C40.7504 53.6686 41.342 53.6956 41.8696 53.9234L45.0278 55.2848C45.1285 55.3283 45.2334 55.3489 45.3368 55.3489C45.6393 55.3489 45.9273 55.1719 46.0547 54.8767C46.2252 54.4803 46.0425 54.0207 45.6465 53.8498L42.488 52.4883C41.611 52.1099 40.6272 52.0652 39.7185 52.3624L37.0379 53.2386C36.6278 53.3729 36.4039 53.8139 36.5378 54.224C36.6721 54.6341 37.1131 54.8587 37.5231 54.7241Z" fill="#004AAD"/>
<path d="M47.4609 55.9055C47.6639 55.9055 47.8672 55.8273 48.0156 55.6789C48.156 55.5301 48.2422 55.3348 48.2422 55.1242C48.2422 54.9209 48.156 54.718 48.0156 54.5692C47.7184 54.2804 47.1951 54.2881 46.9063 54.5692C46.7655 54.718 46.6797 54.9209 46.6797 55.1242C46.6797 55.3348 46.7655 55.5301 46.9063 55.6789C47.0547 55.8273 47.2576 55.9055 47.4609 55.9055Z" fill="#004AAD"/>
<path d="M39.1758 34.828L41.5161 36.1079L42.7959 38.4482C42.9329 38.6988 43.1957 38.8544 43.4814 38.8544C43.7672 38.8544 44.03 38.6988 44.1669 38.4482L45.4468 36.1079L47.7871 34.828C48.0377 34.6911 48.1934 34.4282 48.1934 34.1425C48.1934 33.8568 48.0377 33.594 47.7871 33.457L45.4468 32.1772L44.1669 29.8369C43.8931 29.3356 43.0698 29.3356 42.7959 29.8369L41.5161 32.1772L39.1758 33.457C38.9252 33.594 38.7695 33.8568 38.7695 34.1425C38.7695 34.4282 38.9252 34.6911 39.1758 34.828ZM42.4667 33.4383C42.5976 33.3666 42.7055 33.2587 42.7773 33.1278L43.4814 31.84L44.1856 33.1278C44.2574 33.2587 44.3653 33.3666 44.4962 33.4383L45.784 34.1425L44.4962 34.8467C44.3653 34.9184 44.2574 35.0264 44.1856 35.1572L43.4814 36.4451L42.7773 35.1572C42.7055 35.0264 42.5976 34.9184 42.4667 34.8467L41.1789 34.1425L42.4667 33.4383Z" fill="#004AAD"/>
<path d="M73.459 49.3164L71.1187 48.0366L69.8388 45.6963C69.5649 45.195 68.7417 45.195 68.4678 45.6963L67.188 48.0366L64.8477 49.3164C64.597 49.4533 64.4414 49.7162 64.4414 50.0019C64.4414 50.2876 64.597 50.5505 64.8477 50.6874L67.188 51.9672L68.4678 54.3075C68.6048 54.5582 68.8676 54.7138 69.1533 54.7138C69.439 54.7138 69.7019 54.5582 69.8388 54.3075L71.1187 51.9672L73.459 50.6874C73.7096 50.5505 73.8652 50.2876 73.8652 50.0019C73.8652 49.7162 73.7096 49.4533 73.459 49.3164ZM70.168 50.7061C70.0372 50.7778 69.9292 50.8858 69.8575 51.0166L69.1533 52.3045L68.4491 51.0166C68.3774 50.8858 68.2695 50.7778 68.1386 50.7061L66.8508 50.0019L68.1386 49.2977C68.2695 49.226 68.3774 49.118 68.4491 48.9872L69.1533 47.6993L69.8575 48.9872C69.9292 49.118 70.0372 49.226 70.168 49.2977L71.4559 50.0019L70.168 50.7061Z" fill="#004AAD"/>
</svg>
