<svg width="100" height="100" viewBox="0 0 100 100" fill="none" xmlns="http://www.w3.org/2000/svg">
<path fill-rule="evenodd" clip-rule="evenodd" d="M54.0004 88.6516C53.4004 88.6516 52.9004 88.1516 52.9004 87.5016C52.9004 86.8516 53.4004 86.3516 54.0004 86.3516C74.1004 86.3516 90.4004 70.0516 90.4004 50.0016C90.4004 29.9516 74.1004 13.6516 54.0004 13.6516C33.9504 13.6516 17.6504 29.9516 17.6504 50.0016C17.6504 50.6516 17.1504 51.1516 16.5004 51.1516C15.9004 51.1516 15.4004 50.6516 15.4004 50.0016C15.4004 28.7016 32.7004 11.3516 54.0004 11.3516C75.3504 11.3516 92.6504 28.7016 92.6504 50.0016C92.6504 71.3016 75.3504 88.6516 54.0004 88.6516Z" fill="#004AAD"/>
<path fill-rule="evenodd" clip-rule="evenodd" d="M17.7995 61.2013C17.4995 61.2013 17.1995 61.1013 16.9995 60.9013L7.69953 51.8013C7.34953 51.5013 7.24953 51.0513 7.39953 50.6513C7.54953 50.2513 7.89953 49.9513 8.34953 49.9013L24.4495 47.8513C24.8495 47.8013 25.2995 48.0013 25.4995 48.4013C25.7495 48.7513 25.7495 49.2013 25.5495 49.6013L18.7495 60.6513C18.5495 60.9513 18.2495 61.1513 17.8995 61.2013C17.8995 61.2013 17.8495 61.2013 17.7995 61.2013ZM10.9495 51.8513L17.5495 58.2513L22.3495 50.4013L10.9495 51.8513Z" fill="#004AAD"/>
<path fill-rule="evenodd" clip-rule="evenodd" d="M56.7504 71.6023C44.8504 71.6023 35.1504 61.9023 35.1504 50.0023C35.1504 38.1023 44.8504 28.4023 56.7504 28.4023C68.6504 28.4023 78.3004 38.1023 78.3004 50.0023C78.3004 61.9023 68.6504 71.6023 56.7504 71.6023ZM56.7504 30.7023C46.1004 30.7023 37.4504 39.3523 37.4504 50.0023C37.4504 60.6523 46.1004 69.3023 56.7504 69.3023C67.4004 69.3023 76.0504 60.6523 76.0504 50.0023C76.0504 39.3523 67.4004 30.7023 56.7504 30.7023Z" fill="#004AAD"/>
<path fill-rule="evenodd" clip-rule="evenodd" d="M56.7496 34.4031C56.0996 34.4031 55.5996 33.9031 55.5996 33.2531V29.5531C55.5996 28.9531 56.0996 28.4531 56.7496 28.4531C57.3496 28.4531 57.8996 28.9531 57.8996 29.5531V33.2531C57.8996 33.9031 57.3496 34.4031 56.7496 34.4031Z" fill="#004AAD"/>
<path fill-rule="evenodd" clip-rule="evenodd" d="M65.0987 36.6534C64.9487 36.6534 64.7487 36.6034 64.5487 36.5034C63.9987 36.1534 63.7987 35.4534 64.1487 34.9534L65.9987 31.7534C66.2987 31.2034 66.9987 31.0034 67.5487 31.3034C68.0987 31.6534 68.2487 32.3034 67.9487 32.8534L66.0987 36.0534C65.8987 36.4534 65.4987 36.6534 65.0987 36.6534Z" fill="#004AAD"/>
<path fill-rule="evenodd" clip-rule="evenodd" d="M71.2487 42.7503C70.8487 42.7503 70.4987 42.5503 70.2487 42.2003C69.9487 41.6503 70.1487 40.9503 70.6987 40.6503L73.8987 38.8003C74.4487 38.5003 75.0987 38.6503 75.4487 39.2003C75.7487 39.7503 75.5487 40.4503 74.9987 40.7503L71.7987 42.6003C71.6487 42.7003 71.4487 42.7503 71.2487 42.7503Z" fill="#004AAD"/>
<path fill-rule="evenodd" clip-rule="evenodd" d="M77.1996 51.1516H73.4996C72.8496 51.1516 72.3496 50.6516 72.3496 50.0016C72.3496 49.3516 72.8496 48.8516 73.4996 48.8516H77.1996C77.7996 48.8516 78.2996 49.3516 78.2996 50.0016C78.2996 50.6516 77.7996 51.1516 77.1996 51.1516Z" fill="#004AAD"/>
<path fill-rule="evenodd" clip-rule="evenodd" d="M74.4487 61.3519C74.2487 61.3519 74.0487 61.3019 73.8987 61.2019L70.6987 59.3519C70.1487 59.0519 69.9487 58.3519 70.2487 57.8019C70.5987 57.2519 71.2987 57.1019 71.7987 57.4019L74.9987 59.2519C75.5487 59.5519 75.7487 60.2519 75.4487 60.8019C75.1987 61.1519 74.8487 61.3519 74.4487 61.3519Z" fill="#004AAD"/>
<path fill-rule="evenodd" clip-rule="evenodd" d="M66.9487 68.8526C66.5987 68.8526 66.1987 68.6526 65.9987 68.2526L64.1487 65.0526C63.7987 64.5526 63.9987 63.8526 64.5487 63.5026C65.0987 63.2026 65.7987 63.4026 66.0987 63.9526L67.9487 67.1526C68.2487 67.7026 68.0987 68.3526 67.5487 68.7026C67.3487 68.8026 67.1487 68.8526 66.9487 68.8526Z" fill="#004AAD"/>
<path fill-rule="evenodd" clip-rule="evenodd" d="M56.7496 71.6016C56.0996 71.6016 55.5996 71.0516 55.5996 70.4516V66.7516C55.5996 66.1016 56.0996 65.6016 56.7496 65.6016C57.3496 65.6016 57.8996 66.1016 57.8996 66.7516V70.4516C57.8996 71.0516 57.3496 71.6016 56.7496 71.6016Z" fill="#004AAD"/>
<path fill-rule="evenodd" clip-rule="evenodd" d="M46.5503 68.8526C46.3503 68.8526 46.1503 68.8026 45.9503 68.7026C45.4003 68.3526 45.2503 67.7026 45.5503 67.1526L47.4003 63.9526C47.7003 63.4026 48.4003 63.2026 48.9503 63.5026C49.5003 63.8526 49.6503 64.5526 49.3503 65.0526L47.5003 68.2526C47.3003 68.6526 46.9003 68.8526 46.5503 68.8526Z" fill="#004AAD"/>
<path fill-rule="evenodd" clip-rule="evenodd" d="M39.0495 61.3519C38.6495 61.3519 38.2495 61.1519 38.0495 60.8019C37.7495 60.2519 37.9495 59.5519 38.4995 59.2519L41.6995 57.4019C42.1995 57.1019 42.8995 57.2519 43.2495 57.8019C43.5495 58.3519 43.3495 59.0519 42.7995 59.3519L39.5995 61.2019C39.4495 61.3019 39.2495 61.3519 39.0495 61.3519Z" fill="#004AAD"/>
<path fill-rule="evenodd" clip-rule="evenodd" d="M40.0004 51.1516H36.3004C35.7004 51.1516 35.1504 50.6516 35.1504 50.0016C35.1504 49.3516 35.7004 48.8516 36.3004 48.8516H40.0004C40.6504 48.8516 41.1504 49.3516 41.1504 50.0016C41.1504 50.6516 40.6504 51.1516 40.0004 51.1516Z" fill="#004AAD"/>
<path fill-rule="evenodd" clip-rule="evenodd" d="M42.2495 42.7503C42.0495 42.7503 41.8495 42.7003 41.6995 42.6003L38.4995 40.7503C37.9495 40.4503 37.7495 39.7503 38.0495 39.2003C38.3995 38.6503 39.0495 38.5003 39.5995 38.8003L42.7995 40.6503C43.3495 40.9503 43.5495 41.6503 43.2495 42.2003C42.9995 42.5503 42.6495 42.7503 42.2495 42.7503Z" fill="#004AAD"/>
<path fill-rule="evenodd" clip-rule="evenodd" d="M48.3503 36.6534C48.0003 36.6534 47.6003 36.4534 47.4003 36.0534L45.5503 32.8534C45.2503 32.3034 45.4003 31.6534 45.9503 31.3034C46.5003 31.0034 47.2003 31.2034 47.5003 31.7534L49.3503 34.9534C49.6503 35.4534 49.5003 36.1534 48.9503 36.5034C48.7503 36.6034 48.5503 36.6534 48.3503 36.6534Z" fill="#004AAD"/>
<path fill-rule="evenodd" clip-rule="evenodd" d="M56.7492 54.3031C54.3992 54.3031 52.4492 52.3531 52.4492 50.0031C52.4492 47.6531 54.3992 45.7031 56.7492 45.7031C59.0992 45.7031 60.9992 47.6531 60.9992 50.0031C60.9992 52.3531 59.0992 54.3031 56.7492 54.3031ZM56.7492 48.0031C55.6492 48.0031 54.7492 48.9031 54.7492 50.0031C54.7492 51.1031 55.6492 52.0031 56.7492 52.0031C57.8492 52.0031 58.7492 51.1031 58.7492 50.0031C58.7492 48.9031 57.8492 48.0031 56.7492 48.0031Z" fill="#004AAD"/>
<path fill-rule="evenodd" clip-rule="evenodd" d="M56.7504 77.3523C41.7004 77.3523 29.4004 65.0523 29.4004 50.0023C29.4004 34.9523 41.7004 22.6523 56.7504 22.6523C71.8004 22.6523 84.1004 34.9523 84.1004 50.0023C84.1004 65.0523 71.8004 77.3523 56.7504 77.3523ZM56.7504 24.9523C42.9504 24.9523 31.7004 36.2023 31.7004 50.0023C31.7004 63.8023 42.9504 75.0523 56.7504 75.0523C70.5504 75.0523 81.8004 63.8023 81.8004 50.0023C81.8004 36.2023 70.5504 24.9523 56.7504 24.9523Z" fill="#004AAD"/>
<path fill-rule="evenodd" clip-rule="evenodd" d="M60.7992 58.0531C60.3992 58.0531 60.0492 57.8531 59.7992 57.5031L57.3992 53.2531C57.0492 52.7031 57.2492 52.0031 57.7992 51.7031C58.3492 51.4031 59.0492 51.6031 59.3492 52.1031L61.7992 56.3531C62.0992 56.9031 61.8992 57.6031 61.3992 57.9031C61.1992 58.0031 60.9992 58.0531 60.7992 58.0531ZM56.7992 48.0031C56.1992 48.0031 55.6992 47.5031 55.6992 46.8531V38.3031C55.6992 37.7031 56.1992 37.2031 56.7992 37.2031C57.4492 37.2031 57.9492 37.7031 57.9492 38.3031V46.8531C57.9492 47.5031 57.4492 48.0031 56.7992 48.0031Z" fill="#004AAD"/>
</svg>
