<svg width="100" height="100" viewBox="0 0 100 100" fill="none" xmlns="http://www.w3.org/2000/svg">
<circle cx="50" cy="50" r="50" fill="#004AAD" fill-opacity="0.15"/>
<path fill-rule="evenodd" clip-rule="evenodd" d="M65.3048 66.8568C64.968 66.8568 64.6874 66.5922 64.6712 66.2523C64.6162 65.0976 65.267 64.2748 65.8399 63.6869L73.6938 55.6376L71.6425 40.3677C71.641 40.3562 71.6399 40.3445 71.6389 40.3331C71.5693 39.4489 71.1878 38.8007 70.5644 38.5078C70.0451 38.2638 69.4347 38.3149 68.9718 38.6413C68.4071 39.0392 68.1456 39.7707 68.2354 40.701L69.1131 49.7872C69.1469 50.1361 68.8914 50.4464 68.5424 50.48C68.1925 50.5141 67.8832 50.2582 67.8495 49.9092L66.9718 40.823C66.8381 39.4395 67.3004 38.266 68.2402 37.6035C69.0753 37.0149 70.1725 36.9213 71.1041 37.3588C72.1383 37.8446 72.7931 38.8852 72.9029 40.2155L74.993 55.775C75.019 55.9685 74.9546 56.1632 74.8183 56.3027L66.7487 64.573C66.1563 65.181 65.9141 65.6651 65.9392 66.1917C65.9559 66.5419 65.6855 66.8394 65.3353 66.8561C65.3252 66.8566 65.315 66.8568 65.3048 66.8568Z" fill="#004AAD"/>
<path fill-rule="evenodd" clip-rule="evenodd" d="M55.802 66.8586C55.4847 66.8586 55.2106 66.621 55.1725 66.2981C54.6005 61.4496 54.6779 61.2016 54.7461 60.9827C55.4742 58.6375 63.1713 51.075 66.5112 49.4235C67.9965 48.6887 69.3409 49.3153 70.0142 50.2625C70.7341 51.2752 70.8967 52.9665 69.5527 54.2866L64.7485 59.0089C64.4985 59.2547 64.0966 59.2513 63.8508 59.0012C63.605 58.7511 63.6085 58.3492 63.8585 58.1035L68.663 53.381C69.4807 52.5778 69.4111 51.6054 68.9794 50.9981C68.6287 50.5048 67.9442 50.131 67.074 50.5615C63.8463 52.1574 56.6336 59.3934 55.9703 61.3227C55.9553 61.5511 56.0024 62.4971 56.4331 66.1493C56.4743 66.4974 56.2254 66.8131 55.8771 66.8541C55.852 66.8571 55.8269 66.8586 55.802 66.8586Z" fill="#004AAD"/>
<path fill-rule="evenodd" clip-rule="evenodd" d="M67.7018 72.1999H53.7002C53.3496 72.1999 53.0654 71.9157 53.0654 71.5652V66.2207C53.0654 65.87 53.3496 65.5859 53.7002 65.5859H67.7018C68.0524 65.5859 68.3367 65.87 68.3367 66.2207V71.5652C68.3367 71.9157 68.0524 72.1999 67.7018 72.1999ZM54.3349 70.9303H67.0671V66.8554H54.3349V70.9303Z" fill="#004AAD"/>
<path fill-rule="evenodd" clip-rule="evenodd" d="M56.3832 70.1511C56.389 70.1512 56.3775 70.1511 56.3832 70.1511C56.0328 70.1417 55.7389 69.8499 55.7483 69.4994L55.7801 68.3053C55.7895 67.9548 56.0832 67.6816 56.4314 67.6876C56.782 67.6969 57.0586 67.9885 57.0491 68.3391L57.0174 69.5332C57.0083 69.8778 56.7259 70.1511 56.3832 70.1511Z" fill="#004AAD"/>
<path fill-rule="evenodd" clip-rule="evenodd" d="M34.6941 66.8569C34.6839 66.8569 34.6737 66.8567 34.6633 66.8562C34.3131 66.8395 34.0427 66.542 34.0595 66.1918C34.0846 65.665 33.8424 65.1808 33.2499 64.5729L25.1804 56.3029C25.0441 56.1631 24.9797 55.9684 25.0056 55.7751L27.0958 40.2154C27.2057 38.8852 27.8605 37.8446 28.8947 37.3588C29.8263 36.9211 30.9235 37.0151 31.7585 37.6036C32.6983 38.266 33.1607 39.4395 33.027 40.8231L32.1493 49.9093C32.1155 50.2582 31.8045 50.513 31.4564 50.48C31.1075 50.4463 30.8519 50.1362 30.8857 49.7871L31.7633 40.701C31.8532 39.7708 31.5918 39.0393 31.027 38.6412C30.564 38.3149 29.9537 38.2641 29.4343 38.5079C28.811 38.8008 28.4295 39.4489 28.3599 40.3331C28.359 40.3447 28.3577 40.3563 28.3562 40.3678L26.305 55.6375L34.1588 63.6866C34.732 64.2747 35.3826 65.0977 35.3275 66.2523C35.3113 66.5923 35.0306 66.8569 34.6941 66.8569Z" fill="#004AAD"/>
<path fill-rule="evenodd" clip-rule="evenodd" d="M44.1969 66.8585C44.1721 66.8585 44.1469 66.857 44.1217 66.854C43.7735 66.8129 43.5245 66.4974 43.5656 66.1492C43.9965 62.4981 44.0437 61.5514 44.0286 61.3226C43.3644 59.3922 36.1523 52.1572 32.925 50.5614C32.0548 50.1308 31.3702 50.5047 31.0195 50.998C30.5878 51.6055 30.5182 52.5778 31.3357 53.3808L36.1404 58.1034C36.3904 58.3492 36.3939 58.751 36.1481 59.001C35.9025 59.2513 35.5006 59.2546 35.2504 59.0087L30.4461 54.2865C29.1023 52.9665 29.265 51.2753 29.9848 50.2625C30.658 49.3152 32.0022 48.6887 33.4879 49.4235C36.8276 51.0749 44.5248 58.6374 45.2533 60.9833C45.3213 61.2019 45.3987 61.4502 44.8265 66.298C44.7884 66.6209 44.5142 66.8585 44.1969 66.8585Z" fill="#004AAD"/>
<path fill-rule="evenodd" clip-rule="evenodd" d="M46.2985 72.1999H32.2968C31.9462 72.1999 31.6621 71.9157 31.6621 71.5652V66.2207C31.6621 65.87 31.9462 65.5859 32.2968 65.5859H46.2985C46.649 65.5859 46.9332 65.87 46.9332 66.2207V71.5652C46.9332 71.9157 46.649 72.1999 46.2985 72.1999ZM32.9316 70.9303H45.6637V66.8554H32.9316V70.9303Z" fill="#004AAD"/>
<path fill-rule="evenodd" clip-rule="evenodd" d="M43.6154 70.1511C43.2726 70.1511 42.9903 69.8778 42.9812 69.5332L42.9494 68.3391C42.9401 67.9885 43.2167 67.697 43.5672 67.6876C43.915 67.6813 44.2092 67.9549 44.2186 68.3053L44.2503 69.4994C44.2595 69.8499 43.966 70.1417 43.6154 70.1511C43.6212 70.1511 43.6099 70.1512 43.6154 70.1511Z" fill="#004AAD"/>
<path fill-rule="evenodd" clip-rule="evenodd" d="M49.7178 54.9535C49.6472 54.9535 49.5766 54.9418 49.5089 54.9181C46.8281 53.984 44.0818 52.1587 41.9741 49.9104C40.2655 48.0876 38.2285 45.1823 38.2285 41.693V30.8007C38.2285 30.5186 38.4148 30.2703 38.6856 30.1913L49.54 27.0253C49.6562 26.9916 49.7795 26.9916 49.8956 27.0253L60.7501 30.1913C61.0209 30.2703 61.207 30.5186 61.207 30.8007V41.693C61.207 45.1822 59.1702 48.0875 57.4614 49.9103C55.3539 52.1586 52.6076 53.984 49.9268 54.9181C49.8591 54.9418 49.7884 54.9535 49.7178 54.9535ZM39.498 31.2767V41.693C39.498 44.7673 41.3483 47.3864 42.9003 49.042C44.7883 51.056 47.3219 52.7639 49.7179 53.6445C52.1137 52.7639 54.6473 51.0559 56.5353 49.042C58.0875 47.3864 59.9376 44.7673 59.9376 41.693L59.9377 31.2767L49.7178 28.2959L39.498 31.2767Z" fill="#004AAD"/>
<path fill-rule="evenodd" clip-rule="evenodd" d="M49.7175 51.1719C49.6469 51.1719 49.5764 51.1601 49.5087 51.1366C47.5611 50.4579 45.5669 49.133 44.0374 47.5013C42.7906 46.1714 41.3047 44.049 41.3047 41.4899V33.6846C41.3047 33.4025 41.491 33.1542 41.7617 33.0752L49.5398 30.8067C49.6558 30.7728 49.7792 30.7728 49.8953 30.8067L57.6732 33.0752C57.944 33.1542 58.1303 33.4025 58.1303 33.6846V41.4899C58.1303 44.049 56.6442 46.1713 55.3977 47.5013C53.8681 49.133 51.874 50.4579 49.9264 51.1366C49.8588 51.1601 49.7881 51.1719 49.7175 51.1719ZM42.5743 34.1607V41.4899C42.5743 43.1628 43.4228 44.9894 44.9637 46.633C46.2819 48.0393 48.0444 49.234 49.7177 49.8621C51.3908 49.234 53.1533 48.0393 54.4715 46.633C56.0124 44.9893 56.8609 43.1628 56.8609 41.4899V34.1607L49.7178 32.0773L42.5743 34.1607Z" fill="#004AAD"/>
<path fill-rule="evenodd" clip-rule="evenodd" d="M47.6494 44.6938C47.4869 44.6938 47.3245 44.6319 47.2007 44.5079L45.1703 42.4775C44.9224 42.2295 44.9224 41.8277 45.1703 41.5798C45.4181 41.3319 45.8201 41.3319 46.068 41.5798L47.6494 43.1614L53.3672 37.4438C53.6152 37.1958 54.017 37.1959 54.2649 37.4438C54.5128 37.6916 54.5128 38.0935 54.2649 38.3414L48.0982 44.5078C47.9744 44.6318 47.8119 44.6938 47.6494 44.6938Z" fill="#004AAD"/>
</svg>
