<svg width="100" height="100" viewBox="0 0 100 100" fill="none" xmlns="http://www.w3.org/2000/svg">
<path fill-rule="evenodd" clip-rule="evenodd" d="M46.9999 57.7016C46.6999 57.7016 46.4499 57.6016 46.1999 57.4016L40.4499 51.6016C39.9999 51.2016 39.9999 50.4516 40.4499 50.0016C40.8999 49.6016 41.5999 49.6016 42.0499 50.0016L46.9999 55.0016L57.9499 44.0516C58.3999 43.6016 59.0999 43.6016 59.5499 44.0516C59.9999 44.5016 59.9999 45.2016 59.5499 45.6516L47.7999 57.4016C47.5999 57.6016 47.2999 57.7016 46.9999 57.7016ZM49.9999 92.6516C49.8499 92.6516 49.7499 92.6516 49.5999 92.6016C14.2999 79.4516 14.7999 61.8016 15.5999 35.1016C15.6999 30.9516 15.8499 26.7016 15.8499 22.1516C15.8499 21.5016 16.3499 21.0016 16.9499 21.0016C25.4499 21.0016 37.8499 18.8016 48.4999 8.30156C49.2499 7.55156 49.4499 7.35156 49.9999 7.35156C50.5499 7.35156 50.7499 7.55156 51.4999 8.30156C62.1499 18.8016 74.5499 21.0016 83.0499 21.0016C83.6499 21.0016 84.1499 21.5016 84.1499 22.1516C84.1499 26.7016 84.2999 30.9516 84.3999 35.1016C85.1999 61.8016 85.6999 79.4516 50.3999 92.6016C50.2499 92.6516 50.1499 92.6516 49.9999 92.6516ZM18.0999 23.2516C18.0999 27.4016 17.9499 31.3516 17.8499 35.2016C17.0999 61.7016 16.6499 77.7516 49.9999 90.3016C83.3499 77.7516 82.8999 61.7016 82.1499 35.2016C82.0499 31.3516 81.8999 27.4516 81.8999 23.2516C73.0499 23.0516 60.7499 20.5016 49.9999 10.0016C39.2499 20.5016 26.9499 23.0516 18.0999 23.2516ZM49.9999 87.3016C49.8499 87.3016 49.6999 87.3016 49.5999 87.2516C40.5499 83.7516 28.0499 77.7016 23.2499 65.9016C20.8499 59.9016 20.4499 53.1016 20.3999 47.2516C20.3499 42.7516 20.4999 38.1516 20.5999 33.7016C20.6499 31.4516 20.7499 29.1516 20.7999 26.9016C20.7999 26.3016 21.2499 25.8516 21.7999 25.8016C29.2499 25.1016 36.1499 22.9516 42.3999 19.3016C44.7999 17.9016 47.1499 16.2516 49.2499 14.4016C49.6999 14.0516 50.2999 14.0516 50.7499 14.4016C52.8499 16.2516 55.1999 17.9016 57.5999 19.3016C63.8499 22.9516 70.7499 25.1016 78.1999 25.8016C78.7499 25.8516 79.1999 26.3016 79.1999 26.9016C79.2499 29.1516 79.3499 31.4516 79.3999 33.7016C79.4999 38.1516 79.6499 42.7516 79.5999 47.2516C79.5499 53.1016 79.1499 59.9016 76.7499 65.9016C71.9499 77.7016 59.4499 83.7516 50.3999 87.2516C50.2999 87.3016 50.1499 87.3016 49.9999 87.3016ZM23.0499 27.9516C22.9999 29.9016 22.9499 31.8516 22.8999 33.7516C22.7499 38.2016 22.5999 42.7516 22.6499 47.2516C22.6999 52.8516 23.0999 59.4016 25.3499 65.0516C29.6999 75.7516 40.7499 81.3016 49.9999 84.9516C59.2499 81.3016 70.2999 75.7516 74.6499 65.0516C76.8999 59.4016 77.2999 52.8516 77.3499 47.2516C77.3999 42.7516 77.2499 38.2016 77.0999 33.7516C77.0499 31.8516 76.9999 29.9016 76.9499 27.9516C69.5999 27.1516 62.6999 24.9016 56.4999 21.2516C54.1999 19.9516 52.0499 18.4016 49.9999 16.7516C47.9499 18.4016 45.7999 19.9516 43.5499 21.2516C37.2999 24.9016 30.3999 27.1516 23.0499 27.9516ZM49.9999 68.8516C39.9999 68.8516 31.8999 60.7016 31.8999 50.7016C31.8999 40.7516 39.9999 32.6016 49.9999 32.6016C59.9999 32.6016 68.0999 40.7516 68.0999 50.7016C68.0999 60.7016 59.9999 68.8516 49.9999 68.8516ZM49.9999 34.9016C41.2499 34.9016 34.1499 42.0016 34.1499 50.7016C34.1499 59.4516 41.2499 66.5516 49.9999 66.5516C58.7499 66.5516 65.8499 59.4516 65.8499 50.7016C65.8499 42.0016 58.7499 34.9016 49.9999 34.9016Z" fill="#004AAD"/>
</svg>
