<svg width="100" height="100" viewBox="0 0 100 100" fill="none" xmlns="http://www.w3.org/2000/svg">
<rect width="100" height="100" rx="23" fill="#3771BF" fill-opacity="0.15"/>
<g clip-path="url(#clip0_3022_60)">
<path d="M49.9997 71.6654C61.9658 71.6654 71.6663 61.9649 71.6663 49.9987C71.6663 38.0325 61.9658 28.332 49.9997 28.332C38.0335 28.332 28.333 38.0325 28.333 49.9987C28.333 61.9649 38.0335 71.6654 49.9997 71.6654Z" stroke="#004AAD" stroke-width="2" stroke-miterlimit="10" stroke-linecap="round" stroke-linejoin="round"/>
<path d="M25.833 50H30.833" stroke="#004AAD" stroke-width="2" stroke-miterlimit="10" stroke-linecap="round" stroke-linejoin="round"/>
<path d="M69.167 50H74.167" stroke="#004AAD" stroke-width="2" stroke-miterlimit="10" stroke-linecap="round" stroke-linejoin="round"/>
<path d="M50 74.168V69.168" stroke="#004AAD" stroke-width="2" stroke-miterlimit="10" stroke-linecap="round" stroke-linejoin="round"/>
<path d="M50 30.832V25.832" stroke="#004AAD" stroke-width="2" stroke-miterlimit="10" stroke-linecap="round" stroke-linejoin="round"/>
<path d="M49.9997 42.4258C48.5019 42.4258 47.0378 42.8699 45.7924 43.702C44.547 44.5342 43.5764 45.7169 43.0032 47.1006C42.4301 48.4844 42.2801 50.0071 42.5723 51.4761C42.8645 52.9451 43.5857 54.2944 44.6448 55.3535C45.7039 56.4127 47.0533 57.1339 48.5223 57.4261C49.9913 57.7183 51.5139 57.5683 52.8977 56.9952C54.2815 56.422 55.4642 55.4513 56.2963 54.206C57.1285 52.9606 57.5726 51.4965 57.5726 49.9987C57.5712 47.9906 56.7729 46.0653 55.353 44.6454C53.9331 43.2254 52.0077 42.4271 49.9997 42.4258ZM49.9997 56.2487C48.7636 56.2487 47.5552 55.8821 46.5274 55.1954C45.4995 54.5086 44.6985 53.5325 44.2254 52.3905C43.7524 51.2484 43.6286 49.9918 43.8698 48.7794C44.111 47.567 44.7062 46.4533 45.5803 45.5793C46.4543 44.7052 47.568 44.1099 48.7804 43.8688C49.9928 43.6276 51.2494 43.7514 52.3915 44.2244C53.5335 44.6975 54.5096 45.4985 55.1964 46.5264C55.8831 47.5542 56.2497 48.7626 56.2497 49.9987C56.2428 51.6542 55.5821 53.2399 54.4115 54.4105C53.2409 55.5811 51.6552 56.2418 49.9997 56.2487Z" fill="#004AAD"/>
<path d="M62.9062 46.5885C62.6886 46.5847 62.4777 46.5129 62.303 46.383C62.1283 46.2532 61.9986 46.0719 61.9323 45.8646C61.7705 45.3946 61.5792 44.9354 61.3594 44.4896C61.2586 44.2946 61.222 44.0729 61.2547 43.8559C61.2874 43.6389 61.3879 43.4378 61.5417 43.2812C61.9752 42.8442 62.2184 42.2536 62.2184 41.638C62.2184 41.0224 61.9752 40.4318 61.5417 39.9948L60.0052 38.4635C59.568 38.0284 58.9762 37.7842 58.3594 37.7842C57.7426 37.7842 57.1508 38.0284 56.7135 38.4635C56.5568 38.6154 56.3564 38.7141 56.1405 38.7459C55.9246 38.7777 55.7042 38.7408 55.5104 38.6406C55.0638 38.4226 54.6047 38.2313 54.1354 38.0677C53.9281 38.0014 53.7468 37.8717 53.617 37.697C53.4871 37.5224 53.4153 37.3114 53.4115 37.0937C53.4115 36.4763 53.1662 35.8841 52.7296 35.4475C52.293 35.0109 51.7008 34.7656 51.0833 34.7656H48.9167C48.2992 34.7656 47.707 35.0109 47.2704 35.4475C46.8338 35.8841 46.5885 36.4763 46.5885 37.0937C46.5847 37.3114 46.5129 37.5224 46.383 37.697C46.2532 37.8717 46.0719 38.0014 45.8646 38.0677C45.3953 38.2313 44.9362 38.4226 44.4896 38.6406C44.2946 38.7414 44.0729 38.778 43.8559 38.7453C43.6389 38.7126 43.4378 38.6121 43.2812 38.4583C42.8442 38.0248 42.2536 37.7816 41.638 37.7816C41.0224 37.7816 40.4318 38.0248 39.9948 38.4583L38.4635 39.9948C38.0284 40.432 37.7842 41.0238 37.7842 41.6406C37.7842 42.2574 38.0284 42.8492 38.4635 43.2865C38.6154 43.4432 38.7141 43.6436 38.7459 43.8595C38.7777 44.0754 38.7408 44.2958 38.6406 44.4896C38.4226 44.9362 38.2313 45.3953 38.0677 45.8646C38.0014 46.0719 37.8717 46.2532 37.697 46.383C37.5224 46.5129 37.3114 46.5847 37.0937 46.5885C36.4763 46.5885 35.8841 46.8338 35.4475 47.2704C35.0109 47.707 34.7656 48.2992 34.7656 48.9167V51.0833C34.7656 51.7008 35.0109 52.293 35.4475 52.7296C35.8841 53.1662 36.4763 53.4115 37.0937 53.4115C37.3114 53.4153 37.5224 53.4871 37.697 53.617C37.8717 53.7468 38.0014 53.9281 38.0677 54.1354C38.2313 54.6047 38.4226 55.0638 38.6406 55.5104C38.7414 55.7054 38.778 55.9271 38.7453 56.1441C38.7126 56.3611 38.6121 56.5622 38.4583 56.7187C38.0248 57.1558 37.7816 57.7464 37.7816 58.362C37.7816 58.9776 38.0248 59.5682 38.4583 60.0052L39.9896 61.5365C40.4261 61.9728 41.0182 62.218 41.6354 62.218C42.2527 62.218 42.8447 61.9728 43.2812 61.5365C43.438 61.3846 43.6384 61.2859 43.8543 61.2541C44.0702 61.2223 44.2906 61.2592 44.4844 61.3594C44.931 61.5773 45.3901 61.7687 45.8594 61.9323C46.0667 61.9986 46.248 62.1283 46.3778 62.303C46.5077 62.4777 46.5795 62.6886 46.5833 62.9062C46.5833 63.5237 46.8286 64.1159 47.2652 64.5525C47.7018 64.9891 48.294 65.2344 48.9115 65.2344H51.0781C51.6956 65.2344 52.2878 64.9891 52.7244 64.5525C53.161 64.1159 53.4062 63.5237 53.4062 62.9062C53.4101 62.6886 53.4819 62.4777 53.6118 62.303C53.7416 62.1283 53.9229 61.9986 54.1302 61.9323C54.5995 61.7687 55.0586 61.5773 55.5052 61.3594C55.7002 61.2586 55.9219 61.222 56.1389 61.2547C56.3559 61.2874 56.557 61.3879 56.7135 61.5417C57.1499 61.9765 57.7408 62.2206 58.3568 62.2206C58.9728 62.2206 59.5636 61.9765 60 61.5417L61.5312 60.0104C61.9664 59.5732 62.2106 58.9814 62.2106 58.3646C62.2106 57.7478 61.9664 57.156 61.5312 56.7187C61.3794 56.562 61.2807 56.3616 61.2489 56.1457C61.2171 55.9298 61.254 55.7094 61.3542 55.5156C61.574 55.0698 61.7653 54.6106 61.9271 54.1406C61.9934 53.9333 62.1231 53.752 62.2978 53.6222C62.4724 53.4923 62.6834 53.4205 62.901 53.4167C63.5185 53.4167 64.1107 53.1714 64.5473 52.7348C64.9839 52.2982 65.2292 51.706 65.2292 51.0885V48.9167C65.2292 48.3001 64.9846 47.7087 64.5491 47.2723C64.1136 46.8358 63.5228 46.5899 62.9062 46.5885ZM63.9479 51.0833C63.9479 51.3596 63.8382 51.6245 63.6428 51.8199C63.4474 52.0153 63.1825 52.125 62.9062 52.125C62.4178 52.1294 61.9428 52.2858 61.547 52.5722C61.1514 52.8588 60.8546 53.2613 60.6979 53.724C60.5518 54.1465 60.3778 54.5589 60.1771 54.9583C59.9603 55.3973 59.8855 55.8928 59.963 56.3762C60.0404 56.8596 60.2663 57.307 60.6094 57.6562C60.7971 57.8505 60.9021 58.1101 60.9021 58.3802C60.9021 58.6504 60.7971 58.9099 60.6094 59.1042L59.0833 60.6302C58.8889 60.8195 58.6282 60.9254 58.3568 60.9254C58.0854 60.9254 57.8247 60.8195 57.6302 60.6302C57.2811 60.2884 56.8344 60.0637 56.352 59.9872C55.8695 59.9107 55.3752 59.9861 54.9375 60.2031C54.538 60.4039 54.1257 60.5779 53.7031 60.724C53.2404 60.8807 52.8379 61.1774 52.5514 61.5731C52.2649 61.9688 52.1086 62.4438 52.1042 62.9323C52.1042 63.2085 51.9944 63.4735 51.7991 63.6689C51.6037 63.8642 51.3387 63.974 51.0625 63.974H48.9167C48.6404 63.974 48.3755 63.8642 48.1801 63.6689C47.9847 63.4735 47.875 63.2085 47.875 62.9323C47.8706 62.4438 47.7142 61.9688 47.4278 61.5731C47.1412 61.1774 46.7387 60.8807 46.276 60.724C45.8535 60.5779 45.4411 60.4039 45.0417 60.2031C44.7169 60.0452 44.3611 59.9616 44 59.9583C43.3836 59.9583 42.7921 60.2016 42.3542 60.6354C42.1599 60.8232 41.9004 60.9281 41.6302 60.9281C41.3601 60.9281 41.1005 60.8232 40.9062 60.6354L39.3802 59.1094C39.1909 58.9149 39.085 58.6542 39.085 58.3828C39.085 58.1114 39.1909 57.8507 39.3802 57.6562C39.722 57.3072 39.9467 56.8605 40.0232 56.378C40.0997 55.8955 40.0243 55.4012 39.8073 54.9635C39.6066 54.5641 39.4326 54.1517 39.2865 53.7292C39.1297 53.2665 38.833 52.864 38.4373 52.5774C38.0416 52.291 37.5666 52.1346 37.0781 52.1302C36.8019 52.1302 36.5369 52.0205 36.3416 51.8251C36.1462 51.6297 36.0365 51.3648 36.0365 51.0885V48.9167C36.0365 48.6404 36.1462 48.3755 36.3416 48.1801C36.5369 47.9847 36.8019 47.875 37.0781 47.875C37.5666 47.8706 38.0416 47.7142 38.4373 47.4278C38.833 47.1412 39.1297 46.7387 39.2865 46.276C39.4326 45.8535 39.6066 45.4411 39.8073 45.0417C40.0241 44.6027 40.0989 44.1072 40.0214 43.6238C39.944 43.1404 39.7181 42.693 39.375 42.3437C39.1872 42.1495 39.0823 41.8899 39.0823 41.6198C39.0823 41.3496 39.1872 41.0901 39.375 40.8958L40.901 39.3698C41.0955 39.1805 41.3562 39.0746 41.6276 39.0746C41.899 39.0746 42.1597 39.1805 42.3542 39.3698C42.7032 39.7116 43.1499 39.9363 43.6324 40.0128C44.1149 40.0893 44.6092 40.0139 45.0469 39.7969C45.4464 39.5961 45.8587 39.4221 46.2812 39.276C46.7466 39.127 47.1541 38.8369 47.4471 38.4458C47.7402 38.0548 47.9043 37.5822 47.9167 37.0937C47.9167 36.8175 48.0264 36.5525 48.2218 36.3572C48.4171 36.1618 48.6821 36.0521 48.9583 36.0521H51.125C51.4012 36.0521 51.6662 36.1618 51.8616 36.3572C52.0569 36.5525 52.1667 36.8175 52.1667 37.0937C52.1711 37.5822 52.3274 38.0573 52.6139 38.4529C52.9004 38.8486 53.3029 39.1454 53.7656 39.3021C54.1882 39.4482 54.6005 39.6222 55 39.8229C55.439 40.0397 55.9345 40.1145 56.4179 40.037C56.9013 39.9596 57.3486 39.7337 57.6979 39.3906C57.8921 39.2029 58.1517 39.0979 58.4219 39.0979C58.692 39.0979 58.9516 39.2029 59.1458 39.3906L60.6719 40.9167C60.8612 41.1111 60.9671 41.3718 60.9671 41.6432C60.9671 41.9146 60.8612 42.1753 60.6719 42.3698C60.3301 42.7189 60.1054 43.1656 60.0289 43.648C59.9523 44.1305 60.0278 44.6248 60.2448 45.0625C60.4455 45.462 60.6195 45.8743 60.7656 46.2969C60.9149 46.7528 61.1999 47.1523 61.5824 47.4418C61.965 47.7312 62.4269 47.897 62.9062 47.9167C63.1825 47.9167 63.4474 48.0264 63.6428 48.2218C63.8382 48.4171 63.9479 48.6821 63.9479 48.9583V51.0833Z" fill="#004AAD"/>
</g>
<defs>
<clipPath id="clip0_3022_60">
<rect width="50" height="50" fill="white" transform="translate(25 25)"/>
</clipPath>
</defs>
</svg>
