<svg width="100" height="100" viewBox="0 0 100 100" fill="none" xmlns="http://www.w3.org/2000/svg">
<path d="M24.4219 49.2672C24.5615 49.2729 24.7006 49.2461 24.8281 49.1891L39.6406 43.5329C39.7929 43.4819 39.9326 43.3993 40.0507 43.2906C40.1689 43.1818 40.2627 43.0494 40.3261 42.9019C40.3895 42.7544 40.4211 42.5952 40.4188 42.4347C40.4164 42.2742 40.3802 42.1159 40.3125 41.9704L38.4531 37.0954C38.4011 36.9505 38.3203 36.8177 38.2156 36.7049C38.1108 36.5922 37.9844 36.5017 37.8438 36.4391C37.5529 36.3226 37.2284 36.3226 36.9375 36.4391L33.6719 37.6891C36.1591 34.6682 39.4301 32.3904 43.1261 31.1054C46.8222 29.8203 50.8007 29.5777 54.6255 30.404C58.4503 31.2303 61.9738 33.0936 64.8098 35.7898C67.6458 38.486 69.6847 41.9109 70.7031 45.6891C70.7416 45.8374 70.81 45.9762 70.904 46.0971C70.9981 46.218 71.1158 46.3184 71.25 46.3922C71.3829 46.4707 71.53 46.5221 71.6829 46.5436C71.8357 46.565 71.9913 46.5561 72.1406 46.5172L77.1719 45.1579C77.3207 45.118 77.4603 45.0492 77.5825 44.9553C77.7047 44.8614 77.8072 44.7444 77.8841 44.6109C77.961 44.4774 78.0109 44.33 78.0307 44.1772C78.0506 44.0244 78.0402 43.8691 78 43.7204C76.5579 38.3903 73.6177 33.5855 69.5281 29.8755C65.4384 26.1655 60.3708 23.7059 54.9258 22.7883C49.4809 21.8706 43.887 22.5334 38.8073 24.6981C33.7276 26.8628 29.375 30.4386 26.2656 35.0016L24.7031 30.986C24.6482 30.8366 24.5634 30.7001 24.4539 30.5846C24.3444 30.4691 24.2125 30.3771 24.0663 30.3142C23.9201 30.2513 23.7626 30.2189 23.6035 30.2189C23.4443 30.2189 23.2869 30.2513 23.1406 30.3141L18.2656 32.1891C17.9791 32.3042 17.7454 32.5213 17.6094 32.7985C17.4922 33.0838 17.4922 33.4038 17.6094 33.6891L23.2813 48.486C23.3619 48.7217 23.5164 48.9251 23.722 49.0659C23.9275 49.2066 24.173 49.2773 24.4219 49.2672ZM22.9531 32.9547L25 38.0797C25.0773 38.2874 25.2126 38.4686 25.3899 38.6015C25.5672 38.7345 25.779 38.8137 26 38.8297C26.2214 38.841 26.4418 38.7917 26.6373 38.6871C26.8327 38.5825 26.996 38.4265 27.1094 38.236C29.6517 33.7348 33.4522 30.0733 38.0449 27.7004C42.6377 25.3274 47.823 24.3462 52.9652 24.877C58.1074 25.4078 62.983 27.4276 66.9941 30.6887C71.0053 33.9497 73.9777 38.3104 75.5469 43.236L72.7656 43.986C71.3566 39.6176 68.7064 35.7538 65.1384 32.8663C61.5704 29.9788 57.239 28.1924 52.6728 27.7251C48.1066 27.2579 43.5032 28.1301 39.4243 30.2352C35.3455 32.3402 31.9677 35.5872 29.7031 39.5797C29.5829 39.7893 29.5304 40.0309 29.5528 40.2714C29.5752 40.512 29.6713 40.7397 29.8281 40.9235C29.9862 41.1072 30.1972 41.2373 30.4323 41.2961C30.6673 41.3548 30.9148 41.3393 31.1406 41.2516L36.6875 39.0641L37.7031 41.7516L25.0938 46.5797L20.3125 33.986L22.9531 32.9547Z" fill="#004AAD"/>
<path d="M82.3438 65.6265L76.9531 51.564C76.8982 51.4146 76.8133 51.278 76.7039 51.1625C76.5944 51.047 76.4625 50.9551 76.3163 50.8922C76.1701 50.8293 76.0126 50.7969 75.8535 50.7969C75.6943 50.7969 75.5368 50.8293 75.3906 50.8921L61.3281 56.2671C61.1788 56.3221 61.0422 56.4069 60.9267 56.5164C60.8112 56.6259 60.7192 56.7577 60.6563 56.9039C60.5935 57.0501 60.561 57.2076 60.561 57.3668C60.561 57.5259 60.5934 57.6834 60.6563 57.8296L62.5 62.5796C62.555 62.729 62.6398 62.8656 62.7493 62.9811C62.8588 63.0966 62.9906 63.1885 63.1368 63.2514C63.283 63.3143 63.4405 63.3467 63.5997 63.3467C63.7588 63.3467 63.9163 63.3143 64.0625 63.2515L66.5781 62.2984C64.093 65.3167 60.8244 67.5921 57.1311 68.8748C53.4377 70.1575 49.4624 70.398 45.6414 69.5699C41.8203 68.7418 38.3013 66.877 35.4704 64.1803C32.6395 61.4836 30.6063 58.0591 29.5938 54.2827C29.5111 53.9855 29.3146 53.7329 29.0469 53.5796C28.7779 53.4228 28.458 53.3779 28.1563 53.4546L23.1094 54.814C22.811 54.8981 22.5574 55.0956 22.4027 55.3641C22.2479 55.6327 22.2044 55.9512 22.2813 56.2515C23.7211 61.5854 26.6609 66.3944 30.7519 70.1076C34.8428 73.8208 39.9132 76.2824 45.3613 77.2003C50.8094 78.1181 56.4064 77.4538 61.4882 75.286C66.57 73.1182 70.9232 69.538 74.0313 64.9702L75.2969 68.2671C75.3519 68.4165 75.4367 68.5531 75.5462 68.6686C75.6556 68.7841 75.7875 68.876 75.9337 68.9389C76.0799 69.0018 76.2374 69.0342 76.3965 69.0342C76.5557 69.0342 76.7132 69.0018 76.8594 68.939L81.7344 67.0796C82.022 66.9582 82.2553 66.7359 82.3906 66.4546C82.4765 66.1821 82.4598 65.8876 82.3438 65.6265ZM77.0469 66.3921L75.3594 61.9859C75.2793 61.7769 75.1412 61.5953 74.9612 61.4624C74.7812 61.3295 74.567 61.2509 74.3438 61.2359C74.1244 61.224 73.906 61.2732 73.7129 61.378C73.5198 61.4828 73.3595 61.6391 73.25 61.8296C70.7077 66.3308 66.9072 69.9923 62.3145 72.3652C57.7217 74.7382 52.5364 75.7194 47.3942 75.1886C42.252 74.6578 37.3764 72.638 33.3653 69.3769C29.3541 66.1159 26.3817 61.7552 24.8125 56.8296L27.5938 56.0796C28.9975 60.4409 31.6392 64.2998 35.1969 67.1866C38.7547 70.0734 43.0751 71.8633 47.632 72.3386C52.1889 72.8138 56.7856 71.9538 60.8625 69.8632C64.9393 67.7726 68.3203 64.5417 70.5938 60.564C70.7238 60.3696 70.7944 60.1416 70.7969 59.9077C70.799 59.7018 70.7468 59.4989 70.6455 59.3196C70.5442 59.1402 70.3975 58.9907 70.22 58.8862C70.0426 58.7816 69.8407 58.7257 69.6347 58.724C69.4288 58.7223 69.226 58.7749 69.0469 58.8765L64.2656 60.7046L63.2344 58.0171L75.1406 53.4702L79.6875 65.2984L77.0469 66.3921Z" fill="#004AAD"/>
<path d="M50 94.9219C41.1153 94.9219 32.4301 92.2873 25.0428 87.3512C17.6554 82.4151 11.8976 75.3993 8.49762 67.1909C5.09759 58.9825 4.20799 49.9502 5.94131 41.2362C7.67463 32.5222 11.953 24.5179 18.2355 18.2355C24.5179 11.953 32.5222 7.67463 41.2362 5.94131C49.9502 4.20799 58.9825 5.09759 67.1909 8.49762C75.3993 11.8976 82.4151 17.6554 87.3512 25.0428C92.2873 32.4301 94.9219 41.1153 94.9219 50C94.9054 61.909 90.1672 73.3254 81.7463 81.7463C73.3254 90.1672 61.909 94.9054 50 94.9219ZM50 7.4219C41.5789 7.4219 33.3468 9.91906 26.3449 14.5976C19.3429 19.2761 13.8856 25.9259 10.663 33.7061C7.44032 41.4862 6.59714 50.0473 8.24002 58.3066C9.88291 66.5659 13.9381 74.1526 19.8927 80.1073C25.8474 86.062 33.4341 90.1171 41.6934 91.76C49.9528 93.4029 58.5138 92.5597 66.294 89.3371C74.0741 86.1144 80.7239 80.6571 85.4024 73.6552C90.081 66.6532 92.5781 58.4212 92.5781 50C92.5657 38.7114 88.0759 27.8887 80.0936 19.9064C72.1113 11.9242 61.2886 7.4343 50 7.4219Z" fill="#004AAD"/>
</svg>
