<svg width="100" height="100" viewBox="0 0 100 100" fill="none" xmlns="http://www.w3.org/2000/svg">
<path d="M72.4847 66.6481C73.7815 61.1403 68.1409 56.1247 62.8284 57.9763L42.0237 37.1716C43.8597 31.8669 38.9378 26.3044 33.43 27.4841C33.2674 27.5181 33.1199 27.6032 33.0089 27.7268C32.8979 27.8504 32.8292 28.0062 32.8128 28.1716C32.8001 28.2867 32.8131 28.4032 32.8509 28.5126C32.8888 28.622 32.9505 28.7217 33.0315 28.8044L36.1565 31.9294L35.2347 35.2341L31.8987 36.1247L28.7737 32.9997C28.6042 32.8633 28.3892 32.7963 28.1722 32.8122C28.0068 32.8286 27.851 32.8973 27.7274 33.0083C27.6038 33.1193 27.5187 33.2668 27.4847 33.4294C26.2737 38.8981 31.9378 43.9059 37.1878 42.0231L57.9769 62.8278C56.1331 68.1325 61.1019 73.695 66.5706 72.5153C66.7332 72.4812 66.8807 72.3962 66.9917 72.2726C67.1027 72.1489 67.1714 71.9931 67.1878 71.8278C67.2005 71.7127 67.1875 71.5962 67.1496 71.4868C67.1118 71.3773 67.0501 71.2777 66.969 71.195L63.844 68.07L64.7659 64.7653L68.1019 63.8747L71.2269 66.9997C71.3835 67.1325 71.5771 67.2143 71.7815 67.2341C71.9455 67.2228 72.1017 67.16 72.2279 67.0548C72.3541 66.9496 72.444 66.8073 72.4847 66.6481ZM68.1331 62.2497L63.93 63.3747C63.7968 63.41 63.6754 63.48 63.578 63.5774C63.4806 63.6748 63.4106 63.7962 63.3753 63.9294L62.2503 68.1325C62.2098 68.2689 62.2073 68.4137 62.2431 68.5514C62.2789 68.6891 62.3516 68.8144 62.4534 68.9138L64.6331 71.0934C63.7067 71.0093 62.8125 70.7109 62.0212 70.2218C61.2299 69.7326 60.5631 69.0662 60.0736 68.2752C59.5841 67.4841 59.2853 66.59 59.2007 65.6636C59.1161 64.7372 59.2481 63.8038 59.5862 62.9372C59.6368 62.7904 59.6368 62.6309 59.5862 62.4841C59.5735 62.3314 59.5038 62.1892 59.3909 62.0856L37.9456 40.6247C37.8347 40.5118 37.6887 40.4402 37.5315 40.4216C37.3894 40.375 37.2362 40.375 37.094 40.4216C36.2253 40.7676 35.2876 40.9055 34.356 40.8242C33.4244 40.7429 32.5247 40.4447 31.729 39.9535C30.9333 39.4622 30.2636 38.7915 29.7735 37.9951C29.2834 37.1987 28.9865 36.2986 28.9065 35.3669L31.0784 37.5466C31.1514 37.619 31.238 37.6763 31.3332 37.7151C31.4284 37.754 31.5303 37.7737 31.6331 37.7731C31.7006 37.7808 31.7687 37.7808 31.8362 37.7731L36.0394 36.6481C36.1725 36.6128 36.294 36.5429 36.3914 36.4455C36.4888 36.348 36.5587 36.2266 36.594 36.0934L37.719 31.8903C37.7595 31.7539 37.762 31.6091 37.7262 31.4714C37.6904 31.3337 37.6177 31.2085 37.5159 31.1091L35.3675 28.9059C36.2939 28.9901 37.1881 29.2885 37.9794 29.7776C38.7707 30.2667 39.4375 30.9332 39.9269 31.7242C40.4164 32.5153 40.7153 33.4093 40.7999 34.3358C40.8845 35.2622 40.7525 36.1956 40.4144 37.0622C40.3638 37.209 40.3638 37.3685 40.4144 37.5153C40.4271 37.668 40.4968 37.8102 40.6097 37.9138L62.055 59.4138C62.1607 59.5237 62.3018 59.5928 62.4534 59.6091C62.6002 59.6597 62.7597 59.6597 62.9065 59.6091C63.773 59.2635 64.7082 59.125 65.6376 59.2045C66.567 59.2841 67.465 59.5796 68.2601 60.0674C69.0552 60.5552 69.7255 61.222 70.2175 62.0145C70.7094 62.807 71.0096 63.7035 71.094 64.6325L68.9222 62.4528C68.8221 62.3496 68.6954 62.2761 68.5562 62.2402C68.417 62.2044 68.2706 62.2077 68.1331 62.2497Z" fill="#004AAD"/>
<path d="M52.4842 44.532C52.5876 44.5316 52.6898 44.5106 52.785 44.4704C52.8803 44.4302 52.9665 44.3714 53.0389 44.2976L59.1795 38.157C59.2825 38.0486 59.3549 37.9149 59.3892 37.7693C59.4235 37.6238 59.4186 37.4718 59.3748 37.3289C57.3436 31.782 64.3201 27.2976 68.5233 31.4695C72.7264 35.6414 68.2108 42.6492 62.6639 40.6179C62.5186 40.5729 62.3639 40.5672 62.2156 40.6015C62.0674 40.6358 61.9309 40.7089 61.8201 40.8132L55.6795 46.9539C55.5515 47.1033 55.4847 47.2956 55.4922 47.4922C55.4998 47.6888 55.5813 47.8753 55.7205 48.0145C55.8596 48.1536 56.0461 48.2351 56.2428 48.2427C56.4394 48.2503 56.6316 48.1834 56.7811 48.0554L62.6092 42.2351C69.6405 44.2429 74.7889 35.5789 69.6405 30.3523C64.492 25.1257 55.7733 30.3523 57.7733 37.3835L51.9373 43.2195C51.8353 43.3293 51.7671 43.4662 51.7407 43.6137C51.7143 43.7613 51.731 43.9133 51.7886 44.0516C51.8463 44.19 51.9425 44.3088 52.0658 44.394C52.1892 44.4792 52.3344 44.5271 52.4842 44.532Z" fill="#004AAD"/>
<path d="M46.9613 55.6879L40.8207 61.8285C40.7149 61.9383 40.6409 62.0748 40.6065 62.2234C40.5721 62.372 40.5786 62.5271 40.6254 62.6722C42.6566 68.2191 35.68 72.7035 31.4769 68.5316C27.2738 64.3597 31.7894 57.3519 37.3363 59.3832C37.4804 59.4284 37.6339 59.4341 37.781 59.3998C37.928 59.3654 38.0631 59.2922 38.1722 59.1879L44.3129 53.0472C44.4408 52.8978 44.5077 52.7055 44.5001 52.5089C44.4925 52.3123 44.411 52.1258 44.2719 51.9866C44.1328 51.8475 43.9462 51.766 43.7496 51.7584C43.553 51.7508 43.3608 51.8177 43.2113 51.9457L37.3754 57.8129C30.3441 55.8129 25.2191 64.4535 30.3441 69.68C35.4691 74.9066 44.2425 69.68 42.2113 62.6488L48.0472 56.8129C48.1964 56.6689 48.2823 56.4715 48.2859 56.2642C48.2896 56.0569 48.2108 55.8566 48.0668 55.7074C47.9955 55.6335 47.9103 55.5744 47.8162 55.5335C47.722 55.4925 47.6207 55.4705 47.5181 55.4687C47.3108 55.465 47.1105 55.5439 46.9613 55.6879Z" fill="#004AAD"/>
<path d="M35.8751 61.3372L33.3673 62.0091C33.2341 62.0444 33.1127 62.1144 33.0152 62.2118C32.9178 62.3092 32.8479 62.4306 32.8126 62.5638L32.1407 65.0716C32.1002 65.208 32.0977 65.3528 32.1335 65.4905C32.1693 65.6282 32.242 65.7535 32.3438 65.8528L34.1798 67.6888C34.2791 67.7906 34.4044 67.8633 34.5421 67.8991C34.6798 67.9349 34.8246 67.9324 34.961 67.8919L37.4376 67.1888C37.5707 67.1534 37.6922 67.0835 37.7896 66.9861C37.887 66.8887 37.9569 66.7673 37.9923 66.6341L38.6641 64.1263C38.7046 63.9899 38.7071 63.8451 38.6713 63.7074C38.6355 63.5697 38.5628 63.4444 38.461 63.345L36.6251 61.5091C36.5255 61.4182 36.4041 61.3545 36.2727 61.3244C36.1413 61.2943 36.0043 61.2987 35.8751 61.3372ZM36.6016 65.7982L34.961 66.2357L33.7657 65.0403L34.2032 63.3997L35.8438 62.9622L37.0391 64.1575L36.6016 65.7982Z" fill="#004AAD"/>
<path d="M63.7891 39.212C63.854 39.2196 63.9196 39.2196 63.9844 39.212L67.0157 38.4307C67.1488 38.3954 67.2703 38.3255 67.3677 38.2281C67.4651 38.1306 67.535 38.0092 67.5704 37.876L68.3516 34.8448C68.3921 34.7084 68.3946 34.5636 68.3588 34.4259C68.323 34.2882 68.2503 34.1629 68.1485 34.0635L65.961 31.8214C65.8616 31.7196 65.7363 31.6469 65.5986 31.6111C65.461 31.5753 65.3161 31.5778 65.1798 31.6182L62.1485 32.3995C62.0154 32.4348 61.8939 32.5047 61.7965 32.6022C61.6991 32.6996 61.6292 32.821 61.5938 32.9542L60.8126 35.9854C60.7721 36.1218 60.7696 36.2666 60.8054 36.4043C60.8412 36.542 60.9139 36.6673 61.0157 36.7667L63.2344 38.9854C63.3074 39.0578 63.394 39.1151 63.4892 39.154C63.5844 39.1929 63.6863 39.2126 63.7891 39.212ZM63.0079 33.8214L65.1719 33.2432L66.7344 34.8057L66.1563 36.9698L63.9923 37.5479L62.4298 35.9854L63.0079 33.8214Z" fill="#004AAD"/>
<circle cx="50" cy="50" r="50" fill="#004AAD" fill-opacity="0.15"/>
</svg>
