<svg width="100" height="100" viewBox="0 0 100 100" fill="none" xmlns="http://www.w3.org/2000/svg">
<g clip-path="url(#clip0_3048_77)">
<path fill-rule="evenodd" clip-rule="evenodd" d="M77.9297 65.6241C76.5625 65.6241 75 65.0381 73.8281 63.8662C73.2422 63.2803 73.2422 62.4991 73.8281 61.9131C74.4141 61.3272 75.1953 61.3272 75.7812 61.9131C76.9531 63.085 79.1016 63.085 80.2734 61.9131C81.25 60.7412 81.25 58.7881 80.2734 57.6162C79.4922 56.835 78.3203 55.6631 76.9531 54.2959C74.6094 51.7569 71.4844 48.6319 70.3125 47.8506C67.1875 46.2881 64.2578 44.7256 61.3281 43.1631C58.3984 41.6006 55.2734 40.0381 52.3438 38.4756C51.5625 38.085 51.1719 38.2803 50.9766 38.2803C49.6094 38.6709 48.4375 41.0147 47.8516 42.1866C47.0703 43.9444 45.5078 45.1162 43.5547 45.1162C41.4062 45.3116 39.0625 44.335 37.8906 42.5772C36.7188 40.8194 36.7188 38.8662 37.8906 36.9131C41.0156 31.0537 47.2656 21.8741 53.9062 24.9991C58.7891 27.1475 66.6016 30.6631 67.7734 31.0537C68.3594 30.8584 69.5312 30.2725 72.6562 28.5147L73.0469 28.3194C73.8281 27.9287 74.6094 28.1241 75 28.71C75.3906 29.4912 75.1953 30.2725 74.4141 30.6631L74.0234 30.8584C69.1406 33.7881 67.9688 34.1787 66.9922 33.5928C65.2344 33.0069 56.6406 29.1006 52.7344 27.3428C47.8516 25.1944 41.9922 34.96 40.2344 38.085C39.6484 39.2569 39.6484 40.2334 40.2344 41.0147C40.8203 41.9912 41.9922 42.5772 43.3594 42.3819C43.9453 42.3819 44.9219 42.1866 45.3125 41.0147H45.5078C46.4844 38.6709 47.8516 36.3272 50.1953 35.5459C51.1719 35.3506 52.3438 35.3506 53.5156 36.1319C56.6406 37.6944 59.5703 39.2569 62.5 40.8194C65.4297 42.3819 68.5547 43.9444 71.4844 45.5069C73.0469 46.2881 75.3906 48.8272 78.9062 52.3428C80.0781 53.71 81.4453 54.8819 82.0312 55.6631C82.2266 55.6631 82.2266 55.6631 82.2266 55.6631C84.1797 58.0069 84.1797 61.5225 82.2266 63.8662C81.0547 65.0381 79.4922 65.6241 77.9297 65.6241Z" fill="#004AAD"/>
<path fill-rule="evenodd" clip-rule="evenodd" d="M31.4453 36.1329C31.25 36.1329 31.0547 36.1329 30.8594 35.9376L25.5859 33.2032C24.8047 33.0079 24.6094 32.0313 25 31.4454C25.3906 30.8595 26.1719 30.4688 26.7578 30.8595L30.8594 33.0079C32.8125 29.1017 35.3516 26.9532 38.2812 26.172C42.5781 25.1954 45.8984 27.7345 46.0938 27.9298C46.6797 28.3204 46.875 29.1017 46.4844 29.6876C45.8984 30.2735 45.1172 30.4688 44.5312 30.0782C44.5312 29.8829 41.7969 28.1251 38.8672 28.9063C36.5234 29.4923 34.375 31.6407 32.6172 35.3517C32.6172 35.7423 32.2266 35.9376 31.8359 36.1329C31.6406 36.1329 31.6406 36.1329 31.4453 36.1329Z" fill="#004AAD"/>
<path fill-rule="evenodd" clip-rule="evenodd" d="M78.9062 55.6641C78.3203 55.6641 77.9297 55.4688 77.7344 55.0781C77.3438 54.2969 77.5391 53.5156 78.3203 53.125L85.3516 49.2188C85.9375 48.8281 86.7188 49.0234 87.1094 49.8047C87.5 50.3906 87.3047 51.1719 86.5234 51.5625L79.4922 55.4688C79.2969 55.6641 79.1016 55.6641 78.9062 55.6641Z" fill="#004AAD"/>
<path fill-rule="evenodd" clip-rule="evenodd" d="M38.2812 78.9062C36.9141 78.9062 35.7422 78.5156 34.7656 77.5391C33.7891 76.5625 33.3984 75.3906 33.3984 74.2188C33.3984 72.8516 33.7891 71.6797 34.7656 70.7031C35.3516 70.3125 36.1328 70.3125 36.7188 70.7031C37.3047 71.2891 37.3047 72.2656 36.7188 72.6562C36.3281 73.0469 36.1328 73.6328 36.1328 74.2188C36.1328 74.8047 36.3281 75.1953 36.7188 75.5859C37.1094 75.9766 37.6953 76.3672 38.2812 76.3672C38.8672 76.3672 39.4531 75.9766 39.8438 75.5859L44.5312 70.8984C44.9219 70.5078 45.1172 70.1172 45.1172 69.5312C45.1172 68.9453 44.9219 68.3594 44.5312 67.9688C44.1406 67.5781 43.5547 67.3828 42.9688 67.3828C42.3828 67.3828 41.7969 67.5781 41.4062 67.9688C40.8203 68.5547 40.0391 68.5547 39.4531 67.9688C38.8672 67.5781 38.8672 66.6016 39.4531 66.0156C40.4297 65.2344 41.6016 64.6484 42.9688 64.6484C44.3359 64.6484 45.5078 65.2344 46.4844 66.0156C47.4609 66.9922 47.8516 68.1641 47.8516 69.5312C47.8516 70.7031 47.4609 71.875 46.4844 72.8516L41.7969 77.5391C40.8203 78.5156 39.6484 78.9062 38.2812 78.9062Z" fill="#004AAD"/>
<path fill-rule="evenodd" clip-rule="evenodd" d="M33.2031 74.0254C32.0312 74.0254 30.8594 73.6348 29.8828 72.6582C28.9062 71.6816 28.5156 70.5098 28.5156 69.1426C28.5156 67.7754 28.9062 66.6035 29.8828 65.627L36.9141 58.791C38.8672 57.0332 41.7969 57.0332 43.75 58.791C45.7031 60.7441 45.7031 63.6738 43.75 65.627L36.7188 72.6582C35.7422 73.6348 34.5703 74.0254 33.2031 74.0254ZM40.2344 60.1582C39.8438 60.1582 39.2578 60.3535 38.8672 60.7441L31.8359 67.5801C31.0547 68.3613 31.0547 69.9238 31.8359 70.7051C32.6172 71.4863 33.9844 71.4863 34.7656 70.7051L41.7969 63.6738C42.5781 62.8926 42.5781 61.5254 41.7969 60.7441C41.4062 60.3535 40.8203 60.1582 40.2344 60.1582Z" fill="#004AAD"/>
<path fill-rule="evenodd" clip-rule="evenodd" d="M28.3206 68.9453C27.1488 68.9453 25.9769 68.5547 25.0003 67.5781C24.2191 66.7969 23.6331 65.625 23.6331 64.4531C23.4378 63.0859 24.0238 61.7188 25.0003 60.7422L30.8597 54.8828C31.8363 54.1016 33.0081 53.5156 34.18 53.5156C35.5472 53.5156 36.7191 54.1016 37.6956 54.8828C38.4769 55.8594 39.0628 57.0312 39.0628 58.3984C39.0628 59.5703 38.6722 60.7422 37.6956 61.7188C37.1097 62.3047 36.3284 62.3047 35.7425 61.7188C35.1566 61.1328 35.1566 60.3516 35.7425 59.7656C36.1331 59.375 36.3284 58.7891 36.3284 58.3984C36.3284 57.8125 36.1331 57.2266 35.7425 56.8359C35.3519 56.4453 34.7659 56.25 34.18 56.25C33.5941 56.25 33.2034 56.4453 32.8128 56.8359L26.9534 62.6953C26.5628 63.0859 26.1722 63.6719 26.1722 64.2578C26.3675 64.8438 26.5628 65.2344 26.7581 65.625H26.9534C27.3441 66.0156 27.7347 66.2109 28.3206 66.2109C28.9066 66.2109 29.4925 66.0156 29.8831 65.625C30.4691 65.0391 31.2503 65.0391 31.8363 65.625C32.4222 66.2109 32.4222 66.9922 31.8363 67.5781C30.8597 68.5547 29.6878 68.9453 28.3206 68.9453Z" fill="#004AAD"/>
<path fill-rule="evenodd" clip-rule="evenodd" d="M23.4375 64.0625C22.0703 64.0625 20.8984 63.6719 19.9219 62.6953C17.9688 60.7422 17.9688 57.8125 19.9219 55.8594L21.875 53.9062C23.8281 51.9531 26.7578 51.9531 28.7109 53.9062C30.6641 55.8594 30.6641 58.9844 28.7109 60.9375C28.3203 61.3281 27.7344 61.5234 27.3438 61.3281C27.5391 61.7188 27.3438 62.3047 26.9531 62.6953C25.9766 63.6719 24.6094 64.0625 23.4375 64.0625ZM25.3906 55.2734C24.8047 55.2734 24.2188 55.4688 23.8281 55.8594L21.875 57.8125C21.0938 58.5938 21.0938 59.9609 21.875 60.7422C22.6562 61.7188 24.2188 61.7188 25 60.7422C25.3906 60.3516 25.9766 60.3516 26.3672 60.5469C26.1719 59.9609 26.3672 59.375 26.7578 58.9844C27.5391 58.2031 27.5391 56.6406 26.7578 55.8594C26.3672 55.4688 25.7812 55.2734 25.3906 55.2734Z" fill="#004AAD"/>
<path fill-rule="evenodd" clip-rule="evenodd" d="M20.8984 58.3984C20.7031 58.3984 20.5078 58.3984 20.3125 58.2031L13.4766 54.2969C12.6953 53.9062 12.5 53.125 12.8906 52.5391C13.2812 51.7578 14.0625 51.5625 14.8437 51.9531L21.6797 55.8594C22.2656 56.25 22.4609 57.0312 22.0703 57.8125C21.875 58.2031 21.2891 58.3984 20.8984 58.3984Z" fill="#004AAD"/>
<path fill-rule="evenodd" clip-rule="evenodd" d="M55.2734 81.0566C53.7109 81.0566 52.3438 80.4707 51.1719 79.2988L45.3125 73.6348C44.7266 73.0488 44.7266 72.2676 45.3125 71.6816C45.8984 71.0957 46.6797 71.0957 47.2656 71.6816L53.125 77.3457C54.2969 78.5176 56.25 78.5176 57.4219 77.3457C58.5938 76.1738 58.5938 74.2207 57.4219 73.0488C56.8359 72.4629 56.8359 71.6816 57.4219 71.0957C58.0078 70.5098 58.7891 70.5098 59.375 71.0957C61.7188 73.4395 61.7188 76.9551 59.375 79.2988C58.2031 80.4707 56.6406 81.0566 55.2734 81.0566Z" fill="#004AAD"/>
<path fill-rule="evenodd" clip-rule="evenodd" d="M65.4297 78.7109C63.8672 78.7109 62.5 78.125 61.3281 76.9531L51.7578 67.1875C51.1719 66.6016 51.1719 65.8203 51.7578 65.2344C52.3438 64.8438 53.125 64.8438 53.7109 65.2344L63.2812 75C64.4531 76.3672 66.6016 76.3672 67.7734 75C68.9453 73.8281 68.9453 71.875 67.7734 70.5078C67.1875 70.1172 67.1875 69.1406 67.7734 68.5547C68.3594 68.1641 69.1406 68.1641 69.7266 68.5547C70.8984 69.7266 71.4844 71.2891 71.4844 72.8516C71.4844 74.4141 70.8984 75.9766 69.7266 76.9531C68.5547 78.125 67.1875 78.7109 65.4297 78.7109Z" fill="#004AAD"/>
<path fill-rule="evenodd" clip-rule="evenodd" d="M73.6328 74.2207C72.2656 74.2207 70.7031 73.6348 69.5312 72.4629L58.0078 60.9395C57.4219 60.3535 57.4219 59.5723 58.0078 58.9863C58.5938 58.4004 59.375 58.4004 59.9609 58.9863L71.4844 70.5098C72.6562 71.6816 74.8047 71.6816 75.9766 70.5098C77.1484 69.3379 77.1484 67.1895 75.9766 66.0176L64.4531 54.4941C63.8672 53.9082 63.8672 53.127 64.4531 52.541C65.0391 51.9551 65.8203 51.9551 66.4062 52.541L77.9297 64.0645C80.2734 66.4082 80.2734 70.1191 77.9297 72.4629C76.7578 73.6348 75.1953 74.2207 73.6328 74.2207Z" fill="#004AAD"/>
<path fill-rule="evenodd" clip-rule="evenodd" d="M88.6719 54.6876C87.3047 54.6876 86.1328 53.9064 85.5469 52.5392L71.875 28.9064C71.2891 28.1251 71.0938 27.1485 71.2891 26.172C71.4844 25.1954 72.2656 24.2189 73.2422 23.8282L80.6641 19.5314C81.6406 18.9454 82.6172 18.7501 83.5938 19.1407C84.5703 19.336 85.3516 19.922 85.7422 20.8985L99.4141 44.5314C100 45.5079 100.195 46.4845 99.8047 47.461C99.6094 48.4376 99.0234 49.2189 98.0469 49.6095L90.625 54.1017C90.4297 54.1017 90.4297 54.1017 90.4297 54.1017C89.8438 54.4923 89.2578 54.6876 88.6719 54.6876ZM82.6172 21.6798C82.6172 21.6798 82.4219 21.6798 82.2266 21.8751C82.2266 21.8751 82.2266 21.8751 82.0312 21.8751L74.4141 26.172C74.2188 26.3673 74.0234 26.5626 74.0234 26.7579C74.0234 26.9532 74.0234 27.1485 74.2188 27.3439C74.2188 27.3439 74.2188 27.3439 74.2188 27.5392L87.8906 51.3673C88.2812 51.9532 88.8672 51.9532 89.2578 51.7579L96.875 47.2657C97.0703 47.0704 97.2656 47.0704 97.2656 46.8751C97.2656 46.6798 97.2656 46.2892 97.0703 46.0939L83.3984 22.2657C83.3984 22.2657 83.3984 22.2657 83.3984 22.0704C83.2031 21.8751 83.2031 21.8751 83.0078 21.6798C82.8125 21.6798 82.8125 21.6798 82.6172 21.6798Z" fill="#004AAD"/>
<path fill-rule="evenodd" clip-rule="evenodd" d="M11.3281 57.2283C10.7422 57.2283 10.1562 57.0329 9.57031 56.6423H9.375L1.95312 52.1501C0.976562 51.7595 0.195312 50.9783 0 49.8064C-0.195312 49.0251 0 48.0486 0.585938 47.2673L14.2578 23.4392C15.2344 21.6814 17.3828 21.0954 19.1406 22.072C19.1406 22.072 19.1406 22.072 19.3359 22.072L26.7578 26.5642C27.7344 26.9548 28.5156 27.9314 28.7109 28.9079C28.9062 29.6892 28.7109 30.6658 28.125 31.447L14.4531 55.4704C13.8672 56.447 12.5 57.2283 11.3281 57.2283ZM10.7422 54.2986C11.3281 54.4939 11.9141 54.2986 12.1094 54.1033L25.7812 30.0798C25.7812 29.8845 25.7812 29.8845 25.9766 29.8845C25.9766 29.6892 25.9766 29.6892 25.9766 29.4939C25.9766 29.2986 25.7812 29.1033 25.5859 28.9079H25.3906L17.9688 24.4158C17.3828 24.2204 16.7969 24.4158 16.6016 24.8064L2.92969 48.8298C2.92969 48.8298 2.92969 48.8298 2.73438 49.0251V49.2204C2.73438 49.4158 2.92969 49.6111 3.125 49.8064H3.32031L10.7422 54.2986Z" fill="#004AAD"/>
</g>
<defs>
<clipPath id="clip0_3048_77">
<rect width="100" height="100" fill="white"/>
</clipPath>
</defs>
</svg>
